<svg width="182" height="182" viewBox="0 0 182 182" fill="none" xmlns="http://www.w3.org/2000/svg">
<path d="M105.209 102.542C104.532 102.723 103.959 102.852 103.506 102.959C103.167 103.019 102.888 103.079 102.695 103.107H102.654L102.389 103.153C102.389 103.153 102.361 103.121 102.343 103.121C97.7638 99.7241 99.1695 93.4027 99.1695 93.4027C112.861 95.5823 115.7 84.3741 115.7 84.3741C115.521 79.0013 114.509 76.4746 112.174 75.0215C109.733 73.4759 105.841 73.0779 99.893 71.7822L98.9085 71.5601C90.0619 69.5285 85.9362 60.3518 84.3061 55.2614C83.9265 54.1336 83.6206 52.9818 83.3903 51.8138C73.3714 55.6177 67.0981 61.0043 63.4853 65.0443C62.0566 36.4036 90.5015 40.5176 90.5015 40.5176C95.2879 40.5871 100.045 41.29 104.651 42.6094C105.695 43.0721 106.693 43.5349 107.645 43.9977C108.103 44.2337 108.589 44.4882 109.019 44.752C109.449 45.0157 109.935 45.2749 110.356 45.5387C110.663 45.7191 110.974 45.9135 111.272 46.1171C117.529 50.1302 122.531 55.8561 125.696 62.6287C125.741 62.7203 125.78 62.8147 125.815 62.9109C125.959 63.2242 126.086 63.5459 126.195 63.8735C132.633 92.3429 112.769 100.492 105.209 102.542Z" fill="#00C66C"/>
<path d="M105.209 103.153C103.213 99.7667 104.138 95.6795 104.138 95.6795C117.815 97.8842 120.663 86.571 120.663 86.571C120.37 78.252 118.168 76.6919 112.174 75.3606C109.953 74.8515 107.224 74.3844 103.872 73.623C102.48 73.304 101.14 72.7836 99.893 72.0769C90.7854 66.9855 88.331 53.6778 88.331 53.6778C86.9207 54.215 85.5836 54.7988 84.3061 55.4014C83.9265 54.2631 83.6206 53.1009 83.3903 51.9215C73.3714 55.7611 67.0981 61.1981 63.4853 65.2759C62.0566 36.367 90.5015 40.5196 90.5015 40.5196C95.2879 40.5896 100.045 41.2996 104.651 42.6309C105.695 43.098 106.693 43.5651 107.645 44.0322C108.103 44.2704 108.589 44.5273 109.019 44.7935C109.449 45.0598 109.935 45.3214 110.356 45.5876C110.663 45.7698 110.974 45.966 111.272 46.1715C117.529 50.2227 122.531 56.0021 125.696 62.8376C125.741 62.9306 125.78 63.0254 125.815 63.1226C125.959 63.4393 126.086 63.7634 126.195 64.0941C132.633 92.8582 112.769 101.084 105.209 103.153Z" fill="#00C66C"/>
<path fill-rule="evenodd" clip-rule="evenodd" d="M153.507 157.135C155.087 151.23 158.139 145.609 163.622 141.56C150.243 137.017 139.507 133.425 127.012 130.553C122.185 129.44 117.094 128.452 111.467 127.529L107.4 126.818C107.233 137.866 99.5277 140.359 93.206 141.56C77.6151 144.547 66.8046 133.189 67.2675 123.309C49.9644 123.503 32.8417 125.784 15.719 128.688C16.777 131.784 18.3963 137.839 18.3627 145.825C19.5432 147.387 20.7728 148.909 22.0494 150.389C22.1684 150.527 22.2876 150.665 22.4075 150.802C22.5592 150.976 22.7117 151.15 22.8648 151.322L23.0382 151.517L23.2299 151.732L23.2721 151.779L23.5575 152.096L23.8314 152.396L23.8823 152.452L24.078 152.665L24.1423 152.734C24.3183 152.925 24.4951 153.115 24.6726 153.304C41.2716 170.968 64.8475 182 90.9999 182C96.5957 182 102.073 181.495 107.39 180.528C108.603 180.307 109.809 180.062 111.005 179.794C113.018 179.342 115.007 178.824 116.968 178.241C117.469 178.092 117.969 177.939 118.466 177.781L118.773 177.684L119.149 177.563C119.419 177.475 119.689 177.386 119.958 177.296C132.611 173.051 144.023 166.102 153.507 157.135Z" fill="#353642"/>
<path fill-rule="evenodd" clip-rule="evenodd" d="M166.02 142.522L165.061 142.192C150.883 137.316 139.858 133.524 126.867 130.514C126.044 126.512 125.267 117.928 129.093 105.397C134.578 87.5204 136.383 69.3809 133.595 65.8764C133.569 65.8364 133.535 65.8018 133.494 65.7751C131.511 58.5681 126.264 63.2332 126.264 63.2332C126.264 63.2332 126.296 63.3068 126.309 63.3482C125.217 61.5246 124.018 59.7682 122.717 58.0891C122.76 57.8286 122.829 57.5724 122.922 57.3248C124.609 52.213 133.595 50.9835 133.595 50.9835C146.75 51.9598 153.67 57.8681 157.162 65.6278C159.555 73.2507 158.987 81.3728 158.43 89.3364C158.271 91.6057 158.114 93.8621 158.026 96.0906C158.012 96.4644 157.995 96.8555 157.977 97.2603C157.789 101.573 157.531 107.446 160.549 110.67C163.529 116.348 170.927 114.075 173.199 113.377L173.347 113.332C174.023 113.139 175.778 113.019 178.082 112.945C178.487 112.935 178.908 112.927 179.343 112.92L179.264 113.236L179.207 113.461L179.114 113.824C176.553 123.74 172.362 133.002 166.843 141.305C166.572 141.713 166.298 142.119 166.02 142.522Z" fill="#00C66C"/>
<path d="M84.774 51.9147C84.774 51.9147 84.7751 51.9178 84.7757 51.921C84.7771 51.9277 84.7794 51.9389 84.7827 51.9546C84.7893 51.9863 84.8001 52.0362 84.8151 52.1028C84.8451 52.2361 84.8919 52.437 84.9587 52.6957C85.0924 53.2136 85.3047 53.9622 85.6135 54.8667C86.2325 56.6798 87.2334 59.0976 88.76 61.532C91.8088 66.3938 96.8762 71.2237 105.168 71.6281C109.899 71.8589 113.35 73.6093 115.4 76.2272C117.445 78.8372 117.973 82.1566 117.146 85.2541C115.469 91.5346 108.41 96.6498 97.4956 94.6028L97.9842 91.9981C107.852 93.8488 113.343 89.2225 114.585 84.5703C115.218 82.2015 114.799 79.7566 113.314 77.861C111.835 75.9734 109.175 74.4763 105.039 74.2745C95.5945 73.8138 89.8471 68.2528 86.5154 62.94C84.8518 60.2871 83.7707 57.6712 83.1055 55.7229C82.8851 55.0773 82.7106 54.5023 82.574 54.0209C74.6684 57.619 67.0319 62.4147 61.9956 69.3234C57.7684 75.1221 56.8676 82.1371 57.0799 89.4363L57.1042 90.1432C57.3186 95.7366 59.4246 98.8631 62.4235 100.442C65.5367 102.081 69.9188 102.222 74.9581 101.101C79.6807 100.05 83.8355 99.4438 86.9589 96.3454L88.8248 98.2263C85.027 101.994 79.9134 102.713 75.5335 103.687C70.2326 104.867 65.1093 104.851 61.1886 102.787C57.1538 100.662 54.6974 96.5383 54.4561 90.2457L54.4312 89.5185C54.2117 82.0012 55.1117 74.2674 59.8541 67.762C65.6053 59.8728 74.3796 54.6891 82.9445 50.9548L84.4579 50.2948L84.774 51.9147Z" fill="black"/>
<path d="M103.153 101.828V104.478H101.375V101.828H103.153Z" fill="black"/>
<path d="M85.7143 37.8027C92.3744 37.785 98.9702 39.1016 105.113 41.6769C106.169 42.0935 107.193 42.5763 108.167 43.0803C108.642 43.3225 109.111 43.5808 109.572 43.8439C110.041 44.0857 110.497 44.3514 110.939 44.6411C114.886 46.971 118.41 49.9551 121.36 53.4665L119.331 55.1709C116.569 51.8828 113.268 49.0897 109.571 46.9106L109.542 46.8938L109.513 46.8752C109.129 46.6216 108.73 46.3887 108.319 46.1782L108.292 46.1643L108.265 46.1498C107.824 45.8978 107.391 45.6587 106.963 45.4401L106.956 45.4372C106.03 44.9581 105.082 44.5119 104.121 44.134L104.108 44.1288L104.094 44.123C98.2749 41.6828 92.0266 40.4347 85.7178 40.4519C77.1797 40.4519 71.5349 42.3016 67.8257 44.9317C64.132 47.5509 62.2245 51.0358 61.3178 54.5728C60.4054 58.1327 60.5137 61.73 60.8651 64.4687C61.04 65.8316 61.2728 66.966 61.4608 67.7553C61.5548 68.1496 61.6374 68.4566 61.6953 68.662C61.7242 68.7645 61.7474 68.8414 61.7625 68.8912C61.7699 68.9159 61.7753 68.9341 61.7787 68.9451C61.7804 68.9505 61.7816 68.9547 61.7822 68.9566C61.7822 68.9566 61.7823 68.9567 60.5206 69.3613C59.3189 69.7467 59.2615 69.7642 59.2586 69.7643C59.258 69.7625 59.2565 69.7577 59.2557 69.755C59.254 69.7496 59.2515 69.7425 59.2487 69.7336C59.2431 69.7155 59.2353 69.69 59.2256 69.6577C59.206 69.5931 59.1786 69.5004 59.1451 69.3816C59.0781 69.1441 58.9864 68.8014 58.8834 68.369C58.6776 67.5049 58.4256 66.277 58.2367 64.8056C57.8607 61.8754 57.7259 57.9138 58.7508 53.9152C59.7816 49.8937 61.9918 45.8197 66.2927 42.77C70.5775 39.7316 76.8102 37.8032 85.7143 37.8027Z" fill="black"/>
<path d="M127.846 60.4006C128.909 60.226 130.159 60.337 131.31 61.1625C132.433 61.9679 133.283 63.3274 133.845 65.2822L133.962 65.7043C135.138 70.18 135.106 78.2835 132.601 92.5439L132.587 92.6244L132.563 92.7031C132.562 92.7055 132.56 92.712 132.559 92.717L132.489 92.9486C132.44 93.1124 132.368 93.3557 132.277 93.6705C132.093 94.3004 131.833 95.217 131.523 96.3579C130.903 98.64 130.089 101.816 129.312 105.392C128.444 109.412 127.625 113.916 127.177 118.206C126.726 122.517 126.663 126.52 127.255 129.579L124.653 130.082C123.987 126.639 124.081 122.329 124.541 117.931C125.002 113.511 125.843 108.907 126.722 104.834C127.511 101.202 128.337 97.9776 128.965 95.6632C129.279 94.5056 129.545 93.574 129.732 92.9306C129.825 92.609 129.9 92.3595 129.95 92.1896C129.974 92.1104 129.992 92.0481 130.005 92.0043C132.572 77.3548 132.403 69.7607 131.303 66.0319L131.3 66.0221C130.835 64.3986 130.237 63.6536 129.766 63.3155C129.32 62.9962 128.828 62.9249 128.276 63.0157C127.697 63.1108 127.116 63.3789 126.649 63.6583C126.422 63.7935 126.239 63.9217 126.114 64.0137C126.053 64.0595 126.006 64.0958 125.978 64.1185C125.964 64.1299 125.954 64.1376 125.949 64.1417C125.945 64.1359 125.883 64.0648 125.088 63.1349C124.24 62.1432 124.228 62.127 124.228 62.127C124.23 62.1253 124.236 62.1205 124.239 62.1183C124.244 62.1139 124.25 62.108 124.258 62.1015C124.274 62.0885 124.295 62.0713 124.321 62.0506C124.373 62.0088 124.446 61.9517 124.537 61.8844C124.718 61.7504 124.975 61.5717 125.289 61.3836C125.904 61.0161 126.81 60.5708 127.846 60.4006Z" fill="black"/>
<path fill-rule="evenodd" clip-rule="evenodd" d="M130.464 46.1749C142.511 45.2493 154.358 53.1977 157.991 64.6731L158.139 65.1537C159.63 70.1223 159.926 75.2466 159.808 80.3074C159.747 82.9203 159.575 85.5346 159.394 88.108L159.334 88.9756C159.173 91.2589 159.014 93.5059 158.926 95.724C158.918 95.9542 158.908 96.1886 158.898 96.4267L158.876 96.9354C158.789 98.8964 158.694 101.072 158.885 103.186C159.117 105.76 159.757 107.96 161.118 109.405C161.193 109.481 161.262 109.551 161.33 109.616L161.547 109.812L161.552 109.816C162.677 110.785 164.199 111.354 166.161 111.622C168.129 111.891 170.434 111.844 173.034 111.667L174.185 111.584C175.351 111.496 176.558 111.395 177.796 111.281C178.445 111.222 179.104 111.164 179.771 111.109C179.634 111.715 179.492 112.319 179.343 112.92L179.264 113.236L179.207 113.461L179.114 113.824C178.754 113.855 178.396 113.887 178.038 113.919C176.369 114.073 174.754 114.204 173.218 114.311C170.578 114.49 168.049 114.555 165.803 114.248C163.549 113.94 161.472 113.245 159.822 111.824C159.593 111.627 159.397 111.435 159.206 111.24L159.199 111.233L159.191 111.224C157.214 109.127 156.495 106.193 156.245 103.424C156.037 101.116 156.143 98.7272 156.23 96.7671L156.233 96.6821C156.25 96.3119 156.265 95.9573 156.278 95.6221C156.38 93.074 156.571 90.4866 156.751 87.9233C156.837 86.698 156.92 85.4756 156.989 84.2563C157.066 82.9157 157.127 81.5787 157.158 80.246C157.277 75.154 156.958 70.1927 155.464 65.4727C152.206 55.1803 141.497 47.9849 130.666 48.8171C126.953 49.1053 123.472 51.1161 121.921 54.342C122.199 54.6883 122.47 55.0386 122.735 55.3933L123.157 55.9688C124.234 57.47 125.187 59.0571 126.006 60.7109C126.208 60.5997 126.431 60.4874 126.672 60.3825C127.112 60.1901 127.612 60.0225 128.147 59.9316C129.202 59.7527 130.443 59.8678 131.579 60.7086C132.682 61.5253 133.511 62.8983 134.057 64.8665L131.504 65.5757C131.047 63.9292 130.459 63.1764 130.002 62.8385C129.578 62.5243 129.114 62.4555 128.591 62.5444C128.077 62.6315 127.558 62.8663 127.121 63.1239C127.191 63.298 127.257 63.4737 127.317 63.6507C130.63 72.4023 130.031 82.3581 124.03 92.0089L124.025 92.0176C121.771 95.5771 118.724 98.567 115.123 100.753C111.87 102.728 108.244 103.998 104.478 104.488V124.469C104.478 124.54 104.496 124.609 104.531 124.669L104.57 124.725C104.604 124.767 104.647 124.8 104.694 124.824C104.708 124.832 104.723 124.838 104.738 124.844L104.806 124.862L110.788 125.912C116.431 126.836 121.542 127.835 126.393 128.956C137.402 131.488 147.026 134.573 158.217 138.356L163.117 140.02L166.844 141.305C166.572 141.713 166.298 142.119 166.02 142.522C165.873 142.737 165.724 142.951 165.575 143.164L165.287 143.572L162.263 142.528C148.887 137.971 138.233 134.398 125.8 131.538C121.006 130.431 115.945 129.441 110.345 128.525L110.33 128.523L104.351 127.472C103.64 127.349 102.997 126.977 102.536 126.424C102.074 125.871 101.823 125.171 101.828 124.452V102.081L103.041 101.978C106.832 101.656 110.497 100.462 113.748 98.4884C117 96.5144 119.751 93.8143 121.785 90.6004C127.353 81.6407 127.853 72.5516 124.839 64.5892L124.83 64.5666L124.823 64.544L124.801 64.4814L124.769 64.3912L124.25 63.2096C123.369 61.2037 122.281 59.2949 121.005 57.5146C120.487 56.7949 119.943 56.0922 119.372 55.4084L118.876 54.815L119.148 54.0924C120.957 49.2896 125.719 46.5425 130.464 46.1749Z" fill="black"/>
<path d="M67.736 123.376C67.3017 132.048 77.3848 142.705 92.602 139.911C95.7965 139.327 99.1023 138.46 101.625 136.547C104.06 134.701 105.894 131.78 105.978 126.752V126.72H108.628V126.762L108.628 126.773C108.537 132.561 106.365 136.278 103.226 138.658C100.172 140.974 96.3306 141.924 93.0796 142.518C76.527 145.556 64.5528 133.956 65.0896 123.243L67.736 123.376Z" fill="black"/>
<path d="M68.6204 65.3257L71.2604 65.097C71.2606 65.0993 71.2613 65.1064 71.2615 65.1092C71.262 65.115 71.2627 65.1223 71.2633 65.1306C71.2645 65.1474 71.2658 65.1693 71.2673 65.196C71.2704 65.2495 71.2737 65.3228 71.276 65.4149C71.2807 65.5993 71.2815 65.8594 71.2673 66.1878C71.2391 66.8445 71.1521 67.7751 70.9205 68.9198C70.4647 71.1732 69.4501 74.2472 67.2391 77.6884C67.3512 77.7647 67.5018 77.8486 67.6924 77.9362C68.0966 78.1218 68.583 78.2816 69.0639 78.4219C69.4728 78.5412 70.0234 78.6836 70.3028 78.7809L69.4321 81.2842C69.2283 81.2133 68.9088 81.1371 68.3217 80.9658C67.8066 80.8155 67.1705 80.613 66.586 80.3446C66.0434 80.0954 65.3427 79.7011 64.9013 79.0709C64.6601 78.7264 64.481 78.2889 64.4793 77.7776C64.4776 77.2715 64.6498 76.8137 64.903 76.4228C66.9953 73.2147 67.9197 70.3874 68.3228 68.3941C68.5247 67.3962 68.597 66.604 68.6198 66.0737C68.6312 65.8088 68.6306 65.6094 68.6274 65.4826C68.6257 65.4192 68.6236 65.3738 68.6221 65.3477L68.6204 65.3257Z" fill="black"/>
<path d="M63.5183 60.1793C64.2785 60.1718 65.0263 60.3857 65.685 60.7995C66.2972 61.2093 66.8166 61.7655 67.204 62.4254C67.5909 63.0853 67.8358 63.8325 67.92 64.6099C68.1672 66.5504 67.7962 68.5242 66.8685 70.2017C65.5029 72.7569 63.227 74.4042 60.9738 74.4042C60.2141 74.4141 59.4657 74.2017 58.8071 73.7889C58.1953 73.3786 57.6764 72.8224 57.2895 72.1625C56.9026 71.5026 56.6572 70.7564 56.5721 69.9784C56.3249 68.0369 56.6959 66.0612 57.6236 64.3817C58.9892 61.8315 61.2651 60.1793 63.5183 60.1793ZM63.5183 58.6908C60.8873 58.6908 58.097 60.5166 56.4492 63.6524C54.1733 67.9491 54.9243 73.0794 58.1288 75.064C58.9937 75.6073 59.9756 75.8902 60.9738 75.8827C63.6048 75.8827 66.3951 74.0519 68.0474 70.9211C70.3234 66.6293 69.5678 61.4941 66.3632 59.5094C65.4975 58.9696 64.5156 58.6843 63.5183 58.6908Z" fill="white"/>
<path fill-rule="evenodd" clip-rule="evenodd" d="M63.5183 60.1793C64.2785 60.1718 65.0263 60.3857 65.685 60.7995C66.2972 61.2093 66.8166 61.7655 67.204 62.4254C67.5909 63.0853 67.8358 63.8325 67.92 64.6099C68.1672 66.5504 67.7962 68.5242 66.8685 70.2017C65.5029 72.7569 63.227 74.4042 60.9738 74.4042C60.2141 74.4141 59.4657 74.2017 58.8071 73.7889C58.1953 73.3786 57.6764 72.8224 57.2895 72.1625C56.9026 71.5026 56.6572 70.7564 56.5721 69.9784C56.3249 68.0369 56.6959 66.0612 57.6236 64.3817C58.9892 61.8315 61.2651 60.1793 63.5183 60.1793Z" fill="white"/>
<path d="M68.0467 71.53C70.3219 67.2332 69.5699 62.1154 66.367 60.0992C63.1646 58.0831 58.7235 59.932 56.4484 64.2288C54.1732 68.5257 54.9253 73.6434 58.1277 75.6596C61.3305 77.6757 65.7711 75.8269 68.0467 71.53Z" fill="#3FBDF1" fill-opacity="0.2"/>
<path d="M87.5643 76.008C89.9275 72.0041 89.1343 67.2424 85.793 65.3724C82.4517 63.5023 77.8274 65.2319 75.4646 69.2358C73.1019 73.2397 73.8952 78.0014 77.2365 79.8715C80.5778 81.7415 85.2016 80.0119 87.5643 76.008Z" fill="#3FBDF1" fill-opacity="0.2"/>
<path d="M70.8558 65.6731C72.0964 65.5839 73.4948 66.2211 75.0601 67.851L73.1484 69.6863C71.8382 68.3221 71.1611 68.3082 71.0457 68.3165C70.9771 68.3215 70.9484 68.3411 70.9438 68.3443C70.9394 68.3473 70.9417 68.3464 70.9513 68.3368C70.9563 68.3318 70.964 68.324 70.9739 68.3125C70.979 68.3066 70.9848 68.2997 70.9913 68.2916C70.9945 68.2876 70.9975 68.2829 71.0011 68.2783C71.0029 68.276 71.005 68.2738 71.0069 68.2713C71.0059 68.2726 71.0079 68.2701 71.0069 68.2713L71.0115 68.2656C71.012 68.2644 70.997 68.2517 69.9544 67.4666C68.896 66.6696 68.8965 66.6681 68.8973 66.6671C68.8983 66.6657 68.9014 66.6627 68.9025 66.6613C68.9047 66.6584 68.907 66.6552 68.9094 66.6521C68.9143 66.6458 68.9193 66.6389 68.925 66.6318C68.9365 66.6175 68.9499 66.6013 68.965 66.5837C68.9951 66.5488 69.033 66.5075 69.0785 66.4622C69.169 66.3718 69.2932 66.2624 69.453 66.1536C69.7773 65.9329 70.247 65.7169 70.8558 65.6731Z" fill="black"/>
<path d="M83.6492 72.4283C84.4162 71.3292 84.3475 69.8611 83.4962 69.1495C82.6445 68.4384 81.3327 68.7527 80.5657 69.8518C79.7987 70.9515 79.8675 72.4191 80.7192 73.1307C81.5705 73.8423 82.8827 73.528 83.6492 72.4283Z" fill="#353642"/>
<path d="M67.6429 67.8206C68.4094 66.8589 68.3411 65.5743 67.4894 64.9516C66.6377 64.3294 65.3261 64.6045 64.5591 65.5662C63.7922 66.5284 63.8609 67.8125 64.7126 68.4352C65.5638 69.0579 66.876 68.7828 67.6429 67.8206Z" fill="#353642"/>
<path d="M66.3455 88.6014C66.3494 88.6076 66.3578 88.6199 66.3698 88.6378C66.3945 88.675 66.4357 88.7354 66.4937 88.8133C66.6102 88.9698 66.7906 89.1936 67.0327 89.4414C67.5221 89.9425 68.23 90.5074 69.1394 90.8465C70.027 91.1774 71.1582 91.3139 72.5702 90.8986C74.0033 90.477 75.7918 89.4667 77.9208 87.385L79.7734 89.2793C77.4316 91.5691 75.28 92.8636 73.3182 93.4407C71.3355 94.024 69.6171 93.8528 68.2137 93.3296C66.8321 92.8144 65.8072 91.9789 65.1372 91.2929C64.7996 90.9472 64.5435 90.6307 64.3684 90.3955C64.2806 90.2776 64.2124 90.1793 64.164 90.1066C64.1399 90.0703 64.1206 90.0403 64.1061 90.0174C64.0989 90.006 64.0924 89.9963 64.0876 89.9885C64.0852 89.9847 64.0836 89.981 64.0818 89.9781C64.0809 89.9766 64.0826 89.9793 64.0818 89.9781L64.0778 89.9723L66.3455 88.6014Z" fill="black"/>
<path fill-rule="evenodd" clip-rule="evenodd" d="M9.11045 130.735C11.1912 130.362 13.2713 129.995 15.3505 129.635C32.948 126.636 50.4606 124.315 68.1712 124.241C69.35 124.24 70.4887 123.813 71.3774 123.039C72.2678 122.263 72.8476 121.191 73.01 120.022L73.0106 120.014L73.3394 117.546L75.4172 102.144L72.7912 101.79L70.7128 117.194L70.3851 119.657C70.315 120.161 70.0771 120.624 69.7112 120.973L69.6365 121.041C69.229 121.396 68.7065 121.592 68.1666 121.592H68.1602C50.2337 121.666 32.5494 124.017 14.8984 127.024C12.5832 127.426 10.2666 127.835 7.9491 128.251C8.32396 129.086 8.71127 129.914 9.11045 130.735Z" fill="black"/>
<path d="M179.253 91C179.253 42.2593 139.741 2.74717 91 2.74717C42.2593 2.74717 2.74717 42.2593 2.74717 91C2.74717 139.741 42.2593 179.253 91 179.253V182C64.8476 182 41.2718 170.968 24.6727 153.304C24.4951 153.115 24.3183 152.925 24.1424 152.735C24.1209 152.711 24.0995 152.688 24.0781 152.665C24.0128 152.594 23.9475 152.523 23.8824 152.452C23.8654 152.434 23.8484 152.415 23.8315 152.397C23.6441 152.192 23.4577 151.986 23.2722 151.779C23.2581 151.763 23.2441 151.748 23.2299 151.732C23.1079 151.596 22.9862 151.459 22.8649 151.322C22.7118 151.15 22.5593 150.976 22.4076 150.802C22.2878 150.665 22.1684 150.528 22.0495 150.39C20.773 148.909 19.5432 147.387 18.3628 145.825C17.8816 145.189 17.4088 144.546 16.9441 143.896C16.8901 143.821 16.8363 143.745 16.7826 143.67C16.2296 142.892 15.6884 142.105 15.1595 141.309C15.0922 141.208 15.0252 141.107 14.9583 141.005C12.7962 137.724 10.8408 134.294 9.11048 130.735C8.71131 129.914 8.3241 129.086 7.94913 128.251C4.65519 120.919 2.3037 113.072 1.04904 104.863C0.880584 103.761 0.732054 102.652 0.603544 101.538C0.491548 100.566 0.394727 99.5901 0.31355 98.6095C0.243014 97.7575 0.184378 96.9022 0.137493 96.0436C0.079638 94.9842 0.0398021 93.92 0.0184441 92.8513C0.00614148 92.2357 0 91.6186 0 91C0 40.7421 40.7421 0 91 0C141.258 0 182 40.7421 182 91C182 94.376 181.816 97.709 181.458 100.99C181.402 101.497 181.343 102.004 181.279 102.509C181.214 103.029 181.144 103.547 181.069 104.064C180.727 106.444 180.293 108.793 179.771 111.109C179.634 111.715 179.491 112.319 179.343 112.92C179.268 113.222 179.192 113.523 179.114 113.824C176.553 123.741 172.362 133.002 166.843 141.305C166.572 141.713 166.298 142.119 166.02 142.522C165.873 142.737 165.724 142.951 165.575 143.164C165.479 143.3 165.383 143.436 165.287 143.572C165.086 143.855 164.884 144.137 164.68 144.418C164.567 144.573 164.453 144.729 164.339 144.883C164.128 145.171 163.915 145.457 163.7 145.742C160.624 149.82 157.213 153.632 153.507 157.136C144.023 166.103 132.611 173.052 119.958 177.296C119.462 177.462 118.965 177.624 118.466 177.782C117.969 177.939 117.469 178.092 116.968 178.241C115.007 178.824 113.019 179.342 111.005 179.794C109.809 180.062 108.604 180.307 107.39 180.528C102.073 181.495 96.5957 182 91 182V179.253C139.741 179.253 179.253 139.741 179.253 91Z" fill="black"/>
<path d="M55.3754 62.1784C58.0282 57.2151 63.5951 54.525 67.9875 57.2395C72.2801 59.8921 72.9553 66.2505 70.305 71.2093C67.6522 76.1723 62.0856 78.862 57.6928 76.1477C53.4011 73.4951 52.725 67.1368 55.3754 62.1784ZM66.59 59.5014C64.0324 57.9208 59.9811 59.2014 57.7201 63.4319C55.4566 67.6665 56.4323 72.2429 59.0904 73.8858C61.6484 75.4665 65.6988 74.1856 67.9598 69.9559L68.163 69.5576C70.161 65.4372 69.1652 61.0929 66.59 59.5014Z" fill="black"/>
<path d="M73.3145 68.4618C76.2146 63.6045 82.1188 61.1728 86.6695 63.7133C91.1917 66.2379 92.0017 72.3163 89.2556 77.1458L89.1219 77.3751C86.2217 82.232 80.3175 84.6635 75.7669 82.1236C71.2445 79.5989 70.4346 73.5201 73.1808 68.691L73.3145 68.4618ZM85.3779 66.0273C82.5004 64.4209 78.1368 65.745 75.7044 69.6335L75.5897 69.8205C73.1863 73.8456 74.1788 78.2019 77.0585 79.8095C79.9818 81.4411 84.4388 80.0487 86.8466 76.0163C89.2499 71.9909 88.2575 67.6351 85.3779 66.0273Z" fill="black"/>
</svg>
