<svg width="178" height="178" viewBox="0 0 178 178" fill="none" xmlns="http://www.w3.org/2000/svg">
<path d="M78.2717 84.7591C83.8569 84.7591 88.3841 80.2319 88.3841 74.6466C88.3841 69.0619 83.8569 64.5342 78.2717 64.5342C72.6869 64.5342 68.1592 69.0619 68.1592 74.6466C68.1592 80.2319 72.6869 84.7591 78.2717 84.7591Z" fill="#E6F7FF"/>
<path d="M104.473 83.8599C110.058 83.8599 114.585 79.3322 114.585 73.7475C114.585 68.1622 110.058 63.635 104.473 63.635C98.8881 63.635 94.3604 68.1622 94.3604 73.7475C94.3604 79.3322 98.8881 83.8599 104.473 83.8599Z" fill="#E6F7FF"/>
<path fill-rule="evenodd" clip-rule="evenodd" d="M161.061 141.244C154.029 132.733 145.183 125.964 134.816 121.971C134.796 121.969 134.779 121.959 134.767 121.944C134.767 121.944 125.405 116.817 120.615 118.449C120.046 118.369 119.477 118.3 118.908 118.251C118.634 118.227 118.359 118.208 118.085 118.194C118.158 119.591 118.062 120.993 117.802 122.368C117.851 121.992 117.894 121.617 117.894 121.22C117.894 121.22 118.03 118.994 115.173 118.123C113.711 117.677 113.476 113.085 113.248 108.647C113.031 104.411 112.822 100.315 111.559 100.097C111.358 100.073 111.153 100.092 110.96 100.153C110.859 100.185 110.762 100.228 110.671 100.281C110.588 100.33 110.51 100.386 110.438 100.451C113.769 95.3343 115.151 89.0481 115.505 83.0612C115.739 79.001 115.859 74.6849 114.357 70.8369C114.105 70.1778 113.782 69.5482 113.393 68.9592C113.321 68.8318 113.251 68.7044 113.181 68.5829C113.134 68.502 113.087 68.4237 113.04 68.3496C113.004 68.2891 112.967 68.2296 112.928 68.1714C112.882 68.1039 112.834 68.0381 112.784 67.9741C111.854 66.6456 110.618 65.5613 109.179 64.8135C107.741 64.0658 106.143 63.6765 104.522 63.6798C103.836 63.6782 103.152 63.7496 102.481 63.8921H102.432C100.849 64.0587 99.2601 64.1441 97.6693 64.1479C91.0729 63.9629 85.1132 59.4074 84.4819 52.5333C84.6786 54.8242 82.7569 57.3015 81.3286 59.1431C81.1755 59.3404 81.028 59.5304 80.8895 59.7122C79.6586 61.3792 78.1918 62.8591 76.5356 64.1043C75.9445 64.5232 75.2311 64.8647 74.5094 65.2101C73.3371 65.7711 72.1438 66.3421 71.4193 67.272C71.3655 67.3204 71.3182 67.3755 71.2777 67.4352C69.3968 69.2297 68.2876 71.6861 68.1859 74.2837C68.0846 76.8815 68.9984 79.4168 70.7336 81.3522C71.4847 86.8438 72.8889 91.2795 76.6007 97.0488C77.4526 98.3687 78.4101 99.6178 79.4635 100.782C80.9767 102.49 82.6949 104.004 84.5798 105.289C81.9945 104.652 80.329 104.511 80.6121 105.637C80.712 106.029 80.851 106.54 81.013 107.135C82.1043 111.144 84.237 118.977 82.4407 120.001C80.378 121.176 79.3656 119.957 79.3656 119.957C79.104 122.145 79.3438 124.364 80.0682 126.446C80.7927 128.527 81.982 130.416 83.5456 131.969C83.8256 132.249 84.098 132.531 84.3627 132.802C84.5402 132.984 84.714 133.161 84.8845 133.33C83.752 132.469 82.7413 131.458 81.8801 130.325C81.7165 130.139 81.5738 129.934 81.4557 129.716C80.5784 128.322 79.8763 126.825 79.3656 125.258C79.3016 125.065 79.2464 124.869 79.2025 124.67C79.1589 124.458 79.0881 124.251 79.0391 124.061C78.9902 124.039 78.9902 124.012 78.9902 123.968C78.7702 123.186 78.3631 122.469 77.8037 121.88C77.2442 121.291 76.5492 120.848 75.7789 120.588C71.7188 119.2 65.6612 122.412 65.0296 122.765C65.014 122.771 64.9964 122.771 64.9806 122.765C58.9068 124.148 52.8706 125.813 46.9327 127.664C59.1624 112.457 58.1067 84.0625 57.6603 77.4715C57.6821 76.1327 57.6603 74.9135 57.6331 73.9066V72.1431V70.222C57.4207 59.0045 61.4811 46.4484 69.9064 38.6817C70.1671 38.4172 70.4414 38.1668 70.7282 37.9306C71.9532 36.8829 73.264 35.9396 74.647 35.1112C84.3621 29.3857 97.8545 29.9026 107.521 35.4868C112.667 38.5385 116.955 42.8453 119.984 48.005C122.79 52.7711 124.753 57.9858 125.786 63.4186C126.947 69.1302 128.4 74.778 130.14 80.3398C130.463 81.3451 130.755 82.3918 131.051 83.4519C132.206 87.5854 133.418 91.9236 136.671 94.8174C143.214 100.676 152.986 100.076 161.601 99.5481C163.271 99.4458 164.897 99.3461 166.448 99.2966C170.083 99.184 173.728 99.5177 177.295 100.257C177.259 100.542 177.222 100.826 177.183 101.11C177.153 101.333 177.122 101.555 177.09 101.777C175.066 115.858 169.745 128.874 161.936 140.017C161.647 140.429 161.356 140.837 161.061 141.244ZM98.9592 139.104C98.1591 138.957 97.359 138.767 96.5862 138.56C97.6421 138.511 98.8612 138.419 100.249 138.244C104.489 137.744 108.13 136.475 111.02 134.434C108.059 136.989 104.392 138.585 100.505 139.012C100.229 139.035 99.954 139.06 99.6794 139.078C99.4385 139.093 99.1981 139.104 98.9592 139.104ZM97.7237 108.614C101.656 108.084 105.297 106.25 108.065 103.406C106.258 105.915 103.863 108.897 99.9551 108.827C99.2074 108.81 98.4617 108.739 97.7237 108.614Z" fill="#FFC52A"/>
<path fill-rule="evenodd" clip-rule="evenodd" d="M160.102 142.539C160.313 142.26 160.521 141.98 160.728 141.699C154.227 134.147 145.712 127.392 134.696 121.911C134.696 121.911 118.972 113.322 117.824 121.911C116.675 130.499 108.152 141.118 98.9322 139.159C89.7123 137.199 81.287 133.384 79.1753 124.681C77.0636 115.978 64.9537 122.803 64.9537 122.803L22.1526 136.72C22.1526 136.72 23.3493 142.238 24.1304 149.934C40.3646 167.21 63.4226 178 89 178C94.4727 178 99.83 177.506 105.03 176.56C106.217 176.344 107.395 176.105 108.565 175.843C110.535 175.401 112.48 174.894 114.397 174.324C114.888 174.178 115.376 174.028 115.863 173.874C116.351 173.72 116.837 173.562 117.321 173.399C134.531 167.626 149.394 156.737 160.102 142.539Z" fill="#2E2E2E"/>
<path fill-rule="evenodd" clip-rule="evenodd" d="M58.9067 79.1335L58.9664 78.9385L59.0188 78.77L56.1385 77.8601C56.0216 78.2301 55.9533 78.4793 55.8483 78.7796L55.8418 78.7976C54.6423 82.3711 51.7401 86.9838 48.4317 91.6198C46.3673 94.5125 44.2296 97.302 42.3166 99.7983C41.1593 101.308 40.0843 102.711 39.1574 103.965C36.6986 107.311 33.9695 111.165 31.2494 115.011L30.9054 115.497C28.2977 119.185 25.7064 122.85 23.3682 126.053C22.7151 126.953 22.0554 127.872 21.3873 128.803C19.2453 131.787 17.0141 134.894 14.6295 137.906L14.8263 138.204C15.3435 138.982 15.8726 139.752 16.4137 140.512C19.0851 137.191 21.5549 133.75 23.8642 130.531C24.5264 129.609 25.1756 128.704 25.8126 127.826C28.2694 124.46 30.9977 120.598 33.7158 116.755C36.4373 112.906 39.15 109.077 41.589 105.757C42.4514 104.591 43.4974 103.225 44.6406 101.733C46.5861 99.1931 48.8119 96.2872 50.8902 93.3748C54.1947 88.7447 57.3468 83.8048 58.7051 79.7586C58.7377 79.6648 58.77 79.5677 58.8011 79.471C58.8382 79.3558 58.8739 79.2411 58.9067 79.1335Z" fill="black"/>
<path fill-rule="evenodd" clip-rule="evenodd" d="M64.7086 34.0194C61.8407 33.7717 58.3304 34.5366 54.3921 36.2835C49.8519 38.2915 46.8077 40.9197 44.7404 44.0255C42.6882 47.1089 41.6639 50.5666 41.0059 54.1231C40.6158 56.2326 40.3381 58.5014 40.0606 60.7677C39.8817 62.2289 39.7031 63.6892 39.4944 65.1047C38.9469 68.8184 38.1661 72.5123 36.6062 76.0964C35.9581 77.585 34.2847 79.3261 31.5227 81.3578C28.8091 83.354 25.2547 85.4836 21.1238 87.8124C18.9926 89.0139 16.7116 90.2661 14.3281 91.5745C9.99205 93.9548 5.31738 96.5211 0.590332 99.3061C0.716032 100.396 0.861266 101.481 1.02603 102.558C6.04893 99.5663 11.0398 96.8264 15.697 94.2698C18.1034 92.9487 20.4206 91.6765 22.607 90.4439C26.7517 88.1074 30.4421 85.9028 33.3128 83.791C36.1354 81.7148 38.3869 79.5741 39.3758 77.3019C41.0895 73.3643 41.9184 69.3703 42.4823 65.5454C42.7168 63.9549 42.9016 62.4365 43.0808 60.963C43.3444 58.7975 43.5961 56.7294 43.9766 54.6728C44.5997 51.3035 45.5246 48.2988 47.255 45.6993C48.9698 43.123 51.5426 40.8465 55.6171 39.0448C59.2981 37.4121 62.2755 36.8411 64.4487 37.0288C66.5694 37.212 67.8284 38.0913 68.4606 39.3684L71.1677 38.0286C69.9653 35.5994 67.6291 34.2716 64.7086 34.0194Z" fill="black"/>
<path fill-rule="evenodd" clip-rule="evenodd" d="M16.5717 140.734C37.491 131.484 60.8939 123.904 84.3021 120.762L83.9 117.768C59.9432 120.985 36.0656 128.766 14.8263 138.204C15.3939 139.057 15.9757 139.901 16.5717 140.734Z" fill="black"/>
<path fill-rule="evenodd" clip-rule="evenodd" d="M107.708 33.9349C97.6554 28.3595 83.8582 27.9002 73.7875 33.8355L73.7784 33.8409C72.3229 34.7128 70.9414 35.7065 69.6515 36.8099C60.232 44.8954 55.8124 58.3821 56.0307 70.2749V70.2903L56.0312 70.3067L56.0318 70.3125L56.0329 70.337L56.036 70.437L56.0488 70.835C56.059 71.1852 56.0728 71.7019 56.0859 72.3637C56.1119 73.6878 56.1357 75.5925 56.1252 77.9079C56.1046 82.5412 55.9477 88.807 55.4061 95.352C54.8637 101.908 53.9382 108.69 52.3973 114.379C50.832 120.156 48.7211 124.449 46.0531 126.434L47.8559 128.857C51.4064 126.216 53.7276 121.02 55.313 115.168C56.9227 109.227 57.8672 102.239 58.4167 95.6013C58.9668 88.9535 59.125 82.6042 59.146 77.9212C59.1565 75.5784 59.1324 73.6491 59.1061 72.3042C59.0928 71.6317 59.0789 71.1048 59.0681 70.7453L59.0608 70.4974L59.0548 70.3339L59.0511 70.2271L59.0503 70.2101C58.8465 58.9638 63.0582 46.4515 71.6177 39.1033C72.7756 38.1127 74.0142 37.2214 75.3213 36.4379C84.3771 31.1007 97.0269 31.4672 106.237 36.5733L106.672 36.8201C111.593 39.7409 115.694 43.8646 118.592 48.7992C121.318 53.4082 123.232 58.4518 124.249 63.7091L124.25 63.7154L124.252 63.7218C125.42 69.4852 126.888 75.1882 128.646 80.7993C129.023 81.9909 129.358 83.2412 129.727 84.566C130.091 85.8738 130.485 87.2355 130.965 88.5679C131.924 91.227 133.269 93.8893 135.577 95.9463C139.856 99.7756 145.321 101.014 150.743 101.305C154.39 101.502 158.213 101.268 161.732 101.053C163.376 100.953 164.953 100.856 166.415 100.81L167.028 100.795C170.401 100.736 173.78 101.075 177.09 101.777C177.122 101.555 177.153 101.333 177.183 101.11C177.222 100.826 177.259 100.541 177.295 100.256C177.357 99.762 177.415 99.2665 177.47 98.7698C174.018 98.0565 170.495 97.7126 166.973 97.7741L166.318 97.7906C164.676 97.8429 163.002 97.946 161.308 98.0502C157.886 98.2608 154.384 98.4762 150.906 98.2891C145.779 98.0134 141.125 96.8576 137.589 93.6931L137.424 93.5434C135.746 91.9812 134.661 89.9115 133.807 87.543C133.367 86.323 132.998 85.0528 132.637 83.7551L132.436 83.0319C132.19 82.1412 131.94 81.2381 131.673 80.3619L131.526 79.8873C129.907 74.7215 128.54 69.4806 127.43 64.1827L127.212 63.1223C126.129 57.5309 124.093 52.1673 121.194 47.2653C118.036 41.8854 113.565 37.3949 108.198 34.2129L108.184 34.2044L107.708 33.9349Z" fill="black"/>
<path d="M84.9276 116.165L84.9361 116.199L87.8642 128.88L84.9207 129.56L81.9926 116.879L77.968 101.14L80.8945 100.392L84.9276 116.165Z" fill="black"/>
<path d="M86.8736 74.6467C86.8736 69.8961 83.0227 66.0448 78.2716 66.0448C73.521 66.0448 69.6697 69.8962 69.6697 74.6467C69.6697 79.3978 73.521 83.2487 78.2716 83.2487C83.0227 83.2487 86.8736 79.3978 86.8736 74.6467ZM89.8942 74.6467C89.8941 81.0661 84.691 86.2693 78.2716 86.2693C71.8528 86.2693 66.6486 81.0662 66.6486 74.6467C66.6486 68.2279 71.8528 63.0237 78.2716 63.0237C84.6911 63.0237 89.8942 68.228 89.8942 74.6467Z" fill="black"/>
<path d="M113.075 73.7476C113.075 68.9965 109.223 65.1456 104.473 65.1456C99.7222 65.1456 95.8708 68.9965 95.8708 73.7476C95.8709 78.4981 99.7222 82.3495 104.473 82.3495C109.223 82.3495 113.075 78.4981 113.075 73.7476ZM116.095 73.7476C116.095 80.1664 110.892 85.3701 104.473 85.3701C98.054 85.3701 92.8497 80.1664 92.8497 73.7476C92.8497 67.3281 98.054 62.1245 104.473 62.1245C110.892 62.1245 116.095 67.3281 116.095 73.7476Z" fill="black"/>
<path d="M89.2631 71.8455C89.9817 71.4441 90.9029 71.1443 91.9839 71.2156C93.0673 71.2871 94.1811 71.7231 95.2957 72.5779L93.4578 74.975C92.7274 74.4148 92.1701 74.2552 91.7851 74.2298C91.3976 74.2042 91.0527 74.3059 90.7359 74.4828C90.4084 74.6657 90.133 74.9184 89.9322 75.1429C89.8349 75.2518 89.7628 75.3455 89.718 75.4071C89.6965 75.4368 89.6814 75.4582 89.6739 75.4693C89.6721 75.4673 89.6208 75.433 88.3898 74.6747C87.1507 73.9113 87.1058 73.8828 87.1046 73.8811C87.106 73.8789 87.1104 73.8716 87.1121 73.8689C87.1155 73.8635 87.1197 73.857 87.1243 73.8498C87.1335 73.8353 87.1452 73.8173 87.1594 73.7961C87.1876 73.7537 87.2258 73.6983 87.2736 73.6324C87.3689 73.5012 87.5048 73.3258 87.6802 73.1296C88.0255 72.7435 88.5552 72.2408 89.2631 71.8455Z" fill="black"/>
<path d="M85.9369 52.3621L85.9661 52.6411C86.6529 58.4698 91.7775 62.4319 97.6774 62.6117C98.6965 62.6439 99.733 62.5667 100.846 62.4682C101.932 62.372 103.116 62.2533 104.304 62.2359C109.467 62.1742 113.755 65.3811 115.639 70.0002L115.727 70.2208C117.337 74.4124 117.208 79.036 116.975 83.078C116.613 89.2528 115.184 95.8067 111.665 101.215C109.86 104.064 107.352 106.401 104.381 107.999C101.411 109.596 98.0793 110.402 94.7073 110.338C86.659 110.274 79.3021 104.047 75.3003 97.8646L75.2961 97.8577C71.4819 91.8945 69.9841 87.2272 69.205 81.5303L72.1974 81.121C72.9204 86.4074 74.2749 90.6551 77.8409 96.2303C81.5872 102.014 88.1527 107.273 94.7461 107.317H94.7552L94.7647 107.318C97.6179 107.372 100.437 106.69 102.95 105.339C105.463 103.987 107.586 102.01 109.113 99.5995L109.118 99.591L109.123 99.583C112.258 94.7735 113.614 88.7934 113.959 82.9026C114.194 78.8358 114.259 74.8235 112.909 71.3088C111.479 67.6244 108.199 65.2111 104.347 65.256C103.299 65.2713 102.253 65.376 101.112 65.4771C99.996 65.5759 98.8016 65.6697 97.5839 65.6312C92.0139 65.4609 86.7459 62.4507 84.2977 57.5135C83.543 58.692 82.6452 59.8072 82.0723 60.5829L82.0654 60.592C80.7419 62.3566 79.174 63.9245 77.4093 65.248L77.403 65.2528L77.3971 65.257C76.4692 65.9386 75.2153 66.4705 74.3845 66.885C73.4209 67.3658 72.8207 67.7677 72.4955 68.234L70.0171 66.5071C70.8186 65.3571 72.0527 64.673 73.0361 64.1823C74.1492 63.6269 74.9538 63.3019 75.6033 62.8264C77.1363 61.6757 78.499 60.3131 79.6491 58.7795C80.4077 57.7531 81.2661 56.7088 81.9633 55.5495C82.6684 54.3772 83 53.405 82.9291 52.6411L85.9369 52.3621Z" fill="black"/>
<path d="M119.412 116.414C120.752 128.399 112.361 139.211 100.594 140.544C88.8143 141.879 78.2702 133.124 76.9073 121.15L79.9083 120.809C81.0927 131.215 90.2185 138.68 100.253 137.543C110.3 136.405 117.572 127.144 116.41 116.75L119.412 116.414Z" fill="black"/>
<path fill-rule="evenodd" clip-rule="evenodd" d="M117.984 116.612C117.308 116.555 116.632 116.506 115.956 116.465L113.839 96.6704L110.836 96.9915L113.227 119.355L114.523 119.414C115.236 119.446 115.949 119.487 116.663 119.539C117.018 119.564 117.373 119.592 117.728 119.622L117.738 119.623C135.25 120.999 149.715 129.796 160.103 142.538C160.313 142.26 160.521 141.98 160.728 141.699C160.839 141.548 160.95 141.396 161.061 141.243C161.356 140.837 161.647 140.429 161.936 140.017C151.146 127.053 136.185 118.045 117.984 116.612Z" fill="black"/>
<path d="M85.2409 90.7859C85.7486 93.5266 88.1356 95.0473 90.3449 94.5778L90.8753 97.0199C87.1052 97.8212 83.4905 95.1898 82.7581 91.2363L85.2409 90.7859Z" fill="black"/>
<path d="M83.3378 78.6099C84.2986 78.6099 85.0772 77.8307 85.0772 76.8705C85.0772 75.9098 84.2986 75.1311 83.3378 75.1311C82.377 75.1311 81.5984 75.9098 81.5984 76.8705C81.5984 77.8307 82.377 78.6099 83.3378 78.6099Z" fill="black"/>
<path d="M101.312 78.0303C102.273 78.0303 103.051 77.2511 103.051 76.2909C103.051 75.3302 102.273 74.5515 101.312 74.5515C100.351 74.5515 99.5724 75.3302 99.5724 76.2909C99.5724 77.2511 100.351 78.0303 101.312 78.0303Z" fill="black"/>
<path d="M175.313 89C175.313 41.3305 136.669 2.68679 89 2.68679C41.3305 2.68679 2.68679 41.3305 2.68679 89C2.68679 136.669 41.3305 175.313 89 175.313V178C63.4224 178 40.3647 167.21 24.1304 149.934C23.9567 149.75 23.7839 149.564 23.6118 149.378C22.9165 148.625 22.2341 147.861 21.5649 147.084C19.8075 145.046 18.141 142.927 16.5717 140.734C16.5189 140.66 16.4663 140.586 16.4137 140.512C15.8729 139.752 15.3436 138.982 14.8263 138.204C14.7605 138.105 14.695 138.005 14.6296 137.906C7.7417 127.453 2.99826 115.462 1.02598 102.558C0.86123 101.481 0.715965 100.396 0.59028 99.3061C0.480745 98.356 0.386052 97.4013 0.306659 96.4423C0.237673 95.609 0.180325 94.7724 0.134471 93.9328C0.0778877 92.8967 0.0389273 91.8558 0.0180388 90.8106C0.00600651 90.2085 0 89.605 0 89C0 39.8467 39.8467 0 89 0C138.153 0 178 39.8467 178 89C178 92.3018 177.82 95.5615 177.47 98.77C177.415 99.2668 177.357 99.7623 177.295 100.257C177.231 100.765 177.162 101.272 177.09 101.777C175.065 115.858 169.745 128.873 161.936 140.017C161.647 140.429 161.356 140.837 161.061 141.244C160.95 141.396 160.839 141.548 160.728 141.699C160.521 141.98 160.312 142.26 160.102 142.538C149.394 156.737 134.531 167.626 117.321 173.399C116.837 173.562 116.351 173.72 115.863 173.874C115.376 174.028 114.888 174.178 114.397 174.324C112.48 174.894 110.535 175.401 108.565 175.843C107.395 176.105 106.217 176.344 105.03 176.56C99.8301 177.506 94.4727 178 89 178V175.313C136.669 175.313 175.313 136.669 175.313 89Z" fill="black"/>
</svg>
