<svg width="176" height="176" viewBox="0 0 176 176" fill="none" xmlns="http://www.w3.org/2000/svg">
<path fill-rule="evenodd" clip-rule="evenodd" d="M106.287 174.097C106.64 174.023 106.993 173.946 107.345 173.867L107.461 173.659C109.477 170.052 111.368 166.668 111.504 163.375C111.504 163.369 111.616 163.214 111.774 162.994C112.485 162.004 114.133 159.71 110.648 164.006C108.466 148.699 93.8094 135.276 86.8199 128.875L86.8005 128.858C86.5083 128.59 86.2297 128.335 85.966 128.092C85.6317 127.785 85.3214 127.498 85.0379 127.232C84.8605 127.7 84.712 128.18 84.593 128.666C82.9725 135.036 71.1705 135.879 66.8668 132.87C62.7623 130.041 55.0052 122.696 53.4642 111.405C38.5918 102.626 17.5809 97.8948 0.303223 95.3586C1.88123 114.421 9.53486 131.759 21.3226 145.432C21.9844 146.199 22.659 146.955 23.3465 147.699C39.4236 165.102 62.4393 176 88 176C93.4112 176 98.7085 175.512 103.85 174.576C104.207 174.511 104.565 174.444 104.921 174.375C105.186 174.323 105.45 174.27 105.714 174.216L106.069 174.143L106.287 174.097Z" fill="#2E2E2E"/>
<path fill-rule="evenodd" clip-rule="evenodd" d="M103.85 174.576C104.208 174.511 104.565 174.444 104.921 174.375C105.186 174.323 105.45 174.27 105.715 174.216C106.26 174.105 106.803 173.988 107.345 173.867C109.293 173.43 111.216 172.929 113.112 172.365C113.597 172.221 114.08 172.073 114.561 171.921C112.009 162.349 108.879 153.447 104.504 145.376L97.6036 151.248C97.6036 151.248 104.055 160.591 103.85 174.576Z" fill="#2E2E2E"/>
<path fill-rule="evenodd" clip-rule="evenodd" d="M105.835 144.655C101.234 136.018 94.9506 128.391 87.354 122.224L85.4446 124.576C92.7298 130.49 98.7568 137.805 103.167 146.088L103.173 146.098C107.486 154.054 110.579 162.852 113.112 172.365C113.597 172.221 114.08 172.073 114.561 171.921C115.043 171.768 115.524 171.611 116.003 171.451C113.434 161.83 110.268 152.832 105.835 144.655Z" fill="black"/>
<path d="M96.177 96.042C96.7861 99.3648 99.6494 101.208 102.3 100.639L102.936 103.6C98.4134 104.571 94.0774 101.381 93.1987 96.5881L96.177 96.042Z" fill="black"/>
<path d="M130.957 58.8974C130.48 61.7047 129.134 64.2916 127.108 66.294C125.083 68.2958 122.48 69.6108 119.667 70.0551C119.356 68.9307 118.775 67.8999 117.973 67.0531C114.573 63.5398 113.683 70.6196 103.242 66.2761C88.7637 60.2456 83.7095 64.5958 83.7095 64.5958C83.2712 64.9743 83.5368 68.1955 83.5169 68.7666C83.3642 72.1272 83.2114 75.4613 83.0387 78.8219C82.9391 80.8675 82.8395 82.8931 82.7598 84.9254C82.5439 84.5947 82.3088 84.2779 82.0558 83.9757C80.4817 79.5458 76.4171 74.4584 71.6419 77.0818C70.6769 77.6344 69.858 78.4081 69.251 79.3399C66.2756 83.8362 69.0251 87.8079 72.6381 90.6305C73.5573 91.5211 74.5708 92.3095 75.66 92.9816C75.1752 94.1837 73.196 98.9589 73.196 98.9589C72.9901 99.4371 64.3761 90.9094 63.7119 89.9664C62.652 87.6199 61.9944 85.1121 61.766 82.5478C60.9225 71.9546 64.4226 59.3357 72.5916 52.661C74.6173 51.0139 75.2814 49.5129 75.2881 47.454C75.2894 47.3425 75.3246 47.2349 75.389 47.1439C75.4528 47.0529 75.5425 46.9838 75.6467 46.9446C75.751 46.9061 75.8646 46.8995 75.9722 46.9267C76.0798 46.9533 76.1774 47.0124 76.2511 47.0954C79.1468 50.0177 85.7883 49.2605 85.7883 49.2605C108.516 41.9217 117.003 51.678 121.752 53.1857C123.703 53.7814 125.8 53.6778 127.683 52.8934C127.836 53.5244 128.16 54.1009 128.619 54.5598C129.079 55.0194 129.656 55.3435 130.286 55.4969L130.24 56.5795C130.202 57.4116 130.456 58.2312 130.957 58.8974Z" fill="#FF6B38"/>
<path d="M82.8095 43.0648C94.3483 39.3554 102.425 39.939 108.285 41.7456C111.208 42.6471 113.53 43.8381 115.389 44.875C116.357 45.4146 117.088 45.8486 117.825 46.2494C118.538 46.6374 119.085 46.8972 119.534 47.04C121.454 47.6505 123.253 47.2835 124.638 46.7099C125.326 46.4247 125.888 46.0972 126.274 45.8434C126.467 45.717 126.613 45.6103 126.707 45.5392C126.754 45.5037 126.787 45.4776 126.807 45.462C126.817 45.4542 126.823 45.4485 126.825 45.4464L129.473 43.1958L129.076 51.9388L129.076 51.9543L129.074 51.9699C129.065 52.1135 129.074 52.2564 129.101 52.3954L129.133 52.5335L129.141 52.5607L129.148 52.588C129.235 52.9482 129.42 53.2785 129.683 53.5421C129.945 53.8043 130.276 53.9899 130.637 54.0778L130.678 54.0882L130.719 54.1005C130.817 54.13 130.919 54.1459 131.023 54.1478H132.706L132.717 55.6513C132.726 56.8336 132.626 58.0132 132.423 59.1763C131.893 62.297 130.397 65.1725 128.146 67.3971C126.257 69.2645 123.914 70.594 121.362 71.2646C121.363 71.2921 121.364 71.3195 121.364 71.347C121.459 72.1426 121.531 72.9393 121.599 73.6884L121.601 73.7001L121.601 73.7111C122.2 81.5092 121.903 89.8387 119.257 97.4675C117.626 102.177 114.4 106.968 110.163 110.162C105.899 113.377 100.509 115.036 94.7389 113.164L94.7078 113.153L94.6773 113.142C91.3346 111.896 88.2061 110.139 85.4032 107.932L87.2763 105.552C89.8237 107.557 92.6656 109.155 95.7021 110.291C100.302 111.772 104.668 110.512 108.34 107.744C112.046 104.949 114.94 100.68 116.396 96.4771C118.848 89.4087 119.165 81.5545 118.583 73.9647C118.51 73.1606 118.439 72.3696 118.343 71.5876L118.32 71.4028L118.328 71.334C118.293 71.0723 118.242 70.8126 118.174 70.557L118.126 70.3916C117.873 69.574 117.436 68.8244 116.847 68.2007C116.519 67.8625 116.303 67.738 116.186 67.6903C116.093 67.652 116.012 67.6409 115.882 67.6592C115.717 67.6824 115.492 67.7513 115.119 67.9063C114.871 68.0094 114.208 68.3066 113.781 68.479C112.69 68.9192 111.295 69.3517 109.435 69.3494C107.591 69.3471 105.379 68.9181 102.628 67.7733C95.562 64.8304 90.937 64.479 88.1765 64.7788C86.7961 64.9287 85.8655 65.2432 85.3111 65.4916C85.172 65.5539 85.0554 65.6121 84.9608 65.6635C84.937 65.9345 84.9268 66.2927 84.9297 66.6973C84.9328 67.1325 84.9494 67.5796 84.9654 67.9633C84.9799 68.3127 84.9978 68.6807 84.9978 68.8655V68.8999L84.9965 68.9343C84.8438 72.2946 84.6908 75.6328 84.5179 78.9984C84.4182 81.0446 84.3189 83.0616 84.2396 85.084L84.239 85.0964C84.2087 85.7321 84.1676 86.1664 84.1676 86.6783L81.1511 86.8657C81.0536 86.0855 80.8681 85.3188 80.5991 84.5788L80.5959 84.5684C79.869 82.5227 78.588 80.408 77.0507 79.1359C76.2945 78.5102 75.5303 78.1322 74.7832 78.0093C74.062 77.8906 73.2569 77.992 72.3459 78.4905C71.5958 78.9232 70.9589 79.5264 70.487 80.2514L70.4792 80.2631C69.2706 82.0841 69.2623 83.6728 69.8456 85.1236C70.4699 86.6763 71.8252 88.179 73.5399 89.5249C74.391 90.1801 75.2819 90.7824 76.2069 91.3293C76.3428 91.3986 76.4672 91.4733 76.5026 91.494L77.6552 92.1659L77.0202 93.6596C76.7689 94.2942 76.1606 95.7702 75.6167 97.0835C75.3379 97.7566 75.0742 98.3926 74.8799 98.86C74.7827 99.0937 74.7025 99.2858 74.647 99.4191C74.6194 99.4854 74.5982 99.5374 74.5835 99.5728C74.5762 99.5903 74.5704 99.6039 74.5666 99.613C74.5648 99.6174 74.563 99.621 74.5621 99.6234C74.4167 99.9727 74.14 100.274 73.7695 100.441C73.4361 100.591 73.1348 100.587 72.973 100.571C72.6695 100.541 72.4386 100.428 72.3614 100.39C72.1604 100.291 71.9679 100.155 71.827 100.051C71.5179 99.8215 71.1236 99.4884 70.6939 99.109C69.8226 98.3397 68.686 97.2704 67.5476 96.1696C66.4066 95.0662 65.2495 93.9172 64.3332 92.9819C63.8757 92.5147 63.4729 92.0962 63.1606 91.7606C62.8841 91.4633 62.6061 91.1546 62.4504 90.9369C59.7052 87.1272 58.023 82.6566 57.5756 77.9827L57.5743 77.9697L57.573 77.9574C56.7126 67.0306 60.2606 53.8379 68.9538 46.776C69.8604 46.0413 70.3703 45.4128 70.6654 44.8244C70.9547 44.2475 71.0908 43.6048 71.0908 42.7515V42.7334C71.0959 42.3146 71.2284 41.9103 71.4651 41.5724L71.4722 41.562C71.7077 41.2318 72.041 40.9689 72.4386 40.822L72.5852 40.774C72.8807 40.6892 73.1933 40.6706 73.4997 40.7221L73.6521 40.7539L73.6605 40.7559C74.0281 40.8489 74.3684 41.0442 74.6399 41.3253C75.6882 42.3784 77.5967 42.8887 79.5601 43.0603C80.4932 43.1418 81.3492 43.1392 81.9728 43.1161C82.2831 43.1045 82.5325 43.0879 82.7012 43.0745C82.7422 43.0713 82.7784 43.0675 82.8095 43.0648ZM107.392 44.6402C102.165 43.0284 94.6794 42.4009 83.5787 45.9984L83.4334 46.0451L83.2817 46.0626C83.2799 46.0628 83.2738 46.0636 83.2713 46.0639C83.2662 46.0644 83.2594 46.0649 83.2512 46.0658C83.2345 46.0676 83.2113 46.0702 83.1824 46.073C83.1247 46.0785 83.0432 46.0856 82.9405 46.0937C82.7347 46.11 82.4425 46.1297 82.085 46.143C81.3727 46.1694 80.3862 46.1721 79.2961 46.0768C77.7001 45.9373 75.6456 45.5686 73.9381 44.5663C73.8197 45.1152 73.6379 45.6528 73.3726 46.1819C72.8277 47.2685 71.9877 48.2144 70.8625 49.1265C63.2107 55.3426 59.7847 67.3737 60.5903 77.6941L60.6305 78.0819C61.0658 81.9516 62.4583 85.6522 64.6822 88.8491L64.9072 89.1669L64.9118 89.1734L64.917 89.1805C64.9242 89.1895 64.9578 89.2312 65.0331 89.3173C65.1187 89.4153 65.234 89.5425 65.3781 89.6974C65.6659 90.0067 66.0482 90.4055 66.4963 90.8629C67.3914 91.7767 68.5293 92.9064 69.6529 93.993C70.6945 95.0002 71.7132 95.9576 72.5093 96.6691C72.608 96.4312 72.7127 96.181 72.8187 95.9251C73.1782 95.0571 73.5571 94.1344 73.8441 93.432C73.1009 92.9592 72.3786 92.4536 71.6804 91.9156L71.67 91.9071C69.7718 90.4172 67.9457 88.5162 67.0359 86.2534C66.0864 83.8921 66.189 81.2575 67.9485 78.5995C68.6861 77.466 69.6829 76.5251 70.8561 75.8534L70.8794 75.8404C72.3527 75.031 73.8439 74.7852 75.2749 75.0206C76.6821 75.2521 77.9279 75.931 78.9815 76.8029C79.9227 77.5817 80.7512 78.5497 81.4565 79.5957C81.4687 79.3464 81.4807 79.0969 81.4929 78.8472C81.6645 75.5072 81.8162 72.1885 81.9683 68.8435C81.9667 68.7309 81.9557 68.4875 81.9391 68.0892C81.9227 67.6966 81.905 67.2074 81.9015 66.7187C81.898 66.2394 81.9076 65.7162 81.9553 65.2665C81.9788 65.045 82.0165 64.7914 82.0844 64.5498C82.1319 64.3807 82.2716 63.9073 82.6863 63.5491L83.6604 64.6763C82.7168 63.58 82.6859 63.551 82.6863 63.5491L82.6934 63.5426C82.6951 63.5411 82.6974 63.5396 82.6992 63.538C82.7029 63.5349 82.7072 63.5313 82.7115 63.5277C82.7204 63.5203 82.7305 63.5117 82.742 63.5024C82.7653 63.4837 82.794 63.4612 82.8283 63.4356C82.8969 63.3842 82.9879 63.3197 83.102 63.2462C83.3304 63.0991 83.6513 62.9162 84.0729 62.7273C84.9185 62.3485 86.1568 61.9519 87.8496 61.7681C91.2359 61.4003 96.3783 61.8897 103.791 64.9773C106.26 66.0041 108.074 66.3188 109.439 66.3205C110.789 66.3221 111.786 66.0181 112.648 65.6706C113.197 65.449 113.401 65.3403 113.956 65.1096C114.387 64.9308 114.902 64.7387 115.461 64.6601C116.056 64.5765 116.684 64.6225 117.331 64.8865C117.876 65.109 118.369 65.4598 118.831 65.9034L119.028 66.0993L119.039 66.111C119.665 66.7713 120.179 67.5243 120.567 68.3402C122.617 67.806 124.5 66.7425 126.018 65.2432C127.818 63.4643 129.014 61.1651 129.438 58.6698L129.439 58.662C129.538 58.0932 129.608 57.5202 129.648 56.9452C128.855 56.7043 128.13 56.2721 127.542 55.6837C126.887 55.0283 126.424 54.205 126.205 53.304C126.073 52.8137 126.021 52.3058 126.051 51.8013L126.162 49.3483C126.043 49.4017 125.922 49.4554 125.797 49.5072C124.004 50.2502 121.438 50.8233 118.617 49.9262C117.88 49.6921 117.125 49.3159 116.377 48.9092C115.653 48.5152 114.765 47.995 113.914 47.5206C112.137 46.5294 110.025 45.4522 107.392 44.6402Z" fill="black"/>
<path d="M66.1008 92.3642L54.3984 105.926L52.105 103.948L63.8074 90.386L66.1008 92.3642Z" fill="black"/>
<path d="M98.4205 84.0417C99.5908 84.0417 100.539 83.0927 100.539 81.9231C100.539 80.7529 99.5908 79.8044 98.4205 79.8044C97.2503 79.8044 96.3019 80.7529 96.3019 81.9231C96.3019 83.0927 97.2503 84.0417 98.4205 84.0417Z" fill="black"/>
<path d="M114.692 83.2712C115.862 83.2712 116.811 82.3221 116.811 81.1526C116.811 79.9823 115.862 79.0339 114.692 79.0339C113.522 79.0339 112.574 79.9823 112.574 81.1526C112.574 82.3221 113.522 83.2712 114.692 83.2712Z" fill="black"/>
<path d="M108.78 82.3252C108.781 82.3286 108.783 82.3374 108.785 82.344C108.789 82.3576 108.795 82.378 108.802 82.4043C108.817 82.4571 108.838 82.5349 108.866 82.6339C108.921 82.8319 108.999 83.1156 109.094 83.4583C109.284 84.1438 109.54 85.0655 109.803 86.0098C110.332 87.9117 110.878 89.8689 110.982 90.2159C111.137 90.7199 111.183 91.2685 111.028 91.8153C110.87 92.374 110.541 92.7959 110.175 93.0956C109.505 93.6448 108.639 93.8468 108.021 93.9381C107.35 94.0371 106.68 94.0441 106.201 94.0302C105.957 94.0231 105.75 94.0103 105.602 93.9991C105.528 93.9934 105.468 93.9882 105.425 93.9842C105.403 93.9821 105.386 93.9803 105.373 93.979C105.367 93.9783 105.361 93.9775 105.357 93.977C105.355 93.9768 105.358 93.9772 105.357 93.977L105.348 93.9764C105.348 93.9764 105.35 93.9595 105.514 92.471C105.68 90.9659 105.679 90.9656 105.679 90.9656C105.684 90.9662 105.696 90.9677 105.709 90.9689C105.735 90.9714 105.777 90.9751 105.832 90.9793C105.941 90.9876 106.099 90.9971 106.289 91.0026C106.678 91.0139 107.152 91.0052 107.578 90.9423C107.75 90.9169 107.896 90.8845 108.014 90.8495C107.819 90.1687 107.337 88.4472 106.885 86.8212C106.622 85.8761 106.366 84.9536 106.176 84.2677C106.081 83.9248 106.002 83.6408 105.947 83.4427C105.92 83.3437 105.898 83.266 105.883 83.2131C105.876 83.1867 105.87 83.1664 105.867 83.1528C105.865 83.146 105.864 83.1407 105.863 83.1372L108.78 82.3252Z" fill="black"/>
<path d="M90.7253 73.5508C93.7575 70.5773 97.3922 70.3213 100.116 70.7515C101.476 70.9664 102.646 71.3554 103.474 71.6874C103.89 71.8543 104.225 72.0088 104.461 72.1246C104.579 72.1826 104.673 72.2312 104.74 72.2666C104.773 72.2842 104.8 72.2986 104.82 72.3094C104.83 72.3148 104.838 72.3195 104.844 72.3231C104.848 72.3248 104.85 72.3269 104.853 72.3282C104.851 72.3323 104.817 72.4034 104.112 73.6488C103.366 74.9665 103.368 74.9673 103.368 74.9673C103.36 74.9632 103.342 74.9534 103.322 74.9427C103.281 74.9211 103.215 74.8867 103.127 74.8435C102.95 74.7567 102.684 74.6337 102.347 74.4984C101.668 74.2261 100.721 73.9138 99.6427 73.7435C97.4897 73.4033 94.9611 73.6393 92.8462 75.7132L90.7253 73.5508Z" fill="black"/>
<path d="M101.934 81.9429C101.934 78.605 99.2279 75.8994 95.89 75.8994C92.5522 75.8994 89.8466 78.6051 89.8465 81.9429C89.8465 85.2807 92.5522 87.9864 95.89 87.9864C99.2279 87.9864 101.934 85.2808 101.934 81.9429ZM104.962 81.9429C104.962 86.9534 100.901 91.0153 95.89 91.0153C90.8796 91.0153 86.8176 86.9534 86.8176 81.9429C86.8177 76.9325 90.8796 72.8705 95.89 72.8705C100.9 72.8705 104.962 76.9324 104.962 81.9429Z" fill="black"/>
<path d="M121.061 82.2285C121.061 78.8907 118.355 76.185 115.017 76.185C111.68 76.1851 108.974 78.8907 108.974 82.2285C108.974 85.5664 111.68 88.2727 115.017 88.2727C118.355 88.2727 121.061 85.5664 121.061 82.2285ZM124.09 82.2285C124.09 87.239 120.028 91.3009 115.017 91.3009C110.007 91.3009 105.945 87.239 105.945 82.2285C105.945 77.2181 110.007 73.1562 115.017 73.1561C120.028 73.1561 124.09 77.2181 124.09 82.2285Z" fill="black"/>
<path d="M107.573 81.4128L103.568 81.7319L103.328 78.7127L107.332 78.3943L107.573 81.4128Z" fill="black"/>
<path opacity="0.53" d="M95.8902 88.3388C99.4228 88.3388 102.286 85.4756 102.286 81.943C102.286 78.4111 99.4228 75.5472 95.8902 75.5472C92.3582 75.5472 89.4944 78.4111 89.4944 81.943C89.4944 85.4756 92.3582 88.3388 95.8902 88.3388Z" fill="white"/>
<path opacity="0.53" d="M115.017 88.6244C118.55 88.6244 121.413 85.7606 121.413 82.2287C121.413 78.696 118.55 75.8329 115.017 75.8329C111.486 75.8329 108.622 78.696 108.622 82.2287C108.622 85.7606 111.486 88.6244 115.017 88.6244Z" fill="white"/>
<path fill-rule="evenodd" clip-rule="evenodd" d="M53.7547 103.508C36.2672 97.3499 18.2836 92.7623 0.0178223 89.7903C0.038577 90.8238 0.0768435 91.8529 0.132946 92.8774C18.0154 95.8233 35.6222 100.333 52.7487 106.365L53.7547 103.508ZM21.3225 145.432C21.9844 146.199 22.6589 146.955 23.3468 147.699C24.7276 146.649 25.9651 145.535 27.0732 144.389C30.6729 140.664 32.8375 136.668 34.1032 133.608C34.7369 132.077 35.1488 130.772 35.403 129.843C35.5301 129.378 35.618 129.006 35.6754 128.745C35.7039 128.615 35.7247 128.512 35.739 128.439L35.7552 128.354L35.7604 128.328L35.7623 128.316C35.7623 128.316 35.7539 128.313 35.5619 128.28C35.3709 128.246 34.9983 128.181 34.2706 128.055C32.7785 127.797 32.7788 127.795 32.7788 127.795L32.7769 127.805L32.7671 127.859C32.7571 127.909 32.7406 127.989 32.7172 128.095C32.6702 128.309 32.5946 128.632 32.4818 129.044C32.2561 129.868 31.8841 131.051 31.3052 132.451C30.1456 135.254 28.1671 138.898 24.8953 142.283C23.8494 143.365 22.6648 144.428 21.3225 145.432Z" fill="black"/>
<path d="M54.7662 104.931C54.7662 108.68 55.7275 115.234 58.3607 121.083C60.9594 126.857 65.0233 131.618 71.0788 132.735L71.3687 132.785C76.6993 133.659 79.8061 132.067 81.6883 130.106C83.6536 128.058 84.4551 125.423 84.7529 124.039C84.9196 123.23 85.1381 122.434 85.406 121.654L85.4092 121.643L90.1115 108.28L92.9685 109.286L88.2695 122.637C88.0421 123.299 87.8579 123.976 87.7169 124.662L87.7137 124.676C87.3672 126.287 86.406 129.564 83.8734 132.203C81.2576 134.929 77.131 136.8 70.879 135.774C63.2078 134.52 58.4239 128.601 55.5996 122.327C52.7685 116.037 51.7373 109.052 51.7373 104.931H54.7662Z" fill="black"/>
<path d="M173.343 88C173.343 40.8661 135.134 2.6566 88 2.6566C40.8661 2.6566 2.6566 40.8661 2.6566 88C2.6566 135.134 40.8661 173.343 88 173.343V176C62.4392 176 39.4237 165.102 23.3465 147.699C22.659 146.955 21.9843 146.199 21.3226 145.432C9.53483 131.759 1.88128 114.421 0.303213 95.3587C0.235002 94.5347 0.178299 93.7076 0.13296 92.8774C0.0770126 91.8529 0.0384899 90.8238 0.0178361 89.7903C0.00593902 89.1949 0 88.5982 0 88C0 39.3989 39.3989 0 88 0C136.601 0 176 39.3989 176 88C176 126.811 150.875 159.754 116.003 171.451C115.524 171.611 115.043 171.768 114.561 171.921C114.08 172.073 113.597 172.221 113.112 172.365C111.216 172.929 109.293 173.43 107.345 173.867C106.189 174.126 105.023 174.363 103.85 174.576C98.7084 175.512 93.4112 176 88 176V173.343C135.134 173.343 173.343 135.134 173.343 88Z" fill="black"/>
</svg>
