<svg width="177" height="177" viewBox="0 0 177 177" fill="none" xmlns="http://www.w3.org/2000/svg">
<path d="M57.9056 59.6389C57.9843 59.681 58.0635 59.7175 58.142 59.7487L56.882 62.9146C56.6811 62.8347 56.4873 62.7439 56.3009 62.6444L57.9056 59.6389Z" fill="#CCDDE2"/>
<path fill-rule="evenodd" clip-rule="evenodd" d="M113.772 173.339V144.12L113.72 143.954C113.696 143.908 113.658 143.871 113.612 143.847C113.567 143.823 113.514 143.813 113.463 143.819C113.412 143.826 113.363 143.847 113.324 143.881C113.303 143.9 113.285 143.922 113.271 143.946C113.259 143.967 113.25 143.988 113.245 144.011L100.699 176.166C100.96 176.13 101.22 176.093 101.48 176.055C101.831 176.003 102.182 175.949 102.532 175.894C102.928 175.83 103.324 175.765 103.719 175.696C103.959 175.655 104.2 175.612 104.44 175.568C105.62 175.354 106.792 175.116 107.955 174.855C109.303 174.552 110.64 174.219 111.964 173.856C112.302 173.763 112.639 173.669 112.975 173.572C113.235 173.497 113.495 173.421 113.755 173.344L113.772 173.339Z" fill="#2E2E2E"/>
<path fill-rule="evenodd" clip-rule="evenodd" d="M63.3946 141.413C63.8436 141.337 64.3008 141.418 64.6913 141.637L64.7014 141.643C65.0643 141.85 65.3591 142.173 65.533 142.573L80.572 176.65C79.9659 176.596 79.3614 176.536 78.7587 176.47C78.4102 176.432 78.0622 176.392 77.7148 176.349C77.361 176.306 77.0079 176.261 76.6555 176.214L75.3839 173.332L65.1575 150.156V171.116V173.889C64.8616 173.808 64.5666 173.726 64.2721 173.643C64.0354 173.575 63.7989 173.507 63.563 173.438L63.2114 173.334C62.7224 173.189 62.2353 173.039 61.75 172.885V143.324L61.7506 143.298C61.7646 142.834 61.942 142.4 62.2342 142.064C62.5298 141.724 62.9335 141.495 63.38 141.416L63.3946 141.413Z" fill="black"/>
<path fill-rule="evenodd" clip-rule="evenodd" d="M115.371 172.847V170.038L115.37 145.034V144.116C115.373 143.674 115.23 143.24 114.954 142.887L114.949 142.881C114.653 142.505 114.23 142.249 113.757 142.161C113.605 142.133 113.451 142.123 113.297 142.13C112.983 142.146 112.673 142.236 112.396 142.399C112.003 142.63 111.711 142.985 111.553 143.397L98.6685 176.422C99.3478 176.344 100.025 176.259 100.699 176.166C100.96 176.13 101.22 176.093 101.48 176.055C101.831 176.003 102.182 175.949 102.532 175.894L111.964 151.718V173.856C112.302 173.763 112.639 173.669 112.975 173.572C113.235 173.497 113.495 173.421 113.755 173.344L113.772 173.339C114.055 173.255 114.337 173.169 114.619 173.083L114.983 172.97L115.212 172.897L115.371 172.847Z" fill="black"/>
<path d="M115.308 143.654L112.028 144.578L103.386 113.89L106.666 112.967L115.308 143.654Z" fill="black"/>
<path d="M70.4665 117.662L65.6514 143.529L62.3014 142.905L67.1165 117.038L70.4665 117.662Z" fill="black"/>
<path d="M126.407 80.5685C126.407 93.3169 119.457 104.706 109.879 112.097C108.036 113.525 106.087 114.809 104.047 115.938C105.607 112.47 106.395 108.704 106.357 104.901V102.391C106.777 102.083 107.172 101.742 107.536 101.369C108.047 100.873 108.503 100.323 108.895 99.7291C109.301 99.1316 109.645 98.4947 109.922 97.8278C110.503 96.4636 110.801 94.9948 110.797 93.5118C110.798 93.1638 110.777 92.8164 110.735 92.4708C110.744 92.4142 110.744 92.3567 110.735 92.2997C110.708 91.9703 110.657 91.6428 110.583 91.3205C110.59 91.2815 110.59 91.2411 110.583 91.2017C110.519 90.8699 110.431 90.5424 110.321 90.2225C110.223 89.8722 110.101 89.529 109.955 89.1958C109.911 89.0855 109.86 88.9776 109.803 88.8725C109.719 88.6686 109.622 88.4704 109.513 88.2784C109.494 88.2285 109.467 88.1819 109.432 88.1405C109.285 87.8529 109.117 87.5763 108.929 87.3134C108.762 87.052 108.563 86.7906 108.377 86.5482C108.102 86.2249 107.826 85.9207 107.536 85.6308C107.246 85.3408 107.061 85.1982 106.832 84.9843C106.709 84.8797 106.571 84.7704 106.433 84.6658C106.295 84.5613 106.053 84.3901 105.853 84.2666C105.584 84.0802 105.303 83.912 105.012 83.7627C104.311 83.3739 103.565 83.0706 102.792 82.8596V77.9827C102.799 77.8752 102.799 77.7673 102.792 77.6594C102.712 76.4202 102.163 75.2585 101.256 74.4105C100.348 73.5625 99.152 73.0924 97.9104 73.0962H73.5259C72.2306 73.0977 70.989 73.6129 70.0735 74.5294C69.1585 75.4453 68.6442 76.6879 68.6442 77.9827V83.1685C66.8165 83.8706 65.2071 85.0433 63.9793 86.5686C62.7515 88.0935 61.9491 89.9164 61.6535 91.8514C61.3578 93.787 61.5798 95.7663 62.2971 97.5882C63.0139 99.4097 64.1998 101.01 65.7352 102.225V104.934C65.7247 108.73 66.5356 112.484 68.1118 115.938C63.9222 113.632 60.121 110.682 56.8464 107.197C52.2262 100.818 49.3314 93.179 49.3314 84.9605C49.3281 76.8956 51.7414 69.0146 56.2599 62.3342C60.7779 55.6539 67.194 50.4799 74.6804 47.4803C82.1669 44.4806 90.3802 43.7926 98.2612 45.5049C106.142 47.2173 113.33 51.2514 118.896 57.087C123.8 63.9328 126.428 72.1475 126.407 80.5685Z" fill="#2E2E2E"/>
<path d="M107.975 85.4783V93.1293L108.051 104.865L108.054 105.382C108.033 110.711 106.447 115.921 103.487 120.362L103.483 120.368L103.479 120.375C100.133 125.297 94.4862 130.437 85.7203 130.127C78.3334 129.873 73.2608 126.163 69.9339 122.087L69.9215 122.071C66.1638 117.353 64.0925 111.519 64.0271 105.499V102.214H67.434V105.461C67.4911 110.723 69.301 115.82 72.5841 119.944C75.4646 123.468 79.6864 126.51 85.8385 126.722C92.9699 126.973 97.6563 122.872 100.651 118.472C103.324 114.462 104.717 109.735 104.644 104.916V104.902L104.568 93.1519V85.4783H107.975Z" fill="black"/>
<path d="M83.7361 93.5165C83.7361 94.9758 83.4485 96.4203 82.89 97.7684C82.3315 99.1169 81.5129 100.341 80.481 101.373C79.4486 102.405 78.2236 103.223 76.8751 103.781C75.5271 104.339 74.0821 104.626 72.6228 104.625C71.935 104.631 71.2486 104.566 70.5741 104.43C68.4004 103.255 66.6807 101.388 65.6882 99.1245C64.6957 96.861 64.487 94.3317 65.0949 91.936C65.7029 89.5408 67.0928 87.4171 69.0445 85.9012C70.9962 84.3854 73.3981 83.564 75.8693 83.5678C76.5571 83.5635 77.244 83.6306 77.918 83.7675C79.6772 84.7162 81.1469 86.1232 82.1713 87.8396C83.1956 89.5561 83.7361 91.5178 83.7361 93.5165Z" fill="#1A69FF"/>
<path d="M110.778 93.5165C110.778 94.9758 110.49 96.4203 109.932 97.7684C109.373 99.1169 108.555 100.341 107.523 101.373C106.49 102.405 105.265 103.223 103.917 103.781C102.569 104.339 101.124 104.626 99.6644 104.625C98.9766 104.631 98.2902 104.566 97.6157 104.43C95.442 103.255 93.7223 101.388 92.7298 99.1245C91.7373 96.861 91.5286 94.3317 92.1366 91.936C92.7445 89.5408 94.1344 87.4171 96.0861 85.9012C98.0378 84.3854 100.44 83.564 102.911 83.5678C103.599 83.5635 104.286 83.6306 104.96 83.7675C106.719 84.7162 108.189 86.1232 109.213 87.8396C110.237 89.5561 110.778 91.5178 110.778 93.5165Z" fill="#1A69FF"/>
<path d="M82.0276 93.5202C82.0275 88.3285 77.8185 84.1204 72.6272 84.1204C67.4359 84.1205 63.2274 88.3286 63.2273 93.5202C63.2273 98.7115 67.4359 102.921 72.6272 102.921C77.8185 102.921 82.0276 98.7116 82.0276 93.5202ZM85.4351 93.5202C85.4351 100.593 79.7004 106.328 72.6272 106.328C65.5541 106.328 59.8198 100.593 59.8198 93.5202C59.8199 86.4467 65.5542 80.713 72.6272 80.7129C79.7003 80.7129 85.435 86.4466 85.4351 93.5202Z" fill="black"/>
<path d="M109.074 93.5202C109.074 88.3285 104.865 84.1204 99.6737 84.1204C94.4824 84.1205 90.2739 88.3286 90.2738 93.5202C90.2738 98.7115 94.4824 102.921 99.6737 102.921C104.865 102.921 109.074 98.7116 109.074 93.5202ZM112.482 93.5202C112.482 100.593 106.747 106.328 99.6737 106.328C92.6006 106.328 86.8663 100.593 86.8663 93.5202C86.8664 86.4467 92.6007 80.713 99.6737 80.7129C106.747 80.7129 112.481 86.4466 112.482 93.5202Z" fill="black"/>
<path d="M84.6485 112.856C84.6538 112.86 84.6646 112.866 84.6801 112.875C84.7123 112.894 84.766 112.926 84.8388 112.966C84.9851 113.047 85.206 113.163 85.4846 113.288C86.0496 113.542 86.8114 113.819 87.6444 113.948C88.4758 114.077 89.3178 114.05 90.0987 113.767C90.8555 113.492 91.6663 112.938 92.4077 111.82L95.2471 113.703C94.1276 115.391 92.7459 116.432 91.2608 116.97C89.7998 117.5 88.3499 117.505 87.1225 117.315C85.897 117.125 84.833 116.731 84.0866 116.396C83.7096 116.226 83.4032 116.067 83.1863 115.946C83.0778 115.886 82.9908 115.835 82.9279 115.798C82.8964 115.779 82.8706 115.763 82.8513 115.751C82.8417 115.745 82.8336 115.74 82.8271 115.736C82.8239 115.734 82.8211 115.732 82.8187 115.73L82.8136 115.727C82.8136 115.727 82.8245 115.707 83.7313 114.292C84.6502 112.857 84.6485 112.856 84.6485 112.856Z" fill="black"/>
<path d="M86.0392 38.0571C91.6029 38.0571 97.1114 39.1605 102.246 41.3036C107.219 43.3797 111.746 46.3917 115.582 50.1736L115.951 50.5419L116.315 50.9151C120.055 54.7915 123.018 59.3506 125.04 64.3469C127.127 69.5039 128.171 75.0243 128.11 80.5876C128.102 96.5628 117.725 110.33 104.856 117.43L103.21 114.447C115.252 107.803 124.703 95.0452 124.703 80.569V80.5595L124.703 80.5505C124.759 75.4379 123.799 70.3649 121.881 65.6255C119.963 60.8858 117.124 56.5735 113.528 52.9381C109.932 49.3035 105.651 46.4175 100.933 44.4481C96.2148 42.4787 91.1522 41.4646 86.0392 41.4646C80.926 41.4646 75.8637 42.4786 71.1453 44.4481C66.5742 46.3561 62.4137 49.1239 58.8886 52.5997L58.5496 52.9381C54.9539 56.5735 52.115 60.8853 50.197 65.625C48.279 70.3643 47.3195 75.4379 47.3751 80.5505V80.569C47.3751 95.0583 56.8532 107.825 68.9083 114.445L67.2682 117.432C54.3829 110.356 43.9757 96.5782 43.9676 80.5876L43.9653 80.0662C43.9736 74.6797 45.0165 69.3428 47.0384 64.3469C49.1255 59.1894 52.2149 54.4975 56.1274 50.5419L56.4962 50.1736C60.3319 46.3916 64.8589 43.3797 69.8328 41.3036C74.9671 39.1605 80.4755 38.0571 86.0392 38.0571Z" fill="black"/>
<path d="M101.031 77.9864C101.031 77.1412 100.696 76.3305 100.098 75.7326C99.5001 75.1347 98.6894 74.7991 97.8441 74.7991H73.5278L73.3696 74.803C72.5824 74.843 71.8355 75.1734 71.2757 75.7337C70.6788 76.3312 70.3433 77.1418 70.3433 77.9864V82.4642H66.9358V77.9864C66.9358 76.2386 67.6297 74.5619 68.8647 73.3256C70.1004 72.0887 71.7764 71.3936 73.5239 71.3916H97.8441C99.5931 71.3916 101.27 72.0865 102.507 73.3234C103.744 74.5602 104.439 76.2374 104.439 77.9864V82.4164H101.031V77.9864Z" fill="black"/>
<path fill-rule="evenodd" clip-rule="evenodd" d="M144.39 157.122C145.308 156.374 146.211 155.607 147.098 154.823C137.019 148.148 125.779 143.293 113.603 141.243L113.038 144.603C113.819 144.735 114.596 144.878 115.37 145.034C124.867 146.943 133.785 150.64 141.996 155.621C142.801 156.109 143.599 156.61 144.39 157.122Z" fill="black"/>
<path fill-rule="evenodd" clip-rule="evenodd" d="M31.5631 156.255C32.4165 155.802 33.2771 155.358 34.1438 154.925C43.0581 150.474 52.6243 147.159 61.7499 145.356C62.5904 145.19 63.4272 145.036 64.2594 144.896L63.6935 141.536C52.2296 143.466 39.916 147.8 28.8287 153.858C29.7237 154.676 30.6352 155.475 31.5631 156.255Z" fill="black"/>
<path d="M174.328 88.5C174.328 41.0983 135.902 2.6717 88.5 2.6717C41.0983 2.6717 2.6717 41.0983 2.6717 88.5C2.6717 101.954 5.76717 114.685 11.2849 126.019C14.1661 131.938 17.7078 137.475 21.8139 142.537C25.4935 147.072 29.6265 151.224 34.1438 154.925C42.2429 161.561 51.5775 166.744 61.75 170.078C62.8757 170.447 64.0117 170.793 65.1574 171.116C68.4885 172.055 71.9017 172.798 75.3838 173.332C79.6601 173.988 84.0403 174.328 88.5 174.328V177C85.828 177 83.1836 176.882 80.5719 176.65C79.9657 176.596 79.3613 176.536 78.7587 176.47C78.0551 176.393 77.354 176.308 76.6554 176.214C72.7358 175.69 68.8973 174.909 65.1574 173.889C64.6239 173.744 64.0924 173.593 63.5629 173.438C63.4456 173.404 63.3284 173.369 63.2113 173.334C62.7224 173.189 62.2353 173.039 61.75 172.885C54.9028 170.717 48.4161 167.738 42.4024 164.061C40.034 162.613 37.7389 161.057 35.5241 159.4C34.9556 158.974 34.3925 158.542 33.8347 158.103C33.0672 157.5 32.3099 156.884 31.5631 156.256C30.6353 155.475 29.7236 154.676 28.8288 153.859C28.5287 153.585 28.2306 153.308 27.9344 153.03C26.3977 151.587 24.9096 150.087 23.4791 148.539C23.4205 148.475 23.3621 148.412 23.3037 148.348C23.2484 148.288 23.1931 148.228 23.1379 148.167C23.1215 148.149 23.105 148.131 23.0886 148.113C22.9298 147.939 22.7717 147.764 22.6143 147.589C22.4329 147.387 22.2525 147.184 22.0729 146.98C22.0661 146.972 22.0592 146.964 22.0524 146.956C22.0418 146.944 22.0311 146.932 22.0206 146.92C21.9943 146.891 21.9682 146.861 21.942 146.831C21.9041 146.788 21.8663 146.745 21.8286 146.701C21.7863 146.653 21.7409 146.601 21.6988 146.553C21.6801 146.531 21.6614 146.51 21.6428 146.488C21.6245 146.467 21.6064 146.446 21.5881 146.425C21.573 146.408 21.5579 146.39 21.5428 146.373C21.5097 146.335 21.4767 146.296 21.4437 146.258C15.3059 139.138 10.2827 131.031 6.64493 122.206C6.64334 122.202 6.64173 122.198 6.64015 122.195C5.89649 120.39 5.2108 118.555 4.58535 116.693C4.58291 116.685 4.58047 116.678 4.57803 116.671C3.7302 114.144 2.99312 111.567 2.37291 108.944C2.20192 108.221 2.03985 107.494 1.88673 106.764C1.29415 103.94 0.83621 101.066 0.519962 98.1501C0.438942 97.403 0.367241 96.6531 0.304936 95.9005C0.291228 95.7349 0.277974 95.5692 0.265189 95.4034C0.228444 94.9267 0.195533 94.449 0.166377 93.9703C0.1582 93.836 0.15043 93.7017 0.142848 93.5673C0.141906 93.5506 0.140847 93.5339 0.139914 93.5172C0.137827 93.4798 0.135758 93.4424 0.133716 93.4051C0.111815 93.004 0.0925742 92.6023 0.0760096 92.1998C0.0500188 91.5684 0.030624 90.9352 0.0179379 90.3004C0.00597326 89.7017 0 89.1016 0 88.5C0 77.7457 1.91834 67.4394 5.43131 57.9046C17.8844 24.1048 50.3771 0 88.5 0C126.91 0 159.605 24.4692 171.847 58.6699C175.183 67.99 177 78.0328 177 88.5C177 89.0649 176.995 89.6286 176.984 90.1911C176.943 92.4007 176.82 94.5906 176.62 96.7577C176.36 99.5642 175.969 102.333 175.454 105.057C175.324 105.743 175.186 106.426 175.041 107.107C174.533 109.48 173.93 111.818 173.236 114.116C173.234 114.124 173.232 114.131 173.229 114.139C172.786 115.606 172.306 117.056 171.789 118.49C171.788 118.494 171.787 118.498 171.785 118.502C170.834 121.14 169.762 123.721 168.574 126.236C164.851 134.123 159.997 141.371 154.221 147.771C151.981 150.253 149.603 152.608 147.098 154.823C146.211 155.607 145.308 156.374 144.39 157.122C144.037 157.411 143.681 157.696 143.323 157.979C141.522 159.402 139.665 160.756 137.755 162.038C137.214 162.401 136.668 162.759 136.118 163.11C133.919 164.517 131.653 165.829 129.327 167.041C125.279 169.149 121.047 170.954 116.662 172.425C116.233 172.569 115.803 172.71 115.371 172.847C115.318 172.864 115.265 172.881 115.212 172.897C114.734 173.049 114.254 173.196 113.772 173.339C113.766 173.341 113.76 173.343 113.755 173.344C113.16 173.521 112.563 173.691 111.964 173.856C110.64 174.219 109.303 174.552 107.955 174.855C106.792 175.116 105.62 175.354 104.44 175.568C103.806 175.684 103.17 175.792 102.532 175.894C101.923 175.991 101.312 176.081 100.699 176.166C100.025 176.259 99.3476 176.344 98.6684 176.422C95.3318 176.804 91.9388 177 88.5 177V174.328C97.8849 174.328 106.918 172.822 115.371 170.038C125.138 166.821 134.131 161.898 141.996 155.621C161.702 139.895 174.328 115.672 174.328 88.5Z" fill="black"/>
<path fill-rule="evenodd" clip-rule="evenodd" d="M65.1575 150.156L75.3839 173.332C71.9018 172.798 68.4884 172.055 65.1575 171.116V150.156Z" fill="#2E2E2E"/>
<path fill-rule="evenodd" clip-rule="evenodd" d="M61.7499 170.078C51.5773 166.744 42.2428 161.561 34.1438 154.925C43.058 150.474 52.6243 147.159 61.7499 145.356V170.078Z" fill="black"/>
<path fill-rule="evenodd" clip-rule="evenodd" d="M115.37 145.034C124.867 146.943 133.785 150.64 141.996 155.621C134.131 161.898 125.139 166.821 115.371 170.038L115.37 145.034Z" fill="black"/>
</svg>
