<svg width="250" height="280" viewBox="0 0 250 280" fill="none" xmlns="http://www.w3.org/2000/svg">
<g clip-path="url(#clip0_16_391)">
<path d="M122.31 -2.92975e-05C120.57 5.87997 113.24 8.37997 109.65 13.47C99.55 27.79 123.04 28.9 116.74 42.78C113.38 50.19 99.6 48.31 93.86 51.6C85.47 56.42 88.14 72.97 93.78 79.25C89.26 81.14 89.16 76.38 87.96 76.12C80.99 74.62 58.19 78.69 50.98 81.65C44.18 84.44 32.91 91.24 33.55 99.88C59.88 76.32 113.64 75.29 139.75 99.88C137.57 89.24 126.51 83.46 116.86 80.74L114.41 84.02C110.71 70.25 122.26 71.56 125.48 61.83L112.88 66.53L111.37 58.13C112.87 53.26 132.21 51.81 133.08 41.77C134 31.21 103.7 22.55 123.89 7.91997C122.82 13.64 119.23 15.78 121.4 22.28C123.86 29.62 146.04 36.49 132.86 50.18C127.48 55.77 115.66 54.85 114.39 63.41C118.65 65.11 124.9 55.59 127.9 60.21C131.51 65.78 123.94 69.74 123.93 70.56C136.42 76.59 153.9 84.83 150.85 101.46L178.63 88.95C189.39 93.14 203.76 96.67 213.21 103.32C226.66 112.8 227.75 141.75 230.85 157.09C248.77 159.08 244.13 169.64 234.85 179.94C246.65 187.18 253.61 218.79 245.52 229.45C225.06 242.63 207.38 263.5 187.22 276.55C174.6 284.71 170.02 271.34 159.23 269.84C155.02 269.26 149.84 272.62 145.24 272.75C132.1 273.11 122.99 259.34 125.49 247.34L115.91 246.6C110 236.89 117.59 233.31 105.7 228.29C103.1 227.19 100.18 226.78 97.69 225.34C81.77 256.57 47.72 235.77 60.47 206.12L55.77 207.26C56.93 218.08 36.26 222.72 28.8 219.55C21.34 216.38 13.54 196.45 20.68 189.44C20.42 185.93 1.21998 185.68 7.88998 168.62C8.79998 166.3 11.41 166.25 11.42 165.6C11.45 163.1 1.73998 149.21 0.609981 143.11C-2.30002 127.41 5.21998 112.59 22.36 112.49C20.67 95.27 24.39 83.74 39.82 75.24C46.27 71.69 52.78 70.9 58.89 67.34C59.71 63.87 56.46 65.84 55.25 63.05C50.06 51.03 54.95 38.33 64.46 30.11C64.92 35.45 59.31 38.65 58 44.26C55.98 52.89 55.92 68.03 68.42 66.55C66.03 63.16 69.06 59.28 68.54 56.54C68.11 54.27 59.72 55.94 66.22 42.96C71.82 31.77 85.66 31.65 71.59 14.26C76.66 10.54 81.21 24.15 80.45 28.51C78.75 38.27 68.21 40.44 66.82 50.7L71.48 50.78C70.33 65.63 66.3 66.95 83.29 65.07C86.89 45.45 96.76 50.39 109.21 44.73C122.21 38.82 108.79 31.93 105.82 26.79C98.95 14.95 112.31 4.39997 122.32 -0.0300293L122.31 -2.92975e-05ZM85.86 68.18C82.01 67.95 78.25 68.12 74.41 68.63C72.42 68.9 65.89 68.88 66.84 72.11C71.37 76.61 79.52 74.56 84.92 73.07L85.86 68.18ZM65.23 74.49C61.92 67.82 51.7 73.56 46.73 75.82C30.31 83.31 18.89 97.77 27.18 115.71C6.47998 115.4 -0.480019 126.8 5.41998 146.2C11.74 166.94 29.57 172.82 47.77 161.71C42.65 169.7 54.4 175.3 60.94 177.88C75.44 183.58 100.69 182.65 112.54 171.76C112.56 155.71 109.87 139.55 112.78 123.67C95.7 126.48 79.13 128.35 61.97 124.53C16.4 114.38 22.88 81.48 65.22 74.49H65.23ZM141.36 107.81L149 102.13C148.78 85 133.58 78.72 119.98 72.93C112.81 78.71 127.74 81.24 132.36 84.3C140.95 89.99 145.14 97.72 141.36 107.82V107.81ZM125.49 98.28C114.09 83.28 69.7 84.83 56.86 95.04C53.82 97.45 50.56 107.07 57.31 106.21C52.23 98.99 63.28 95.42 69.29 93.63C88.43 87.9 107.42 90.56 125.49 98.29V98.28ZM225.36 144.27C223.79 135.02 220.62 115.33 214.32 108.56C210.77 104.74 184.99 92.88 179.8 92.23L119.15 120.51C119.33 122.76 121.48 123 123.05 123.73C133.35 128.46 150 133.24 157.83 141.27C160.19 143.69 160.63 148.08 163.52 149.03L163.49 140.38C170.6 137.08 211.76 110.74 215.79 114.22L225.35 144.28L225.36 144.27ZM94.93 97.13C92.14 94.91 86.07 95.23 82.62 95.79C68.73 98.05 74.08 109.44 85.84 107.8C86.84 101.71 76.82 107 77.93 99.89L93.77 99.92L92.19 103.04H96.95C97.65 102.41 95.87 97.87 94.94 97.14L94.93 97.13ZM82.67 112.58L60.49 109.4C58.9 113.51 68.56 113.69 70.99 113.95C73.42 114.21 81.64 115.63 82.67 112.58ZM173.05 214.04C168.09 204.56 171.15 203.3 169.86 194.24C168.15 182.26 164.55 156.83 158.24 147.19C151.93 137.55 127.32 128.77 115.98 125.24L116.74 242.6C119.01 245.45 119.14 243.17 120.35 241.41C125.46 233.95 127.28 225.67 139.29 229.53C155.6 234.76 161.32 250.5 161.13 266.39C165.25 268.46 178.4 278.47 182.41 275.73C185.8 261.3 186.54 242.81 181.27 228.81C179.31 223.6 175.65 219 173.05 214.04C173.2 214.26 176.1 214.3 177.82 216.34C190.13 231.02 188.05 249.91 187.34 267.18C187.24 269.56 186.25 271.76 189.69 271.1L243.67 226.77C245.9 219.22 240.89 229.8 235.56 225.28C231.54 221.23 233.4 215.6 235.04 211.01C237.68 210.34 241.24 210.82 242.99 213.08C245.1 215.82 242.98 220.21 245.98 220.36C246.98 209.72 245.29 198.81 239.4 189.71C237.27 186.42 232.03 183.05 230.96 180.71C229.41 177.31 231.66 172.03 228.57 171.23C230.98 181.49 220.59 187.59 213.2 193.13C209.34 196.02 196.94 205.19 193.58 206.86C192.37 207.46 178.86 209.44 177.72 208.61L168.32 163.3C168.05 170.56 170.72 177.6 171.46 184.71C171.91 189.11 172.26 212.8 173.06 214.02L173.05 214.04ZM13.42 170.63C12.49 170.05 13.44 167.54 12.13 168.06C1.36998 183.22 28.71 187.58 38.65 192.26C63.91 204.15 87.97 218.88 114.38 228.29L110.29 215.75C79.3 200.45 42.59 188.8 13.41 170.63H13.42ZM112.8 175.99C107.09 178.62 103.46 181.46 96.99 183.17C83.32 186.79 68.09 184.98 55.35 178.73C51.28 176.73 43.13 168.56 42.03 168.36C39.83 167.95 36.68 170.48 34.03 170.64C31.38 170.8 19.29 168.86 19.23 170.44L112.79 214.04V175.99H112.8ZM31.17 196.61C26.33 197.62 29.41 208.66 34.29 207.69C39.17 206.72 35.32 195.74 31.17 196.61ZM70.81 215.63C65.97 216.64 69.05 227.68 73.93 226.71C78.81 225.74 74.96 214.76 70.81 215.63ZM140.9 249.36C140.52 248.9 136.79 247.19 136.6 247.34C133.89 253.64 135.19 258.76 142.91 258.43C142.98 255.4 142.96 251.85 140.89 249.36H140.9Z" fill="black"/>
<path d="M101.27 54.22C104.35 53.59 107.63 53.06 109.36 56.22C107.18 60.01 107.91 69.39 102.47 69.87C94.15 70.6 91.43 56.25 101.27 54.22Z" fill="black"/>
<path d="M65.23 74.4899C22.9 81.4799 16.41 114.39 61.98 124.53C79.14 128.35 95.71 126.48 112.79 123.67C109.87 139.56 112.56 155.71 112.55 171.76C100.71 182.65 75.45 183.59 60.95 177.88C54.4 175.31 42.65 169.7 47.78 161.71C29.58 172.82 11.74 166.94 5.43002 146.2C-0.479982 126.8 6.49002 115.4 27.19 115.71C18.9 97.7699 30.32 83.31 46.74 75.82C51.71 73.55 61.93 67.8099 65.24 74.4899H65.23ZM28.76 120.5C8.86002 121.23 7.02002 137.72 11.34 153.78L14.11 132C16.58 126.41 20.56 126.05 25.26 124.05C27.57 123.07 29.59 125.04 28.75 120.49L28.76 120.5ZM27.19 130.02L36.67 129.21C28.77 122.33 16.92 127.5 14.88 137.5C10.85 157.25 29.74 175.55 44.63 156.97L38.31 158.55L27.2 130.02H27.19ZM79.51 133.16C78.87 130.01 76.26 130.46 73.94 130.02C66.45 128.59 58.51 128.07 50.97 126.84C50.18 131.49 52.09 129.4 54.66 130.19C62.79 132.71 70.96 133.85 79.5 133.15L79.51 133.16Z" fill="#00C66C"/>
<path d="M173.05 214.04C175.65 219 179.31 223.6 181.27 228.81C186.55 242.81 185.8 261.31 182.41 275.73C178.4 278.46 165.25 268.45 161.13 266.39C161.33 250.5 155.6 234.76 139.29 229.53C127.27 225.68 125.46 233.96 120.35 241.41C119.14 243.18 119.01 245.45 116.74 242.6L115.98 125.24C127.32 128.77 151.7 137.2 158.24 147.19C164.78 157.18 168.15 182.26 169.86 194.24C171.15 203.29 168.09 204.55 173.05 214.04C172.24 212.81 171.9 189.13 171.45 184.73C170.72 177.62 168.05 170.58 168.31 163.32L177.71 208.63C178.85 209.46 192.35 207.48 193.57 206.88C196.94 205.21 209.34 196.04 213.19 193.15C220.58 187.61 230.97 181.51 228.56 171.25C231.65 172.05 229.4 177.33 230.95 180.73C232.01 183.07 237.26 186.44 239.39 189.73C245.28 198.83 246.97 209.74 245.97 220.38C242.96 220.23 245.08 215.84 242.98 213.1C241.24 210.83 237.67 210.35 235.03 211.03C233.39 215.62 231.54 221.25 235.55 225.3C240.89 229.82 245.9 219.24 243.66 226.79L189.68 271.12C186.25 271.78 187.24 269.58 187.33 267.2C188.04 249.93 190.12 231.03 177.81 216.36C176.1 214.32 173.19 214.28 173.04 214.06L173.05 214.04ZM119.15 133.18V201.36L144.27 212.7C141.58 227.61 154.81 231.25 164.34 221.98C163.94 188.48 166.51 130.77 119.16 133.18H119.15ZM223.79 207.71C218.98 207.59 214.42 211.63 210.61 214.33C207.61 216.45 201.76 219.48 201.61 223.54C205.51 222.05 210.78 218.71 214.15 216.28C217.52 213.85 221.72 211.17 223.8 207.71H223.79ZM225.38 214.05C220.57 213.93 216.01 217.97 212.2 220.67C209.2 222.79 203.35 225.82 203.2 229.88C207.1 228.39 212.37 225.05 215.74 222.62C219.11 220.19 223.31 217.51 225.39 214.05H225.38ZM206.36 248.91C207.92 250.01 210.47 248.16 211.94 247.37C213.7 246.43 231.89 232.55 232.59 231.45C234.33 228.68 231.82 226.19 231.7 223.55C227.69 227.27 198.67 243.48 206.36 248.91ZM201.45 244.31C190.81 242.44 189.06 254.02 196.25 259.91C205.02 259.96 204.11 250.56 201.45 244.31Z" fill="white"/>
<path d="M225.36 144.27L215.8 114.21C211.77 110.73 170.61 137.07 163.5 140.37L163.53 149.02C160.64 148.06 160.2 143.68 157.84 141.26C150.01 133.24 133.36 128.45 123.06 123.72C121.49 123 119.34 122.76 119.16 120.5L179.81 92.22C185 92.87 210.78 104.73 214.33 108.55C220.64 115.32 223.81 135 225.37 144.26L225.36 144.27Z" fill="white"/>
<path d="M112.8 175.99V214.04L19.24 170.44C19.3 168.87 31.4 170.81 34.04 170.64C36.68 170.47 39.83 167.95 42.04 168.36C43.14 168.56 51.28 176.73 55.36 178.73C68.1 184.98 83.33 186.79 97 183.17C103.46 181.46 107.1 178.61 112.81 175.99H112.8Z" fill="white"/>
<path d="M13.42 170.63C42.6 188.8 79.31 200.45 110.3 215.75L114.39 228.29C87.98 218.88 63.91 204.15 38.66 192.26C28.71 187.58 1.37997 183.22 12.14 168.06C13.45 167.53 12.5 170.05 13.43 170.63H13.42Z" fill="white"/>
<path d="M141.36 107.81C145.14 97.71 140.95 89.98 132.36 84.29C127.73 81.23 112.81 78.7 119.98 72.92C133.58 78.72 148.78 84.99 149 102.12L141.36 107.8V107.81Z" fill="#00C66C"/>
<path d="M85.86 68.18L84.92 73.07C79.52 74.56 71.37 76.62 66.84 72.11C65.89 68.88 72.42 68.9 74.41 68.63C78.25 68.12 82.01 67.95 85.86 68.18Z" fill="#00C66C"/>
<path d="M27.19 130.02L38.3 158.55L44.62 156.97C29.73 175.54 10.84 157.24 14.87 137.5C16.91 127.5 28.76 122.33 36.66 129.21L27.18 130.02H27.19ZM31.83 153.62C29.92 150.07 26.04 130.66 21.66 131.6C14.83 133.06 17.02 153.43 23.44 156.88L31.83 153.62Z" fill="black"/>
<path d="M28.76 120.5C29.6 125.05 27.58 123.08 25.27 124.06C20.57 126.05 16.59 126.42 14.12 132.01L11.35 153.79C7.02003 137.73 8.87003 121.24 28.77 120.51L28.76 120.5Z" fill="black"/>
<path d="M79.51 133.16C70.97 133.86 62.8 132.71 54.67 130.2C52.1 129.41 50.19 131.49 50.98 126.85C58.51 128.08 66.46 128.6 73.95 130.03C76.26 130.47 78.87 130.03 79.52 133.17L79.51 133.16Z" fill="black"/>
<path d="M119.15 133.18C166.5 130.77 163.93 188.48 164.33 221.98C154.81 231.25 141.58 227.62 144.26 212.7L119.14 201.36V133.18H119.15ZM161.88 221.89L161.17 209.29C156.48 212.09 152.01 215.37 150.81 221.12C150.72 223.65 160.26 222.12 161.88 221.89Z" fill="black"/>
<path d="M206.36 248.91C198.67 243.48 227.69 227.27 231.7 223.55C231.82 226.18 234.33 228.67 232.59 231.45C231.9 232.55 213.7 246.44 211.94 247.37C210.47 248.15 207.92 250.01 206.36 248.91Z" fill="black"/>
<path d="M201.45 244.31C204.11 250.56 205.02 259.96 196.25 259.91C189.06 254.02 190.81 242.44 201.45 244.31Z" fill="black"/>
<path d="M223.79 207.71C221.71 211.16 217.41 213.91 214.14 216.28C210.87 218.65 205.5 222.05 201.6 223.54C201.75 219.48 207.61 216.45 210.6 214.33C214.41 211.63 218.98 207.59 223.78 207.71H223.79Z" fill="black"/>
<path d="M225.38 214.05C223.3 217.5 219 220.25 215.73 222.62C212.46 224.99 207.09 228.39 203.19 229.88C203.34 225.82 209.2 222.79 212.19 220.67C216 217.97 220.57 213.93 225.37 214.05H225.38Z" fill="black"/>
<path d="M161.88 221.89C160.26 222.12 150.72 223.64 150.81 221.12C152.01 215.37 156.48 212.1 161.17 209.29L161.88 221.89Z" fill="white"/>
</g>
<defs>
<clipPath id="clip0_16_391">
<rect width="249.02" height="279.17" fill="white"/>
</clipPath>
</defs>
</svg>
