<svg width="38" height="38" viewBox="0 0 38 38" fill="none" xmlns="http://www.w3.org/2000/svg">
<path d="M2.05127 21.3747C2.05136 19.042 3.02072 16.8199 4.7216 15.1929C6.13112 13.8446 7.94793 12.9963 9.88135 12.746C10.6381 10.7084 12.12 8.97558 14.0662 7.81273C15.208 7.13055 16.4802 6.66163 17.8096 6.42732C19.1392 6.19301 20.5063 6.19667 21.8344 6.43814C23.1624 6.67961 24.4318 7.15519 25.5693 7.84366C26.7071 8.53229 27.6946 9.42256 28.4677 10.4707C29.2413 11.5194 29.7841 12.7052 30.0573 13.9605C30.192 14.5799 30.2585 15.2084 30.2583 15.8369C32.0846 15.8816 33.827 16.6255 35.1219 17.9204C36.4579 19.2565 37.2085 21.0686 37.2085 22.958C37.2085 24.8476 36.458 26.6602 35.1219 27.9964C33.7857 29.3325 31.9732 30.083 30.0835 30.083H28.5002C27.6258 30.083 26.9169 29.3741 26.9169 28.4997C26.917 27.6254 27.6259 26.9163 28.5002 26.9163H30.0835C31.1332 26.9163 32.1399 26.4996 32.8822 25.7574C33.6245 25.0151 34.0419 24.0078 34.0419 22.958C34.0418 21.9083 33.6245 20.9016 32.8822 20.1593C32.1399 19.4171 31.1333 18.9997 30.0835 18.9997H28.5002C28.0194 18.9997 27.5645 18.7813 27.264 18.4059C26.9636 18.0305 26.8502 17.5391 26.9555 17.07C27.1361 16.2656 27.1384 15.4383 26.9633 14.6331C26.788 13.8277 26.4364 13.0516 25.9196 12.3509C25.4022 11.6495 24.728 11.0359 23.9296 10.5526C23.131 10.0694 22.2267 9.72814 21.2677 9.55378C20.3087 9.37941 19.3196 9.37681 18.3593 9.54605C17.3991 9.71528 16.4925 10.0518 15.6905 10.531C14.0697 11.4994 12.9922 12.9753 12.6282 14.5968C12.4659 15.3196 11.8243 15.833 11.0835 15.833C9.50577 15.833 8.0062 16.4338 6.91105 17.4813C5.81837 18.5264 5.21802 19.9283 5.21794 21.3747C5.21794 22.8211 5.8183 24.2236 6.91105 25.2688C8.00619 26.3163 9.5058 26.9163 11.0835 26.9163C11.9579 26.9164 12.6667 27.6254 12.6669 28.4997C12.6669 29.3741 11.958 30.083 11.0835 30.083C8.7102 30.083 6.42032 29.1821 4.7216 27.5572C3.0206 25.9301 2.05127 23.7075 2.05127 21.3747Z" fill="#001535"/>
<path d="M17.4169 33.2501V22.8223L15.3697 24.8695C14.7513 25.4878 13.7491 25.4878 13.1307 24.8695C12.5124 24.2512 12.5124 23.2489 13.1307 22.6306L17.8807 17.8806L18.0006 17.7716C18.6225 17.2643 19.54 17.3009 20.1197 17.8806L24.8697 22.6306C25.488 23.2489 25.488 24.2512 24.8697 24.8695C24.2513 25.4878 23.2491 25.4878 22.6307 24.8695L20.5835 22.8223V33.2501C20.5835 34.1245 19.8747 34.8334 19.0002 34.8334C18.1258 34.8334 17.4169 34.1245 17.4169 33.2501Z" fill="#001535"/>
</svg>
