<svg width="278" height="262" viewBox="0 0 278 262" fill="none" xmlns="http://www.w3.org/2000/svg">
<g clip-path="url(#clip0_16_376)">
<path d="M277.74 197.47C277.33 196.51 266.14 183.1 264.51 181.36C258.88 175.35 249.74 169.14 243.62 163.4C237.66 157.8 223.63 139.8 216.74 139.73C210.01 139.67 207.89 147.09 200.94 136.32C192.46 123.2 195.58 103.94 193.57 89.78C191.19 73.08 177.06 81.8 176.29 80.9C174.28 73.95 181.76 52.37 174.71 48.39C172.26 47 157.42 44.31 154.49 45.62C149.4 47.89 149.64 54.43 142.48 54.09L131.9 68.22C131.18 60.12 129.66 46.63 120.85 43.59C117.48 42.42 106.33 40.82 102.91 41.56C100.44 42.1 85.45 51.67 83.48 53.91C77.45 60.82 77.49 69.04 76.38 77.73C73.69 78.02 74.99 74.1199 72.25 73.1299C65.75 70.7899 62.13 76.22 60.45 81.61C56.36 94.72 55.6 116.91 52.11 131.94C50.58 138.55 47.5 154.12 44.51 159.23C42.66 162.4 37.59 164.32 35.09 168.94C33.66 171.58 34.83 173.61 33.73 175.31C30.76 179.86 13.62 191.65 8.56999 196.16C6.40999 198.1 6.03999 197.46 6.64999 201.41C14.83 199.25 33.67 176.89 39.12 176.02C42.54 175.47 41.59 181.85 43.95 185.5C47.64 191.21 56.36 193.66 62.92 193.61C68.53 193.58 73.84 190.07 76.83 190.54C78.13 190.75 90.99 198.97 91.52 199.8C92.9 201.49 92.29 202.84 91.49 204.57C90.94 205.75 76.98 222.13 74.85 224.44C69.62 230.13 62.92 234.43 58.11 239.41C56.95 240.61 54.1 242.77 56.56 244.21C64.56 238.58 72.15 232.42 78.79 225.22C90.61 212.42 103.65 195.81 112.18 180.91L135.63 160.3C141.09 166.64 149 170.37 154.92 176C156.63 177.62 165.53 187.61 166.04 188.77C167.38 191.89 163.52 196.51 163.53 200.64C163.56 209.29 185.39 225.75 190.53 233.93L227.01 261.65L171.52 207.77C185.05 210.24 198.16 192.38 205.49 182.26C212.54 172.52 222.07 158.22 220.68 145.92L274.56 199.06C276.13 200.87 278.84 200.03 277.74 197.47ZM150.11 55.53C153.22 49.36 156.22 46.55 163.6 47.63C149.48 60.67 153.15 80.84 152.4 98.26L143 99.93C145.19 85.26 143.24 69.1399 150.11 55.53ZM133.43 103.59C136.82 89.35 127.76 65.35 146.14 55.54C140.44 70.95 140.35 87.34 141.12 103.56L128.73 115.79C129.6 112.83 129.6 108.53 130.43 105.91C130.88 104.49 133.16 104.7 133.43 103.59ZM58.45 117.67C59.74 110.48 62.18 74.61 69.26 74.6C72.88 77.23 74.85 83.33 74.46 87.68C74.44 87.92 74.4 88.17 74.33 88.43C73.55 92.02 69.66 97.98 71.21 101.3C71.56 102.06 72.19 102.67 73.2 103.1C77.93 90.34 78.77 75.35 82.66 62.6C84.41 56.85 87.18 51.58 93.83 50.79C93.51 52.23 93.2 53.68 92.9 55.13C89.62 70.86 87.59 86.81 84.62 102.64C84.3 104.33 84.4 104.77 84.99 104.83C85.47 104.88 86.29 104.67 87.48 104.7C93.75 89.76 90.98 66.31 96.31 52.47C98.76 46.09 104.69 43.52 111.27 44.46C110.75 45.79 110.3 47.14 109.9 48.51C104.47 66.8 108.13 88.11 100.18 106.26C100.82 106.37 101.33 106.44 101.73 106.45C103.9 106.54 103.21 105.26 104.06 103.11C110.69 86.49 107.93 67.93 111.62 51.92C113.07 45.61 117.37 44.24 122.3 48.49C127.75 53.18 129.68 66.79 129.47 81.38C129.24 98.2599 126.16 116.47 122.38 123.71C123.07 123.89 123.62 123.91 124.07 123.81C125.41 123.53 125.96 122.28 127.14 121.35C132.84 116.92 157.91 85.97 158.99 108.63C159.03 109.57 159 110.54 158.9 111.55C156.81 132.46 124.5 167.73 108.87 178.93C106.31 177.62 105.79 174.62 103.69 172.86C97.82 167.92 81.67 155.56 75.4 152.46C66.65 148.13 60.04 147.95 51.83 153.82C51.82 153.82 51.82 153.83 51.81 153.83C49.85 154.46 57.93 120.6 58.45 117.67ZM51.5 157.18C54.15 154.86 57.6 153.16 61.75 152.55C69.48 151.42 74.63 153.83 77.41 157.75C83.86 166.82 77.6 184 61.35 184.11C42.79 184.24 41.25 166.11 51.5 157.18ZM49.45 187.12L64.11 186.78C70.64 185.04 79.55 181.27 81.87 174.38C83.17 170.51 81.37 164.91 84.3 163.37C87.56 182.97 66.62 196.12 49.45 187.12ZM184.98 201.43L138.47 157.58C145.87 142.1 163.68 125.63 162.08 107.09C161.35 98.6899 155.5 99.1 154.9 95.44C154.37 92.28 155.42 76.56 155.88 72.4C156.58 65.95 158.13 53.79 165.09 51.48C180.38 46.38 173.43 64.99 172.96 73.77C172.8 76.97 174.82 80.22 174.64 83.21C174.54 84.89 166.92 111.15 165.69 115.51C162.99 125.06 155.84 134.55 157.26 145.91C161.37 146.25 159.91 146.16 160.38 143.53C162.59 131.25 166.09 127.06 168.86 117.09C170.69 110.51 173.48 78.6399 186.39 82.59C191.78 84.24 191.04 114.4 192.29 121.19C195.69 139.68 203.57 145.07 217.36 156.18C209.02 172.97 196.41 186.82 184.98 201.43Z" fill="black"/>
<path d="M117.6 33.34L106.57 19.82L87.49 3.24003C92.45 3.05003 97.38 8.02003 101.01 11.11C107.09 16.29 116.58 25.14 117.6 33.34Z" fill="black"/>
<path d="M58.95 60.29L35.12 46.81C33.39 47.23 30.14 44.42 32 42.87C33.86 41.32 57.52 55.21 58.94 60.29H58.95Z" fill="black"/>
<path d="M242.87 53.97C233.14 61.45 219.64 64.78 208 68.21C208.06 65.86 212.46 65.21 214.42 64.35C223.56 60.32 233.36 57.01 242.87 53.97Z" fill="black"/>
<path d="M176.3 33.3499C174.72 31.6499 180.43 26.6899 181.79 25.3799C187.27 20.1199 194.53 15.1299 200.05 9.56995C202.76 12.3999 178.67 31.3799 176.3 33.3499Z" fill="black"/>
<path d="M25.65 104.71L0.300013 125.31C-1.38999 123.5 4.49001 118.71 5.88001 117.43C10.97 112.76 19.19 107.4 25.65 104.71Z" fill="black"/>
<path d="M158.9 111.55C156.81 132.46 124.5 167.73 108.87 178.93C106.31 177.62 105.79 174.62 103.69 172.86C97.82 167.92 81.67 155.56 75.4 152.46C66.65 148.13 60.04 147.95 51.83 153.82C53.15 144.78 58.05 124.12 58.45 121.86C59.74 114.67 62.18 78.8 69.26 78.79C72 80.78 73.79 84.74 74.33 88.43C73.55 92.02 69.66 97.98 71.21 101.3C70.52 103.9 70.65 106.21 73.2 107.29C77.93 94.53 78.77 79.54 82.66 66.79C84.33 61.32 86.92 56.28 92.9 55.13C89.62 70.86 87.59 86.81 84.62 102.64C84.3 104.33 84.4 104.77 84.99 104.83C84.87 105.5 84.74 106.16 84.62 106.83C84.04 109.91 84.84 108.83 87.48 108.88C93.75 93.95 90.98 70.5 96.31 56.66C98.59 50.72 103.88 48.09 109.9 48.51C104.47 66.8 108.13 88.11 100.18 106.26C100.82 106.37 101.33 106.44 101.73 106.45C101.27 107.8 100.76 109.13 100.18 110.45C104.21 111.17 103.05 109.85 104.06 107.3C110.69 90.67 107.93 72.12 111.62 56.11C113.07 49.79 117.37 48.43 122.3 52.68C127.22 56.91 129.27 68.43 129.47 81.38C129.24 98.26 126.16 116.47 122.38 123.71C123.07 123.89 123.62 123.91 124.07 123.81C123.53 125.4 122.96 126.78 122.38 127.9C125.12 128.61 125.55 126.78 127.14 125.54C132.73 121.2 156.94 91.36 158.9 111.55Z" fill="#FFFFF3"/>
<path d="M157.26 145.91C161.37 146.26 159.9 146.16 160.38 143.53C162.59 131.25 166.09 127.06 168.86 117.09C170.69 110.51 173.47 78.6301 186.39 82.5801C191.78 84.2301 191.03 114.39 192.28 121.18C195.68 139.67 203.56 145.06 217.36 156.17C209.02 172.96 196.41 186.81 184.98 201.43L138.47 157.58C145.86 142.1 163.68 125.63 162.08 107.09C161.35 98.6901 155.5 99.1001 154.9 95.4401C154.37 92.2801 155.42 76.5601 155.88 72.4001C156.59 65.9501 158.13 53.8001 165.09 51.4801C180.39 46.3901 173.43 64.9901 172.97 73.7701C172.8 76.9701 174.83 80.2201 174.64 83.2101C174.54 84.8901 166.93 111.15 165.69 115.51C162.99 125.07 155.84 134.55 157.26 145.91Z" fill="#FFFFF3"/>
<path d="M61.75 152.56C87.41 148.82 84.62 183.95 61.35 184.11C38.08 184.27 41.6 155.5 61.75 152.56Z" fill="#FF6B38"/>
<path d="M163.6 47.63C149.48 60.67 153.16 80.84 152.41 98.26L143 99.93C145.19 85.25 143.25 69.14 150.11 55.53C153.22 49.36 156.22 46.55 163.6 47.63Z" fill="#FFFFF3"/>
<path d="M128.73 115.79C129.6 112.83 129.6 108.53 130.43 105.91C130.88 104.49 133.16 104.7 133.43 103.59C136.82 89.35 127.77 65.35 146.14 55.54C140.43 70.94 140.35 87.34 141.12 103.56L128.73 115.79Z" fill="#FFFFF3"/>
<path d="M49.45 187.12L64.11 186.78C70.63 185.04 79.55 181.27 81.86 174.39C83.16 170.52 81.37 164.92 84.3 163.37C87.55 182.98 66.62 196.12 49.45 187.13V187.12Z" fill="#FF6B38"/>
<path d="M146.84 25.98C147.65 17.45 145.61 9.04 143.55 0.830002L141.95 2.06C147.9 6.47 152.8 12.16 156.35 18.66L157 17.06C153.15 18.33 149.12 18.29 145.16 17.57C143.2 17.22 141.26 16.72 139.34 16.16C138.38 15.88 137.43 15.59 136.48 15.29C136.32 15.24 135.03 14.73 134.96 14.8L135.01 15.43C135.24 15.3 135.49 15.2 135.75 15.14C139.19 13.92 142.39 12.35 145.28 10.09C147.84 8.1 150.37 5.21 153.8 4.94L152.75 3.56C150.94 11.08 148.18 18.48 144.8 25.43C144.19 26.68 146.06 27.79 146.68 26.53C150.14 19.41 153 11.85 154.85 4.14C155 3.5 154.53 2.71 153.8 2.76C149.58 3.1 146.81 6.23 143.62 8.64C141.8 10.01 139.8 11.18 137.71 12.09C136.65 12.55 135.52 12.84 134.46 13.28C133.79 13.56 133.14 14 132.93 14.73C132.36 16.75 135.25 17.18 136.55 17.58C138.9 18.31 141.26 19 143.67 19.48C148.28 20.42 153.04 20.63 157.56 19.14C158.24 18.92 158.56 18.18 158.21 17.54C154.47 10.7 149.29 4.8 143.03 0.160002C142.23 -0.439998 141.22 0.550002 141.43 1.39C143.45 9.43 145.44 17.61 144.64 25.96C144.51 27.35 146.68 27.34 146.81 25.96L146.84 25.98Z" fill="black"/>
<path d="M232.02 108.68C237.46 115.29 244.86 119.78 252.12 124.13L252.38 122.14C245.06 123.22 237.58 122.66 230.49 120.58L231.14 122.18C234.44 115.59 241.13 111.89 247.42 108.65C247.62 108.55 247.83 108.44 248.03 108.34C248.51 108.21 248.44 108.05 247.82 107.86C247.69 107.89 247.26 109.02 247.19 109.18C246.75 110.1 246.35 111.04 245.99 112C245.3 113.87 244.8 115.8 244.49 117.77C243.95 121.27 244.41 125.62 241.96 128.49L243.67 128.71C239.63 122.12 236.36 114.93 233.83 107.62C233.38 106.31 231.28 106.87 231.73 108.2C234.31 115.68 237.65 123.05 241.79 129.81C242.13 130.37 243.03 130.58 243.5 130.03C245.69 127.47 246.02 124.2 246.3 120.96C246.65 117.05 247.54 113.27 249.32 109.74C249.87 108.66 250.61 106.85 249.1 106.14C247.79 105.52 246.05 106.9 244.94 107.49C241.96 109.06 239.03 110.74 236.36 112.8C233.44 115.05 230.91 117.77 229.25 121.09C228.93 121.72 229.19 122.48 229.9 122.69C237.39 124.89 245.23 125.39 252.95 124.25C253.92 124.11 253.94 122.7 253.21 122.26C246.1 118 238.88 113.63 233.55 107.15C232.66 106.07 231.13 107.61 232.01 108.69L232.02 108.68Z" fill="black"/>
</g>
<defs>
<clipPath id="clip0_16_376">
<rect width="277.99" height="261.65" fill="white"/>
</clipPath>
</defs>
</svg>
