<svg width="664" height="676" viewBox="0 0 664 676" fill="none" xmlns="http://www.w3.org/2000/svg">
<path d="M184.813 193.667C184.813 193.667 255.08 76.6728 395.538 122.458C535.773 168.251 502.635 342.086 502.545 342.542C503.158 339.358 527.453 336.323 530.024 335.949C601.689 325.357 654.994 392.013 660.279 457.705C666.842 539.184 603.819 596.893 532.043 621.74" stroke="#CCDDE2" stroke-width="5.5" stroke-miterlimit="10"/>
<path d="M522.788 659.969C520.665 667.436 519.125 671.705 519.125 671.705H518.019C519.768 667.897 521.358 663.985 522.788 659.969Z" fill="#353642"/>
<path d="M327.26 365.232C327.26 365.232 324.733 380.571 322.117 394.46C314.642 394.542 307.167 394.602 299.774 394.662C296.036 373.626 300.095 357.151 304.917 346.17C310.994 360.029 320.173 364.245 327.26 365.232Z" fill="#1A69FF"/>
<path d="M450.122 420.578C434.923 412.394 418.722 406.225 401.93 402.227L396.428 401.277C396.428 401.277 392.331 391.963 392.309 391.933C390.388 387.052 387.203 380.571 386.217 375.428C385.015 369.353 384.722 363.133 385.35 356.972C386.426 347.822 390.687 328.469 398.386 322.369C404.807 317.316 407.454 318.377 411.094 310.476C413.71 304.84 414.772 295.369 409.689 291.213C404.052 286.653 401.645 288.97 394.903 289.673C369.278 292.214 354.634 273.773 345.215 252.461C343.72 249 342.165 245.345 339.721 242.4C336.918 239.006 333.038 238.244 329.861 235.5C328.508 234.319 327.581 232.39 328.232 230.716C328.615 229.915 329.172 229.211 329.861 228.653C335.865 223.122 343.075 219.065 350.919 216.805C363.326 213.217 376.436 212.808 389.042 215.616C402.199 219.974 414.024 228.227 421.985 240.837C432.966 258.262 435.613 276.337 429.461 294.352C423.159 312.801 416.125 334.471 427.966 352.225C443.731 375.809 453.232 392.397 450.122 420.578Z" fill="#1A69FF"/>
<path d="M322.147 394.458C314.672 394.54 307.197 394.6 299.804 394.659C243.471 394.951 189.552 394.166 133.04 404.302" stroke="black" stroke-width="5.5" stroke-miterlimit="10"/>
<path d="M395.538 400.73C397.684 401.201 399.807 401.694 401.93 402.225C410.205 404.225 418.353 406.721 426.329 409.7C434.512 412.745 442.463 416.377 450.122 420.569C450.13 420.562 450.141 420.558 450.152 420.558C450.163 420.558 450.174 420.562 450.182 420.569C462.231 427.098 473.368 435.186 483.304 444.624C491.612 452.719 498.795 461.893 504.661 471.901C504.712 471.939 504.751 471.991 504.773 472.051C509.531 480.039 513.663 488.383 517.129 497.01C527.475 522.493 533.343 551.833 534.24 581.031C535.055 608.607 531.422 636.064 522.826 659.969C521.396 663.986 519.806 667.898 518.056 671.705C517.944 671.997 517.795 672.258 517.683 672.55" stroke="black" stroke-width="5.5" stroke-miterlimit="10"/>
<path d="M428.018 672.176C428.018 672.176 428.018 672.116 428.018 672.086C428.066 671.962 428.103 671.835 428.13 671.705" stroke="black" stroke-width="5.5" stroke-miterlimit="10"/>
<path d="M408.291 504.074C408.291 504.074 424.557 511.976 435.246 536.644C440.621 549.045 444.605 565.722 444.374 587.774C444.374 587.774 444.374 587.774 444.374 587.834C444.254 601.895 442.4 618.131 438.094 636.841V636.946" stroke="black" stroke-width="5.5" stroke-miterlimit="10"/>
<path d="M100.456 190.91C103.326 180.049 107.931 168.851 111.392 164.141C116.834 156.816 123.935 149.834 133.07 150.462C138.938 150.843 144.701 154.087 144.963 160.516C145.209 167.49 137.854 175.234 135.492 181.79C133.249 188.114 132.225 195.477 133.406 202.13C134.587 208.783 140.56 213.978 147.004 215.406C149.448 216.05 152.047 215.698 154.232 214.427C160.541 210.435 159.218 199.805 158.964 193.534C158.665 186.5 158.672 178.546 164.675 173.732C169.085 170.196 175.775 172.543 179.027 176.431C184.678 183.158 184.955 193.287 185.239 201.57C186.084 226.522 181.651 250.442 167.119 271.448C159.644 282.294 151.945 292.027 148.917 305.332C139.498 346.685 138.452 375.352 133.04 417.348" stroke="black" stroke-width="5.5" stroke-miterlimit="10"/>
<path d="M247.141 672.826C218.257 590.734 231.936 501.047 231.936 501.047L76.7817 505.966C70.1759 506.175 63.6014 504.965 57.5024 502.419C51.4034 499.873 45.9212 496.049 41.4241 491.206C36.9278 486.362 33.5213 480.61 31.4349 474.34C29.3485 468.068 28.6305 461.422 29.3292 454.85L67.333 316.26L75.5557 286.696C78.178 277.393 77.577 267.477 73.8514 258.56L69.9793 249.32C69.9793 249.32 62.9601 235.005 78.6953 236.351C87.1572 237.098 95.5518 240.694 102.653 245.209C108.23 248.76 116.737 255.629 114.105 263.246C110.996 272.217 98.8036 274.459 91.6423 269.413" stroke="black" stroke-width="5.5" stroke-miterlimit="10"/>
<path d="M73.4627 236.277C73.4627 236.277 60.1719 206.376 96.6358 214.113C133.1 221.85 141.831 261.692 114.001 257.207" stroke="black" stroke-width="5.5" stroke-miterlimit="10"/>
<path d="M85.4828 212.4C85.4828 212.4 73.8215 198.235 91.2537 191.47C108.686 184.705 171.986 216.654 131.38 248.124" stroke="black" stroke-width="5.5" stroke-miterlimit="10"/>
<path d="M337.725 364.557C334.341 365.485 330.803 365.715 327.327 365.23C320.211 364.243 311.031 359.997 304.984 346.168C303.728 343.342 302.708 340.416 301.934 337.422C298.854 325.977 297.509 310.055 299.31 287.854C299.662 283.586 300.185 279.25 300.91 274.922C302.11 267.393 304.046 259.999 306.688 252.848C306.688 252.848 306.688 252.788 306.748 252.758C313.341 235.326 324.935 220.615 344.43 214.956C359.05 210.739 374.594 210.963 389.087 215.599C402.243 219.957 414.069 228.21 422.03 240.82C433.011 258.245 435.658 276.32 429.505 294.335C423.204 312.784 416.17 334.454 428.01 352.208C443.753 375.829 453.254 392.417 450.204 420.598" stroke="black" stroke-width="5.5" stroke-miterlimit="10"/>
<path d="M293.823 395.534C288.097 368.078 295.827 348.059 301.897 337.422" stroke="black" stroke-width="5.5" stroke-miterlimit="10"/>
<path d="M300.91 274.893C300.91 274.893 313.446 261.789 327.97 282.488" stroke="black" stroke-width="5.5" stroke-miterlimit="10"/>
<path d="M332.829 340.875C338.129 344.306 345.305 342.175 349.207 336.89C353.445 331.157 355.142 323.502 356.062 316.558C356.122 316.057 356.189 315.564 356.234 315.063C349.768 325.222 337.217 327.659 326.169 328.72C326.587 332.043 327.823 335.209 329.764 337.937C330.595 339.098 331.634 340.094 332.829 340.875Z" stroke="black" stroke-width="5.5" stroke-linecap="round" stroke-linejoin="round"/>
<path d="M390.395 386.609L390.365 386.579" stroke="black" stroke-width="5.5" stroke-miterlimit="10"/>
<path d="M341.082 270.863C341.082 270.863 345.342 263.963 359.904 269.046C374.466 274.13 374.638 282.435 374.638 282.435" stroke="black" stroke-width="5.5" stroke-miterlimit="10"/>
<path d="M307.981 288.02C307.981 288.02 314.709 284.619 319.979 288.02" stroke="black" stroke-width="5.5" stroke-miterlimit="10"/>
<path d="M344.236 291.151C344.236 291.151 350.964 287.749 356.196 291.151" stroke="black" stroke-width="5.5" stroke-miterlimit="10"/>
<path d="M327.26 365.231C327.26 365.231 324.733 380.57 322.117 394.459C321.736 396.433 321.369 398.376 321.041 400.297C319.329 409.649 317.961 417.961 317.901 420.48C317.467 441.411 337.254 453.483 356.368 453.281C383.189 452.99 398.872 428.038 396.346 403.048C394.694 398.488 393.004 393.928 391.352 389.368C389.229 383.523 386.471 377.834 385.275 371.675C384.219 365.606 384.103 359.412 384.931 353.308C386.007 344.188 387.779 330.591 395.478 324.491C401.9 319.438 408.605 316.119 412.268 308.218C414.884 302.582 414.764 295.323 409.681 291.167C404.045 286.607 395.127 287.16 388.384 287.826C344.894 292.273 337.658 248.252 325.892 242.07C316.249 236.979 309.013 248.402 306.748 252.64L306.658 252.819C306.655 252.862 306.636 252.902 306.606 252.932C306.195 253.679 305.993 254.18 305.993 254.18" stroke="black" stroke-width="5.5" stroke-miterlimit="10"/>
<path d="M326.146 293.087C326.146 293.087 321.601 307.963 321.953 310.191C322.304 312.418 327.604 310.863 327.604 310.863" stroke="black" stroke-width="5.5" stroke-miterlimit="10"/>
<path d="M361.76 308.786C368.723 301.836 368.595 290.419 361.476 283.287C354.357 276.155 342.941 276.007 335.978 282.959C329.015 289.909 329.143 301.325 336.262 308.457C343.382 315.589 354.798 315.737 361.76 308.786Z" stroke="black" stroke-width="5.5" stroke-miterlimit="10"/>
<path d="M316.322 303.264C323.284 296.314 323.157 284.898 316.037 277.766C308.917 270.633 297.502 270.486 290.539 277.437C283.577 284.387 283.704 295.803 290.824 302.935C297.943 310.067 309.359 310.215 316.322 303.264Z" stroke="black" stroke-width="5.5" stroke-miterlimit="10"/>
<path d="M303.033 276.501C305.018 276.492 306.982 276.898 308.8 277.695C310.617 278.492 312.248 279.661 313.586 281.127C314.924 282.592 315.94 284.323 316.569 286.205C317.198 288.087 317.425 290.081 317.236 292.057C316.92 295.379 315.374 298.463 312.902 300.704C310.429 302.944 307.207 304.179 303.87 304.166C301.886 304.175 299.921 303.768 298.103 302.971C296.286 302.175 294.655 301.006 293.317 299.54C291.979 298.074 290.963 296.344 290.334 294.462C289.705 292.579 289.478 290.586 289.667 288.61C289.983 285.289 291.529 282.204 294.001 279.963C296.474 277.723 299.696 276.487 303.033 276.501ZM303.033 274.438C299.188 274.428 295.477 275.856 292.63 278.44C289.782 281.025 288.003 284.58 287.642 288.409C287.257 292.634 288.53 296.844 291.193 300.148C293.856 303.452 297.7 305.59 301.912 306.11C302.557 306.187 303.206 306.226 303.855 306.229C307.705 306.244 311.421 304.82 314.273 302.234C317.125 299.649 318.907 296.091 319.269 292.258C319.654 288.033 318.381 283.823 315.718 280.519C313.054 277.215 309.21 275.077 304.999 274.557C304.354 274.48 303.705 274.441 303.055 274.438H303.033Z" fill="white"/>
<path d="M330.915 293.676L321.377 292.518" stroke="black" stroke-width="5.5" stroke-miterlimit="10"/>
<path d="M360.298 307.322C366.472 301.158 366.36 291.037 360.048 284.714C353.736 278.391 343.615 278.262 337.441 284.425C331.267 290.588 331.379 300.71 337.691 307.032C344.003 313.355 354.124 313.485 360.298 307.322Z" fill="#FFC52A"/>
<path d="M314.864 301.802C321.041 295.636 320.929 285.51 314.614 279.184C308.3 272.859 298.173 272.73 291.997 278.895C285.82 285.061 285.932 295.187 292.246 301.513C298.561 307.839 308.687 307.968 314.864 301.802Z" fill="#FFC52A"/>
<path d="M157.678 42.0418C136 43.1481 118.06 60.5204 116.333 82.1386C115.818 88.1703 116.565 94.2432 118.526 99.9707C120.488 105.697 123.62 110.953 127.725 115.403C130.752 118.733 134.283 121.566 138.19 123.798C139.21 124.386 140.173 125.066 141.068 125.831C146.918 128.784 153.378 130.328 159.932 130.339C166.486 130.349 172.951 128.826 178.81 125.891C179.663 125.099 180.609 124.417 181.629 123.858C185.696 121.532 189.371 118.58 192.52 115.112C192.6 114.999 192.687 114.891 192.782 114.79C198.493 108.325 202.169 100.318 203.347 91.7719C204.526 83.227 203.155 74.5237 199.407 66.754C195.659 58.9843 189.7 52.4943 182.277 48.0982C174.855 43.702 166.301 41.5947 157.686 42.0418H157.678ZM184.813 110.522C184.73 110.584 184.662 110.663 184.611 110.754C182.171 113.421 179.328 115.692 176.187 117.481C175.405 117.91 174.681 118.437 174.034 119.051C169.516 121.312 164.532 122.49 159.48 122.49C154.427 122.49 149.443 121.312 144.925 119.051C144.226 118.454 143.475 117.919 142.683 117.451C136.645 113.978 131.83 108.723 128.896 102.405C125.964 96.088 125.057 89.018 126.302 82.1648C127.546 75.3115 130.88 69.0115 135.847 64.1279C140.813 59.2451 147.169 56.0174 154.042 54.8893C160.915 53.7613 167.969 54.7869 174.236 57.8263C180.504 60.8658 185.676 65.7695 189.046 71.8647C192.416 77.9607 193.818 84.9493 193.058 91.8735C192.299 98.7971 189.416 105.316 184.805 110.537L184.813 110.522Z" fill="#FFC52A"/>
<path d="M178.795 125.898C177.075 127.458 175.701 129.364 174.764 131.491C173.827 133.616 173.346 135.915 173.354 138.239V140.242C173.354 147.239 168.285 153.511 161.393 154.214C159.53 154.404 157.649 154.203 155.868 153.623C154.089 153.042 152.45 152.096 151.057 150.844C149.665 149.592 148.551 148.062 147.786 146.353C147.021 144.645 146.622 142.794 146.615 140.923V138.239C146.611 135.902 146.118 133.593 145.168 131.458C144.218 129.323 142.832 127.411 141.098 125.845C146.948 128.79 153.406 130.328 159.956 130.337C166.506 130.346 172.967 128.826 178.825 125.898H178.795Z" fill="#353642"/>
<path d="M178.795 125.898C177.075 127.458 175.701 129.364 174.764 131.491C173.827 133.616 173.346 135.915 173.354 138.239V140.242C173.354 147.239 168.285 153.511 161.393 154.214C159.53 154.404 157.649 154.203 155.868 153.623C154.088 153.042 152.45 152.096 151.057 150.844C149.665 149.592 148.551 148.062 147.786 146.353C147.021 144.645 146.622 142.794 146.615 140.923V138.239C146.611 135.902 146.118 133.593 145.168 131.458C144.218 129.323 142.832 127.411 141.098 125.845C146.948 128.79 153.406 130.328 159.956 130.337C166.506 130.346 172.967 128.826 178.825 125.898H178.795Z" stroke="black" stroke-width="5.5" stroke-miterlimit="10"/>
<path d="M203.755 85.7798C203.777 96.4753 199.866 106.806 192.767 114.806C192.678 114.902 192.595 115.005 192.52 115.112C189.366 118.587 185.682 121.541 181.606 123.866C180.593 124.432 179.651 125.114 178.795 125.899C172.937 128.828 166.476 130.348 159.926 130.339C153.376 130.33 146.919 128.791 141.068 125.847C140.175 125.07 139.208 124.382 138.183 123.791C130.963 119.64 125.074 113.519 121.204 106.145C117.335 98.7702 115.645 90.4465 116.333 82.1468C117.243 70.8668 122.486 60.3784 130.96 52.8793C139.436 45.3802 150.485 41.4542 161.791 41.9244C173.097 42.3939 183.783 47.2236 191.606 55.3992C199.43 63.5755 203.783 74.4631 203.755 85.7798Z" stroke="black" stroke-width="5.5" stroke-miterlimit="10"/>
<path d="M147.594 130.339L137.562 97.0897L135.051 87.671C135.051 87.3877 135.144 87.1126 135.316 86.8876C135.489 86.6633 135.73 86.5019 136.004 86.4286C136.277 86.3554 136.567 86.3741 136.829 86.4824C137.091 86.5908 137.309 86.7829 137.45 87.0281C139.693 90.99 143.236 95.961 146.764 95.8339C152.617 95.6246 147.811 77.8561 143.027 79.7174C138.243 81.5787 147.415 93.3222 156.863 94.7874C166.312 96.2525 163.725 80.3677 156.863 79.7398C150.001 79.1119 154.733 92.4925 167.067 94.7874C179.401 97.0822 177.099 83.4999 173.757 80.7864C170.416 78.0729 171.455 93.7408 179.199 96.2525C181.651 97.0524 183.602 95.3405 184.559 93.2101C185.112 91.9692 184.828 85.6901 183.692 87.6261C181.374 91.5955 180.918 96.5515 179.782 100.932C177.368 110.201 173.675 119.074 171.559 128.426" stroke="black" stroke-width="5.5" stroke-miterlimit="10"/>
<path d="M81.663 672.826C86.9554 670.344 575.025 672.826 575.025 672.826" stroke="black" stroke-width="5.5" stroke-miterlimit="10"/>
<path d="M159.936 26.3955L159.502 0.0604248" stroke="black" stroke-width="7.34" stroke-miterlimit="10"/>
<path d="M109.71 50.8916L91.4779 31.8825" stroke="black" stroke-width="7.34" stroke-miterlimit="10"/>
<path d="M210.348 52.0727L228.984 33.4593" stroke="black" stroke-width="7.34" stroke-miterlimit="10"/>
<path d="M489.726 636.9L490.361 636.96C490.017 637.02 489.613 637.079 489.262 637.162H488.724L438.109 636.9H432.391L347.353 636.466C347.032 636.466 346.71 636.466 346.389 636.466C346.313 636.481 346.234 636.481 346.157 636.466C346.157 636.466 346.157 636.466 346.105 636.466C345.57 636.472 345.034 636.433 344.505 636.354C349.053 635.84 353.363 634.049 356.936 631.189C357.497 630.718 358.073 630.269 358.596 629.761L358.656 629.701C358.778 629.603 358.893 629.495 359 629.38C363.322 625.106 365.91 619.384 366.265 613.316C366.265 613.024 366.265 612.703 366.265 612.411V611.948C366.239 606.283 364.264 600.799 360.672 596.419C357.08 592.038 352.089 589.027 346.538 587.893C346.53 587.885 346.52 587.881 346.509 587.881C346.497 587.881 346.487 587.885 346.479 587.893C345.926 587.751 345.29 587.661 344.707 587.571L345.955 587.489C346.16 587.474 346.364 587.474 346.568 587.489C346.912 587.489 347.234 587.489 347.555 587.489L419.399 587.863L432.623 587.923L444.359 587.982H449.823H450.488C450.578 587.982 450.63 587.982 450.72 587.982C456.779 588.593 462.397 591.428 466.487 595.941C470.576 600.453 472.848 606.322 472.862 612.411C472.861 613.57 472.773 614.727 472.6 615.872C471.752 621.563 468.939 626.778 464.646 630.61C460.354 634.441 454.855 636.649 449.105 636.848C448.844 636.848 448.582 636.848 448.358 636.848H491.041C490.421 636.87 490.017 636.87 489.726 636.9Z" fill="white"/>
<path d="M375.423 666.609C377.037 668.232 378.957 669.519 381.071 670.397C383.185 671.275 385.453 671.725 387.742 671.722H346.045C338.062 671.722 333.726 669.778 330.564 666.609C327.297 663.34 325.459 658.911 325.451 654.29C325.451 644.736 333.292 636.887 346.045 636.887H387.742C384.296 636.882 380.926 637.899 378.059 639.811C375.192 641.723 372.957 644.443 371.638 647.626C370.318 650.809 369.974 654.313 370.647 657.692C371.322 661.072 372.983 664.175 375.423 666.609Z" fill="#D7E8F0"/>
<path d="M489.897 636.956C489.93 636.947 489.963 636.949 489.995 636.961C489.962 636.96 489.93 636.958 489.897 636.956C489.784 636.948 489.672 636.929 489.561 636.901H449.105C454.366 636.62 459.396 634.651 463.45 631.287C464.061 630.788 464.646 630.257 465.199 629.695C465.662 629.245 466.099 628.768 466.508 628.268C466.82 627.92 467.109 627.553 467.375 627.168C467.547 626.959 467.696 626.757 467.838 626.555C468.115 626.185 468.364 625.796 468.586 625.389C468.926 624.915 469.228 624.416 469.49 623.894C469.769 623.396 470.019 622.882 470.238 622.354C470.35 622.122 470.44 621.861 470.589 621.607C470.791 621.084 470.963 620.561 471.135 620.038C471.374 619.29 471.606 618.498 471.778 617.72C471.882 617.299 471.959 616.873 472.009 616.441C472.043 616.337 472.063 616.23 472.069 616.121C472.102 616.037 472.122 615.949 472.129 615.858C472.129 615.567 472.211 615.305 472.241 615.013V614.842C472.35 614.032 472.4 613.215 472.391 612.397C472.4 612.02 472.381 611.643 472.331 611.269V611.007C472.331 610.637 472.301 610.267 472.241 609.9C472.044 607.884 471.584 605.901 470.873 604.003C470.48 602.864 469.979 601.765 469.378 600.721C468.829 599.67 468.19 598.67 467.464 597.731C467.277 597.457 467.072 597.195 466.851 596.946C466.762 596.856 466.68 596.737 466.56 596.625C466.173 596.115 465.745 595.639 465.282 595.198C464.938 594.854 464.534 594.502 464.183 594.128C463.831 593.754 463.248 593.313 462.755 592.962C462.262 592.61 461.94 592.357 461.507 592.065C460.862 591.597 460.183 591.18 459.473 590.816C458.813 590.431 458.123 590.099 457.41 589.823C456.585 589.469 455.742 589.16 454.884 588.895C454.591 588.787 454.288 588.709 453.979 588.663C453.179 588.436 452.365 588.261 451.542 588.141C451.131 588.051 450.728 588.021 450.294 587.968H450.234C450.178 587.983 450.118 587.983 450.062 587.968H450.234H450.294C450.728 588.021 451.131 588.051 451.542 588.141C452.365 588.261 453.179 588.436 453.979 588.663C454.288 588.709 454.591 588.787 454.884 588.895C455.742 589.16 456.585 589.469 457.41 589.823C458.123 590.099 458.813 590.431 459.473 590.816C460.183 591.18 460.862 591.597 461.507 592.065C461.94 592.357 462.262 592.61 462.755 592.962C463.248 593.313 463.831 593.754 464.183 594.128C464.534 594.502 464.938 594.854 465.282 595.198C465.745 595.639 466.173 596.115 466.56 596.625C466.68 596.737 466.762 596.856 466.851 596.946C467.072 597.195 467.277 597.457 467.464 597.731C468.19 598.67 468.829 599.67 469.378 600.721C469.979 601.765 470.48 602.864 470.873 604.003C471.584 605.901 472.044 607.884 472.241 609.9C472.301 610.267 472.331 610.637 472.331 611.007V611.269C472.381 611.643 472.4 612.02 472.391 612.397C472.4 613.215 472.35 614.032 472.241 614.842V615.013C472.211 615.305 472.129 615.567 472.129 615.858C472.122 615.949 472.102 616.037 472.069 616.121C472.063 616.23 472.043 616.337 472.009 616.441C471.959 616.873 471.882 617.299 471.778 617.72C471.606 618.498 471.374 619.29 471.135 620.038C470.963 620.561 470.791 621.084 470.589 621.607C470.44 621.861 470.35 622.122 470.238 622.354C470.019 622.882 469.769 623.396 469.49 623.894C469.228 624.416 468.926 624.915 468.586 625.389C468.364 625.796 468.115 626.185 467.838 626.555C467.696 626.757 467.547 626.959 467.375 627.168C467.109 627.553 466.82 627.92 466.508 628.268C466.099 628.768 465.662 629.245 465.199 629.695C464.646 630.257 464.061 630.788 463.45 631.287C459.396 634.651 454.366 636.62 449.105 636.901H489.561C489.657 636.886 489.756 636.886 489.853 636.901H489.561C489.672 636.929 489.784 636.948 489.897 636.956Z" fill="#1A69FF"/>
<path d="M513.257 612.765C513.257 613.228 513.257 613.722 513.198 614.185C513.138 614.97 513.056 615.725 512.936 616.48C512.876 616.884 512.794 617.295 512.704 617.699C512.532 618.446 512.33 619.268 512.099 620.023C511.837 620.856 511.525 621.672 511.164 622.468C511.048 622.779 510.903 623.08 510.731 623.365C510.731 623.454 510.671 623.514 510.611 623.596C510.439 623.978 510.237 624.344 510.036 624.703C509.714 625.286 509.363 625.861 508.989 626.415C508.548 627.087 508.055 627.693 507.561 628.306C507.06 628.914 506.526 629.496 505.962 630.048C505.37 630.649 504.741 631.214 504.078 631.737L503.33 632.342C502.48 632.985 501.586 633.567 500.654 634.084C500.221 634.316 499.757 634.555 499.294 634.787C499.25 634.819 499.198 634.837 499.144 634.839C498.621 635.101 498.098 635.31 497.574 635.512C497.051 635.714 496.528 635.916 495.982 636.087C495.429 636.237 494.876 636.409 494.323 636.529L493.867 636.611C493.433 636.708 493 636.79 492.559 636.857C491.777 636.992 490.988 637.084 490.196 637.134C489.715 637.184 489.231 637.204 488.746 637.194C488.746 637.194 488.657 637.194 488.627 637.194L438.094 636.947L426.186 636.887L346.815 636.484C346.523 636.478 346.23 636.458 345.94 636.424C345.275 636.424 344.632 636.364 343.967 636.312C349.718 635.626 355.044 632.945 359.021 628.735C362.997 624.525 365.371 619.053 365.727 613.273C365.727 612.982 365.727 612.66 365.727 612.339V612.025C365.735 606.33 363.77 600.808 360.169 596.396C356.568 591.984 351.551 588.954 345.97 587.82C345.387 587.701 344.804 587.618 344.199 587.529C344.777 587.461 345.358 587.424 345.94 587.417C346.145 587.402 346.349 587.402 346.553 587.417H347.047L426.418 587.82L444.359 587.91H450.227H450.72L488.843 588.112C490.095 588.116 491.344 588.214 492.581 588.403C495.739 588.921 498.767 590.046 501.499 591.715C501.85 591.917 502.164 592.148 502.486 592.35C503.454 593.013 504.376 593.743 505.244 594.533C505.535 594.795 505.797 595.056 506.089 595.348C508.304 597.592 510.078 600.231 511.321 603.129L511.762 604.266C511.91 604.634 512.034 605.011 512.136 605.394C512.881 607.78 513.26 610.265 513.257 612.765Z" stroke="black" stroke-width="5.5" stroke-linecap="square" stroke-linejoin="round"/>
<path d="M472.353 612.323C472.358 613.139 472.318 613.956 472.234 614.767C472.234 614.827 472.234 614.88 472.234 614.939C472.174 615.321 472.121 615.687 472.062 616.046C472.056 616.155 472.035 616.263 472.002 616.367C471.952 616.798 471.875 617.225 471.77 617.645C471.598 618.393 471.366 619.208 471.127 619.963C470.955 620.486 470.783 621.009 470.581 621.533C470.432 621.794 470.342 622.056 470.23 622.28C470.011 622.808 469.761 623.322 469.483 623.82C469.22 624.341 468.918 624.841 468.578 625.315C468.357 625.721 468.107 626.111 467.831 626.481C467.689 626.683 467.539 626.885 467.367 627.094C467.102 627.478 466.813 627.845 466.5 628.193C466.092 628.694 465.655 629.171 465.192 629.621C464.636 630.171 464.052 630.692 463.443 631.183C459.397 634.564 454.369 636.552 449.105 636.849C448.844 636.849 448.582 636.849 448.358 636.849H346.927C346 636.849 345.043 636.797 344.079 636.707C344.705 636.632 345.326 636.525 345.94 636.386C345.989 636.403 346.041 636.403 346.09 636.386H346.142C350.855 635.403 355.178 633.064 358.581 629.658L358.641 629.598C362.967 625.226 365.496 619.389 365.727 613.243C365.727 612.951 365.727 612.63 365.727 612.308V612.278C365.681 606.287 363.455 600.518 359.466 596.047C355.476 591.576 349.996 588.711 344.049 587.984C344.692 587.902 345.327 587.872 345.97 587.842C346.133 587.812 346.301 587.812 346.464 587.842C346.472 587.834 346.482 587.831 346.494 587.831C346.505 587.831 346.515 587.834 346.523 587.842C346.648 587.827 346.773 587.827 346.897 587.842H447.797C448.5 587.842 449.165 587.842 449.838 587.932H450.07C450.126 587.947 450.186 587.947 450.242 587.932H450.361L451.55 588.104C452.373 588.225 453.187 588.399 453.987 588.627C454.278 588.687 454.6 588.769 454.891 588.859C455.749 589.122 456.592 589.432 457.418 589.785C458.113 590.077 458.816 590.428 459.481 590.78C460.184 591.153 460.863 591.571 461.514 592.028C461.948 592.32 462.359 592.604 462.762 592.925C463.166 593.246 463.719 593.673 464.19 594.091C464.661 594.51 464.938 594.839 465.289 595.16C465.73 595.631 466.164 596.094 466.567 596.588C466.687 596.7 466.769 596.82 466.859 596.909L467.472 597.694C468.172 598.65 468.811 599.648 469.385 600.684C469.95 601.747 470.449 602.843 470.881 603.966C471.567 605.871 472.026 607.851 472.248 609.864C472.248 610.245 472.308 610.611 472.338 610.97V611.232C472.353 611.568 472.353 611.949 472.353 612.323Z" stroke="black" stroke-width="5.5" stroke-linecap="square" stroke-linejoin="round"/>
<path d="M491.004 671.705H346.03C342.799 671.792 339.577 671.332 336.499 670.345C335.886 670.113 335.311 669.881 334.758 669.597C334.204 669.306 333.711 669.014 333.218 668.723C332.724 668.431 332.291 668.057 331.85 667.706C331.416 667.325 331.012 666.958 330.631 666.57C328.641 664.582 327.167 662.139 326.333 659.453C325.804 657.78 325.539 656.035 325.548 654.281C325.543 653.601 325.583 652.921 325.668 652.247C325.778 651.3 325.981 650.366 326.273 649.459C326.678 648.024 327.306 646.662 328.135 645.422C328.608 644.613 329.172 643.861 329.816 643.18C330.213 642.739 330.631 642.319 331.072 641.924C334.616 638.762 339.758 636.811 346.12 636.811H491.004C490.421 636.811 490.017 636.811 489.725 636.811C489.629 636.796 489.53 636.796 489.434 636.811C489.142 636.811 489.202 636.811 489.344 636.811C489.352 636.818 489.363 636.822 489.374 636.822C489.385 636.822 489.396 636.818 489.404 636.811C489.471 636.824 489.539 636.824 489.606 636.811C489.666 636.811 489.696 636.811 489.755 636.811C489.434 636.871 489.113 636.901 488.791 636.983H488.724C488.724 636.983 488.634 636.983 488.604 636.983C484.642 637.771 481.074 639.906 478.506 643.024C475.937 646.143 474.527 650.053 474.513 654.094C474.537 658.354 476.109 662.461 478.937 665.647C481.764 668.834 485.655 670.884 489.882 671.414C489.172 671.683 488.507 671.705 491.004 671.705Z" stroke="black" stroke-width="5.5" stroke-linecap="square" stroke-linejoin="round"/>
<path d="M489.838 671.621C489.172 671.681 488.507 671.704 487.834 671.704H387.719C385.435 671.703 383.174 671.25 381.065 670.373C378.956 669.496 377.041 668.211 375.43 666.591C373.441 664.603 371.965 662.161 371.132 659.474C370.615 657.8 370.363 656.054 370.384 654.302C370.392 649.686 372.227 645.261 375.488 641.994C378.749 638.728 383.171 636.886 387.786 636.869H487.834C488.328 636.869 488.851 636.869 489.329 636.929C489.416 636.943 489.504 636.943 489.591 636.929C489.651 636.929 489.681 636.929 489.74 636.929C489.419 636.989 489.098 637.019 488.776 637.101H488.724C488.724 637.101 488.634 637.101 488.604 637.101C484.642 637.89 481.074 640.024 478.506 643.143C475.938 646.261 474.528 650.172 474.513 654.212C474.537 658.473 476.109 662.579 478.937 665.766C481.764 668.953 485.655 671.003 489.882 671.532L489.838 671.621Z" stroke="black" stroke-width="5.5" stroke-linecap="square" stroke-linejoin="round"/>
<path d="M370.317 654.302C370.317 658.917 372.151 663.343 375.414 666.607C378.677 669.871 383.104 671.704 387.719 671.704H346.03C338.069 671.704 333.711 669.76 330.542 666.591C328.926 664.978 327.646 663.062 326.773 660.954C325.901 658.845 325.454 656.584 325.458 654.302C325.458 644.718 333.277 636.869 346.03 636.869H387.719C383.103 636.886 378.682 638.728 375.421 641.994C372.16 645.261 370.324 649.686 370.317 654.302Z" stroke="black" stroke-width="5.5" stroke-linecap="square" stroke-linejoin="round"/>
<path d="M491.004 671.706H487.834C488.507 671.706 489.172 671.706 489.838 671.624C489.172 671.683 488.507 671.706 491.004 671.706Z" stroke="black" stroke-width="5.5" stroke-linecap="square" stroke-linejoin="round"/>
<path d="M489.606 636.945C489.03 636.945 488.417 636.855 487.834 636.855H491.004C488.791 636.87 489.053 636.945 489.606 636.945Z" stroke="black" stroke-width="5.5" stroke-linecap="square" stroke-linejoin="round"/>
<path opacity="0.54" d="M55.1635 606.134L3.2708 473.195C2.62786 470.624 2.57957 467.939 3.12952 465.345C3.67946 462.752 4.81322 460.318 6.44461 458.228C8.07607 456.138 10.1622 454.448 12.5447 453.285C14.9273 452.123 17.5435 451.518 20.1946 451.517H226.345C230.973 451.516 235.466 453.073 239.102 455.937C242.737 458.801 245.304 462.805 246.386 467.305L303.197 600.228C303.813 602.794 303.839 605.465 303.274 608.042C302.709 610.619 301.566 613.033 299.933 615.105C298.3 617.177 296.218 618.85 293.844 620.002C291.47 621.153 288.867 621.75 286.229 621.749H75.1446C70.5496 621.749 66.0862 620.212 62.4652 617.382C58.845 614.552 56.2743 610.593 55.1635 606.134Z" fill="white"/>
<path d="M55.1635 606.134L3.2708 473.195C2.62786 470.624 2.57957 467.939 3.12952 465.345C3.67946 462.752 4.81322 460.318 6.44461 458.228C8.07607 456.138 10.1622 454.448 12.5447 453.285C14.9273 452.123 17.5435 451.518 20.1946 451.517H226.345C230.973 451.516 235.466 453.073 239.102 455.937C242.737 458.801 245.304 462.805 246.386 467.305L303.197 600.228C303.813 602.794 303.839 605.465 303.274 608.042C302.709 610.619 301.566 613.033 299.933 615.105C298.3 617.177 296.218 618.85 293.844 620.002C291.47 621.153 288.867 621.75 286.229 621.749H75.1446C70.5496 621.749 66.0862 620.212 62.4652 617.382C58.845 614.552 56.2743 610.593 55.1635 606.134Z" fill="#FF6B38" fill-opacity="0.8"/>
<path d="M55.1635 606.134L3.2708 473.195C2.62786 470.624 2.57957 467.939 3.12952 465.345C3.67946 462.752 4.81322 460.318 6.44461 458.228C8.07606 456.138 10.1622 454.448 12.5447 453.285C14.9273 452.123 17.5435 451.518 20.1946 451.517H226.345C230.973 451.516 235.466 453.073 239.102 455.937C242.737 458.801 245.304 462.805 246.386 467.305L303.197 600.228C303.813 602.794 303.839 605.465 303.274 608.042C302.709 610.619 301.566 613.033 299.933 615.105C298.3 617.177 296.218 618.85 293.844 620.002C291.47 621.153 288.867 621.75 286.229 621.749H75.1446C70.5496 621.749 66.0862 620.212 62.4652 617.382C58.845 614.552 56.2743 610.593 55.1635 606.134Z" stroke="black" stroke-width="5.5" stroke-linecap="square" stroke-linejoin="round"/>
<path d="M62.7433 600.751L14.9021 478.106C14.3083 475.734 14.2625 473.259 14.7683 470.867C15.274 468.474 16.318 466.23 17.821 464.301C19.324 462.373 21.2466 460.813 23.4426 459.739C25.6387 458.665 28.0507 458.105 30.4954 458.102H220.649C224.919 458.103 229.064 459.54 232.417 462.183C235.77 464.826 238.136 468.52 239.135 472.671L291.544 595.264C292.112 597.631 292.136 600.095 291.615 602.473C291.094 604.85 290.04 607.079 288.533 608.991C287.027 610.902 285.107 612.447 282.916 613.51C280.727 614.572 278.324 615.125 275.891 615.126H81.192C76.9551 615.127 72.8385 613.713 69.4964 611.11C66.1542 608.505 63.7779 604.86 62.7433 600.751Z" fill="#FF6B38"/>
<path d="M206.91 480.653C204.39 476.863 200.272 475.181 197.7 476.915C195.129 478.65 195.091 483.082 197.61 486.872C198.007 487.449 198.453 487.992 198.941 488.495L180.253 527.941C177.263 525.953 173.996 525.459 171.649 527.029C170.891 527.581 170.263 528.291 169.81 529.111C169.356 529.932 169.089 530.841 169.025 531.776L156.258 527.463L145.097 523.725L141.449 522.529C140.992 521.159 140.357 519.854 139.558 518.649C136.015 513.327 130.229 510.965 126.619 513.364C123.008 515.764 122.971 521.901 126.417 527.186L105.18 556.212C100.545 552.407 95.0809 551.234 91.2984 553.745C86.1555 557.176 86.0658 566.109 91.1265 573.704C91.3283 574.003 91.5601 574.257 91.7694 574.541L77.589 593.917L77.4619 594.104C77.0627 594.643 76.7764 595.257 76.6224 595.91C76.4677 596.562 76.4475 597.24 76.5634 597.9C76.6792 598.561 76.9282 599.191 77.2952 599.752C77.6622 600.313 78.1391 600.794 78.6983 601.165C79.2567 601.536 79.8853 601.789 80.5454 601.909C81.2047 602.029 81.882 602.013 82.536 601.864C83.1894 601.714 83.8061 601.432 84.3473 601.036C84.8885 600.64 85.3437 600.139 85.6846 599.561L98.2952 580.581C102.272 582.891 106.518 583.332 109.605 581.269C114.524 577.995 114.756 569.712 110.353 562.357L130.723 531.611C133.713 533.652 137.047 534.175 139.424 532.598C140.753 531.661 141.658 530.237 141.943 528.636L143.438 529.062L154.793 532.165L169.324 536.081C169.766 537.822 170.499 539.474 171.492 540.97C175.028 546.285 180.821 548.655 184.432 546.255C188.042 543.856 188.087 537.599 184.551 532.284C184.03 531.512 183.444 530.785 182.802 530.109L200.586 489.9C202.731 491.395 205.071 491.731 206.797 490.603C209.406 488.936 209.444 484.45 206.91 480.653Z" fill="white"/>
<path d="M71.6089 482.83H44.0628C42.7958 482.835 41.5549 482.47 40.4927 481.779C39.4297 481.089 38.5925 480.103 38.0827 478.943C37.9257 478.587 37.842 478.203 37.836 477.814C37.8442 477.063 38.147 476.345 38.6799 475.817C39.2137 475.288 39.9335 474.99 40.684 474.988H69.9793C68.6188 477.313 69.3663 480.542 71.6089 482.83Z" fill="#D7E8F0"/>
<path d="M89.4447 480.004C89.4409 480.754 89.1404 481.471 88.6104 482.001C88.0797 482.53 87.3613 482.828 86.6116 482.83H71.6089C69.3215 480.542 68.6188 477.313 70.0017 474.988H83.2328C84.4976 474.982 85.737 475.343 86.7985 476.03C87.8607 476.716 88.7001 477.697 89.2129 478.853C89.3677 479.217 89.4462 479.609 89.4447 480.004Z" fill="#FF6B38" fill-opacity="0.8"/>
<path d="M82.5525 482.829C82.4718 482.979 82.3821 483.124 82.2834 483.263C80.3099 485.946 76.0491 486.2 72.7376 483.778C72.3414 483.493 71.9684 483.175 71.6238 482.829C69.3364 480.542 68.6337 477.312 70.0166 474.988C70.0914 474.834 70.1818 474.689 70.2857 474.554C72.2367 471.855 76.4976 471.624 79.8091 474.023C80.2113 474.313 80.5895 474.636 80.9379 474.988C83.2103 477.282 83.913 480.482 82.5525 482.829Z" fill="white"/>
<path d="M96.3741 497.302C96.3681 498.054 96.0654 498.772 95.5324 499.301C94.9987 499.831 94.2773 500.128 93.5261 500.128H64.6046C66.0025 497.781 65.3073 494.582 63.0124 492.287H90.1772C91.4442 492.281 92.6851 492.646 93.7473 493.337C94.8103 494.028 95.6475 495.014 96.1573 496.174C96.3038 496.531 96.3779 496.915 96.3741 497.302Z" fill="#FF6B38" fill-opacity="0.8"/>
<path d="M64.6047 500.151H50.9998C49.735 500.158 48.4956 499.796 47.4342 499.11C46.3719 498.424 45.5325 497.442 45.0197 496.287C44.8627 495.925 44.779 495.536 44.773 495.143C44.7708 494.771 44.8425 494.402 44.9838 494.058C45.1251 493.714 45.3329 493.401 45.596 493.137C45.8584 492.874 46.1709 492.666 46.514 492.524C46.8578 492.382 47.2264 492.308 47.5986 492.31H63.0124C65.3073 494.582 66.0025 497.782 64.6047 500.151Z" fill="#D7E8F0"/>
<path d="M64.6046 500.151C64.5426 500.306 64.4596 500.452 64.358 500.584C62.4069 503.29 58.1386 503.522 54.8271 501.122C54.4175 500.828 54.0303 500.503 53.6685 500.151C51.4259 497.863 50.6784 494.656 52.0613 492.309C52.1346 492.158 52.225 492.015 52.3304 491.883C54.2964 489.192 58.5572 488.945 61.8762 491.36C62.2686 491.648 62.6387 491.965 62.9825 492.309C65.3073 494.582 66.0025 497.781 64.6046 500.151Z" fill="white"/>
<path d="M74.2401 517.343H56.9276C55.6628 517.346 54.4242 516.982 53.3627 516.295C52.3012 515.607 51.4618 514.626 50.9475 513.471C50.7905 513.115 50.7068 512.731 50.7008 512.342C50.703 511.587 51.0036 510.864 51.5373 510.33C52.071 509.797 52.7939 509.496 53.5488 509.494H72.5956C71.265 511.804 71.9677 515.01 74.2401 517.343Z" fill="#FF6B38" fill-opacity="0.8"/>
<path d="M102.302 514.494C102.298 515.242 101.998 515.958 101.466 516.485C100.935 517.012 100.217 517.307 99.4688 517.305H74.2401C71.9976 515.01 71.25 511.803 72.6255 509.456H96.105C97.3661 509.455 98.6002 509.823 99.6565 510.513C100.712 511.203 101.543 512.187 102.048 513.343C102.21 513.705 102.297 514.097 102.302 514.494Z" fill="#D7E8F0"/>
<path d="M85.1613 517.343C85.0881 517.495 84.9976 517.637 84.8922 517.769C82.9412 520.475 78.6804 520.707 75.3689 518.307C74.9712 518.011 74.5944 517.689 74.2401 517.343C71.9976 515.048 71.25 511.841 72.6255 509.494C72.704 509.345 72.7944 509.203 72.8946 509.068C74.868 506.384 79.1289 506.145 82.4404 508.544C82.8336 508.835 83.2058 509.151 83.5542 509.494C85.8117 511.751 86.5592 514.973 85.1613 517.343Z" fill="white"/>
<path d="M186.181 598.329H168.861C167.596 598.333 166.357 597.968 165.296 597.281C164.234 596.593 163.395 595.612 162.881 594.457C162.718 594.102 162.631 593.717 162.627 593.328C162.629 592.573 162.929 591.85 163.463 591.316C163.997 590.783 164.72 590.481 165.475 590.48H184.529C183.206 592.842 183.908 596.034 186.181 598.329Z" fill="#FF6B38" fill-opacity="0.8"/>
<path d="M254.915 595.518C254.914 595.888 254.84 596.254 254.698 596.596C254.556 596.938 254.347 597.248 254.085 597.509C253.822 597.77 253.511 597.976 253.168 598.117C252.827 598.258 252.46 598.33 252.09 598.329H186.181C183.938 596.034 183.191 592.827 184.566 590.48H248.718C249.979 590.479 251.213 590.846 252.27 591.537C253.325 592.228 254.156 593.211 254.661 594.367C254.823 594.729 254.91 595.121 254.915 595.518Z" fill="#D7E8F0"/>
<path d="M197.102 598.329C197.029 598.481 196.938 598.623 196.833 598.755C194.882 601.461 190.621 601.693 187.31 599.293C186.91 598.999 186.534 598.677 186.181 598.329C183.938 596.034 183.191 592.827 184.566 590.48C184.645 590.331 184.735 590.188 184.835 590.054C186.809 587.37 191.07 587.131 194.381 589.531C194.774 589.821 195.147 590.138 195.495 590.48C197.782 592.775 198.485 595.997 197.102 598.329Z" fill="white"/>
</svg>
