<svg width="762" height="668" viewBox="0 0 762 668" fill="none" xmlns="http://www.w3.org/2000/svg">
<path d="M152.4 208.474C152.4 208.474 106.824 73.6172 265.794 90.0764C424.764 106.536 348.81 46.8457 408.881 9.80399C468.952 -27.2377 645.947 88.0021 571.898 199.153C497.848 310.303 690.237 208.627 730.369 375.776C755.134 478.925 693.691 554.846 643.001 597.882" stroke="#CCDDE2" stroke-width="5.47" stroke-miterlimit="10"/>
<path d="M658.504 469.013C646.557 399.832 604.258 337.924 535.534 315.766C517.954 310.13 499.976 305.814 481.753 302.855V302.948C480.803 308.691 478.553 314.142 475.175 318.882C468.012 328.695 458.14 336.755 446.71 340.955C435.043 345.273 420.59 345.832 409.761 339.041C403.242 334.96 396.917 327.772 395.774 320.017C394.471 311.279 398.924 303.007 405.189 297.233C352.086 297.665 302.133 306.402 262.103 316.351C263.49 322.16 265.411 327.828 267.843 333.284C271.246 340.89 276.054 347.784 282.016 353.604C289.453 346.237 295.963 337.992 301.405 329.051C306.61 330.754 311.201 333.951 314.604 338.243C318.007 342.535 320.075 347.732 320.548 353.189V353.469C322.648 373.289 303.564 388.182 287.528 397.343C269.003 407.994 248.353 415.969 228.067 422.599C219.702 425.342 208.83 427.679 200 424.817C199.049 424.514 198.121 424.143 197.223 423.708C188.417 419.39 182.524 410.339 177.927 402.067C164.829 378.572 156.312 352.961 150.537 326.672C110.465 331.794 105.876 304.658 103.497 298.003L69.2151 393.838C67.4167 400.726 67.2229 407.935 68.6461 414.911C70.0702 421.887 73.075 428.443 77.4294 434.076C81.783 439.709 87.371 444.268 93.7625 447.405C100.155 450.541 107.18 452.169 114.3 452.165H256.218L320.684 617.519L338.955 664.449H443.315C434.848 664.449 430.217 662.383 426.856 659.014C423.384 655.541 421.43 650.834 421.42 645.924C421.42 635.764 429.76 627.433 443.315 627.433H444.271C443.247 627.433 442.265 627.34 441.24 627.247C441.875 627.178 442.505 627.073 443.128 626.933C442.457 626.917 441.787 626.867 441.122 626.781C447.236 626.059 452.902 623.212 457.128 618.735C461.355 614.26 463.874 608.441 464.244 602.295C464.261 601.976 464.261 601.657 464.244 601.339V600.848C464.099 594.548 461.69 588.51 457.461 583.839C453.231 579.167 447.461 576.174 441.207 575.405C441.918 575.346 442.595 575.287 443.281 575.287C442.663 575.134 441.977 575.041 441.334 574.948C442.35 574.855 443.374 574.787 444.356 574.787L520.709 575.194L534.755 575.253H551.426C552.196 575.253 552.975 575.253 553.712 575.346L578.477 575.473L595.021 575.566C601.935 575.624 608.544 578.418 613.404 583.337C618.264 588.255 620.978 594.898 620.954 601.813C620.945 605.723 620.039 609.578 618.304 613.082C625.402 612.174 631.984 608.891 636.981 603.769C648.894 591.602 654.025 573.39 657.572 557.202C663.846 528.365 663.474 497.978 658.504 469.013ZM465.599 470.961C451.214 493.101 426.72 491.111 426.72 491.111C426.72 491.111 424.688 493.092 419.947 484.66C415.205 476.227 401.701 470.461 401.701 470.461C400.626 478.928 398.399 491.797 376.301 475.118C354.203 458.438 360.866 434.122 362.754 421.278C364.642 408.434 372.169 404.175 372.169 404.175L381.059 399.485C381.059 399.485 355.346 392.872 354.11 392.627C352.874 392.381 329.971 373.204 353.212 368.141C376.453 363.078 412.682 383.212 419.684 387.191C426.686 391.171 467.606 425.782 467.606 425.782C467.606 425.782 480.06 448.854 465.599 470.961Z" fill="#353642"/>
<path d="M150.503 326.687C150.503 326.687 169.884 324.333 177.14 310.498L170.815 345.982C170.815 345.982 247.912 319.736 262.052 316.349C262.052 316.349 266.607 345.72 284.742 353.602L303.454 329.811C303.454 329.811 326.915 335.738 320.497 367.708C314.079 399.678 225.315 426.399 210.261 425.781C195.207 425.163 179.002 415.9 162.408 366.125L150.503 326.687Z" fill="#353642"/>
<path d="M182.076 247.643C186.986 255.635 191.922 263.611 197.019 271.485C200.161 276.336 205.884 283.254 199.796 288.325C197.815 289.844 195.423 290.73 192.93 290.865C189.018 291.212 184.912 290.272 182.533 286.911L170.68 267.269C168.317 263.351 164.566 260.467 160.173 259.19C155.78 257.913 151.067 258.337 146.973 260.377" stroke="black" stroke-width="5.47" stroke-miterlimit="10"/>
<path d="M226.907 273.514C230.005 280.88 227.906 285.63 224.282 288.018C218.355 291.904 210.422 290.041 206.223 284.369L182.118 247.683" stroke="black" stroke-width="5.47" stroke-miterlimit="10"/>
<path d="M202.48 236.975C211.252 247.643 222.318 267.455 228.439 275.727C234.561 283.999 244.026 279.012 244.026 279.012C251.714 274.872 250.41 268.005 247.049 259.665C238.769 239.193 226.949 225.579 213.766 216.655C172.915 189.02 131.005 209.407 118.533 257.109L69.2151 393.837C67.4167 400.726 67.2229 407.935 68.6461 414.911C70.0702 421.887 73.075 428.443 77.4294 434.076C81.783 439.709 87.371 444.268 93.7625 447.405C100.155 450.54 107.18 452.168 114.3 452.164H256.218L338.98 664.457" stroke="black" stroke-width="5.47" stroke-miterlimit="10"/>
<path d="M253.153 250.275C263.313 246.753 262.848 230.548 248.429 225.078C232.503 219.033 204.224 210.482 197.121 208.348C197.077 208.314 197.024 208.294 196.969 208.289C196.469 208.137 196.122 208.01 195.851 207.95L195.453 207.823" stroke="black" stroke-width="5.47" stroke-miterlimit="10"/>
<path d="M403.267 412.301C394.377 401.616 370.044 395.562 354.161 392.633C351.491 392.132 349.057 390.776 347.224 388.771C345.392 386.766 344.261 384.22 344.001 381.516C343.816 379.692 344.027 377.85 344.619 376.114C345.565 373.45 347.38 371.181 349.77 369.67C352.16 368.16 354.989 367.495 357.801 367.783C384.895 370.526 412.835 379.052 433.502 397.416C433.502 397.416 533.688 473.87 545.651 481.313C550.587 484.31 555.193 480.771 551.849 476.063L550.799 474.268C544.91 464.163 537.941 454.726 530.013 446.125" stroke="black" stroke-width="5.47" stroke-miterlimit="10"/>
<path d="M405.121 297.223C279.121 298.273 170.815 345.974 170.815 345.974L181.627 285.369" stroke="black" stroke-width="5.47" stroke-miterlimit="10"/>
<path d="M600.82 627.058C600.82 627.058 587.096 623.951 583.447 634.94C579.797 645.93 575.987 663.414 602.226 664.447C628.464 665.48 613.055 660.323 611.539 651.831C610.023 643.339 600.82 627.058 600.82 627.058Z" fill="#353642"/>
<path d="M391.16 426.247C391.16 426.247 376.352 415.02 363.017 426.399C362.455 426.894 361.965 427.464 361.561 428.093" stroke="black" stroke-width="5.47" stroke-miterlimit="10"/>
<g opacity="0.77">
<path opacity="0.77" d="M206.172 284.329C210.405 290.01 218.33 291.864 224.231 287.97C227.813 285.599 229.912 280.874 226.89 273.576C227.44 274.381 227.94 275.092 228.431 275.744C234.544 284.049 244.018 279.046 244.018 279.046C251.706 274.905 250.41 268.039 247.049 259.691C243.76 251.422 239.444 243.6 234.205 236.408C237.634 233.199 241.706 229.956 245.999 231.378C250.63 232.919 251.926 238.727 252.451 243.57C252.696 245.822 252.942 248.049 253.187 250.301L256.896 283.457C258.132 294.463 259.368 305.631 262.052 316.375C263.44 322.184 265.361 327.853 267.792 333.309C271.195 340.914 276.003 347.809 281.965 353.629C289.402 346.262 295.913 338.017 301.354 329.075C306.559 330.779 311.15 333.976 314.554 338.267C317.956 342.559 320.024 347.756 320.497 353.214V353.493C322.597 373.314 303.513 388.206 287.477 397.367C268.952 408.018 248.302 415.994 228.016 422.623C219.651 425.367 208.78 427.703 199.949 424.842C198.998 424.539 198.07 424.168 197.172 423.733C188.366 419.415 182.474 410.364 177.876 402.092C155.863 362.51 146.719 317.061 141.901 272.052C151.536 270.723 161.138 269.241 170.62 267.201C170.62 267.201 170.62 267.269 170.68 267.294L181.61 285.421L182.507 286.928C184.878 290.315 188.984 291.221 192.905 290.882C195.397 290.758 197.792 289.872 199.763 288.342C205.842 283.262 200.135 276.37 196.986 271.519" fill="white"/>
<path opacity="0.77" d="M206.172 284.329C210.405 290.01 218.33 291.864 224.231 287.97C227.813 285.599 229.912 280.874 226.89 273.576C227.44 274.381 227.94 275.092 228.431 275.744C234.544 284.049 244.018 279.046 244.018 279.046C251.706 274.905 250.41 268.039 247.049 259.691C243.76 251.422 239.444 243.6 234.205 236.408C237.634 233.199 241.706 229.956 245.999 231.378C250.63 232.919 251.926 238.727 252.451 243.57C252.696 245.822 252.942 248.049 253.187 250.301L256.896 283.457C258.132 294.463 259.368 305.631 262.052 316.375C263.44 322.184 265.361 327.853 267.792 333.309C271.195 340.914 276.003 347.809 281.965 353.629C289.402 346.262 295.913 338.017 301.354 329.075C306.559 330.779 311.15 333.976 314.554 338.267C317.956 342.559 320.024 347.756 320.497 353.214V353.493C322.597 373.314 303.513 388.206 287.477 397.367C268.952 408.018 248.302 415.994 228.016 422.623C219.651 425.367 208.78 427.703 199.949 424.842C198.998 424.539 198.07 424.168 197.172 423.733C188.366 419.415 182.474 410.364 177.876 402.092C155.863 362.51 146.719 317.061 141.901 272.052C151.536 270.723 161.138 269.241 170.62 267.201C170.62 267.201 170.62 267.269 170.68 267.294L181.61 285.421L182.507 286.928C184.878 290.315 188.984 291.221 192.905 290.882C195.397 290.758 197.792 289.872 199.763 288.342C205.842 283.262 200.135 276.37 196.986 271.519" fill="#FF6B38"/>
<path opacity="0.77" d="M208.771 287.013C212.522 292.093 218.931 291.449 224.231 287.969C227.431 285.853 230.056 286.471 227.355 279.943C227.855 280.654 227.923 278.25 228.363 278.783C233.824 286.2 228.431 275.718 228.431 275.718C236.051 285.345 252.637 276.277 249.597 268.835C246.38 260.817 242.993 248.964 238.701 243.037C242.087 239.837 241.435 240.311 245.745 242.859C246.902 243.602 247.872 244.606 248.575 245.789C249.28 246.971 249.699 248.301 249.8 249.675C250.148 252.901 250.495 255.991 250.842 259.141L254.144 288.774C255.253 298.621 256.354 308.569 258.75 318.153C259.988 323.336 261.706 328.392 263.881 333.258C266.912 339.955 276.648 351.105 281.965 356.211C288.578 349.649 296.503 337.584 301.354 329.566C310.667 332.428 310.261 341.335 310.921 351.063V351.317C312.801 369.004 295.766 382.288 281.491 390.475C264.947 399.984 246.515 407.096 228.405 413.022C220.938 415.478 211.235 417.594 203.352 415.003C202.502 414.735 201.673 414.403 200.872 414.013C193.014 410.152 187.748 402.083 183.642 394.692C165.667 362.408 157.327 325.756 152.739 289.011C152.402 286.261 153.146 283.489 154.814 281.277C156.482 279.066 158.943 277.589 161.679 277.158C166.836 276.311 171.975 275.464 177.08 274.33L177.224 274.397L186.978 290.577C189.103 293.583 189.45 291.229 192.947 290.924C195.157 290.73 199.441 290.298 201.151 288.867C206.578 284.346 203.513 282.475 200.702 278.148" fill="#FF6B38"/>
</g>
<path d="M389.373 442.589C389.373 442.589 361.256 433.343 360.832 448.888" stroke="black" stroke-width="5.47" stroke-miterlimit="10"/>
<path opacity="0.54" d="M137.685 600.937L82.5416 459.662C81.8583 456.929 81.8075 454.075 82.3917 451.319C82.9768 448.563 84.1824 445.975 85.9164 443.754C87.6512 441.534 89.8687 439.737 92.4019 438.502C94.9343 437.266 97.7156 436.625 100.533 436.625H319.566C324.484 436.624 329.259 438.279 333.123 441.324C336.985 444.367 339.711 448.624 340.86 453.406L401.227 594.647C401.88 597.371 401.906 600.208 401.305 602.945C400.703 605.681 399.49 608.246 397.755 610.445C396.02 612.646 393.809 614.424 391.289 615.647C388.768 616.87 386.003 617.506 383.201 617.507H158.928C154.046 617.51 149.304 615.88 145.455 612.878C141.606 609.876 138.871 605.673 137.685 600.937Z" fill="white"/>
<path d="M398.526 466.419C398.526 466.419 403.089 470.601 401.354 476.579C400.067 481.007 395.664 483.801 391.304 482.285C377.419 477.485 364.913 469.331 361.865 455.472C360.425 448.454 360.114 441.252 360.942 434.135C361.611 427.54 362.585 420.42 364.803 414.146C368.19 404.511 378.562 397.797 388.628 402.436" stroke="black" stroke-width="5.47" stroke-miterlimit="10"/>
<path d="M137.685 600.937L82.5416 459.662C81.8583 456.929 81.8075 454.075 82.3917 451.319C82.9768 448.563 84.1824 445.975 85.9164 443.754C87.6512 441.534 89.8687 439.737 92.4019 438.502C94.9343 437.266 97.7156 436.625 100.533 436.625H319.566C324.484 436.624 329.259 438.279 333.123 441.324C336.985 444.367 339.711 448.624 340.86 453.406L401.227 594.647C401.88 597.371 401.906 600.208 401.305 602.945C400.703 605.681 399.49 608.246 397.755 610.445C396.02 612.646 393.809 614.424 391.289 615.647C388.768 616.87 386.003 617.506 383.201 617.507H158.928C154.046 617.51 149.304 615.88 145.455 612.878C141.606 609.876 138.871 605.673 137.685 600.937Z" fill="#1A69FF" fill-opacity="0.8"/>
<path d="M137.685 600.937L82.5416 459.662C81.8583 456.929 81.8075 454.075 82.3917 451.319C82.9768 448.563 84.1824 445.975 85.9164 443.754C87.6512 441.534 89.8687 439.737 92.4019 438.502C94.9343 437.266 97.7156 436.625 100.533 436.625H319.566C324.484 436.624 329.259 438.279 333.123 441.324C336.985 444.367 339.711 448.624 340.86 453.406L401.227 594.647C401.88 597.371 401.906 600.208 401.305 602.945C400.703 605.681 399.49 608.246 397.755 610.445C396.02 612.646 393.809 614.424 391.289 615.647C388.768 616.87 386.003 617.506 383.201 617.507H158.928C154.046 617.51 149.304 615.88 145.455 612.878C141.606 609.876 138.871 605.673 137.685 600.937Z" stroke="black" stroke-width="5.47" stroke-linecap="square" stroke-linejoin="round"/>
<path d="M145.754 595.248L94.8775 464.861C94.2485 462.339 94.2027 459.706 94.7429 457.164C95.2831 454.621 96.3956 452.235 97.9966 450.187C99.5968 448.139 101.643 446.482 103.979 445.342C106.316 444.202 108.881 443.61 111.481 443.61H313.546C318.083 443.608 322.488 445.135 326.051 447.942C329.615 450.75 332.13 454.676 333.189 459.087L388.891 589.397C389.492 591.912 389.516 594.53 388.96 597.054C388.405 599.579 387.284 601.945 385.683 603.974C384.083 606.004 382.042 607.645 379.717 608.772C377.391 609.901 374.839 610.488 372.254 610.488H165.346C160.849 610.492 156.48 608.994 152.932 606.234C149.383 603.473 146.857 599.607 145.754 595.248Z" fill="#1A69FF"/>
<path d="M578.206 574.794L616.949 664.448" stroke="black" stroke-width="5.47" stroke-miterlimit="10"/>
<path d="M762 664.447H0" stroke="black" stroke-width="5.47" stroke-miterlimit="10"/>
<path d="M401.633 259.808C395.351 266.014 385.97 266.005 380.627 260.265" stroke="black" stroke-width="5.47" stroke-miterlimit="10"/>
<path d="M234.205 236.38C237.634 233.172 241.706 229.929 245.999 231.351C250.63 232.892 251.926 238.7 252.451 243.543C253.935 256.853 255.417 270.149 256.896 283.431C258.775 300.364 260.756 317.703 267.792 333.265C271.195 340.87 276.003 347.765 281.965 353.584" stroke="black" stroke-width="5.47" stroke-miterlimit="10"/>
<path d="M320.497 353.483V353.203C320.024 347.747 317.956 342.549 314.554 338.257C311.15 333.966 306.559 330.769 301.354 329.065C295.913 338.007 289.402 346.252 281.965 353.618C262.469 373.004 237.424 385.843 210.304 390.355C211.607 395.545 214.291 400.27 216.146 405.265C218 410.26 218.923 416.043 216.67 420.861C213.826 427.007 205.664 426.203 199.991 424.84C199.932 424.84 199.898 424.84 199.839 424.84" stroke="black" stroke-width="5.47" stroke-miterlimit="10"/>
<path d="M170.637 267.192C161.154 269.233 151.553 270.714 141.918 272.044C146.736 317.053 155.846 362.502 177.893 402.083C182.49 410.355 188.383 419.406 197.189 423.724C198.087 424.16 199.015 424.531 199.966 424.833C208.796 427.737 219.668 425.358 228.033 422.615C248.353 415.977 268.969 408.01 287.494 397.359C303.488 388.189 322.571 373.305 320.514 353.485C320.315 351.302 319.869 349.149 319.185 347.067" stroke="black" stroke-width="5.47" stroke-miterlimit="10"/>
<path d="M329.201 177.409C330.622 183.334 333.865 188.663 338.475 192.646C343.085 196.629 348.829 199.064 354.897 199.609C355.401 197.165 356.494 194.88 358.081 192.955C364.854 184.971 367.741 199.948 389.407 189.196C419.43 174.261 430.826 182.829 430.826 182.829C431.825 183.574 431.673 190.448 431.842 191.701C432.689 198.838 433.451 205.942 434.289 213.071C434.797 217.423 435.297 221.742 435.771 226.06C436.18 225.325 436.632 224.614 437.125 223.934C439.86 214.256 444.745 202.827 455.278 207.746C457.411 208.786 459.268 210.314 460.697 212.207C467.682 221.385 462.39 230.25 455.083 236.811C453.252 238.848 451.205 240.678 448.979 242.273C450.181 244.762 455.092 254.643 455.092 254.677C455.6 255.676 472.762 236.253 474.04 234.136C475.95 228.951 476.975 223.481 477.071 217.957C477.351 195.241 468.105 168.799 449.707 155.768C445.143 152.543 446.6 149.435 446.32 145.05C446.301 144.813 446.21 144.587 446.06 144.403C445.91 144.218 445.706 144.084 445.479 144.017C445.25 143.95 445.007 143.954 444.781 144.028C444.555 144.102 444.357 144.243 444.212 144.432C438.446 151.07 424.172 150.41 424.172 150.41C374.625 137.998 357.971 160.028 347.972 163.957C343.891 165.502 339.401 165.576 335.272 164.168C335.029 165.535 334.416 166.809 333.502 167.854C332.587 168.899 331.405 169.673 330.081 170.095L330.335 172.389C330.551 174.144 330.15 175.918 329.201 177.409Z" fill="#FFC52A"/>
<path d="M354.931 199.646C348.863 199.101 343.119 196.666 338.509 192.683C333.899 188.7 330.655 183.371 329.235 177.447C328.679 175.174 328.327 172.856 328.185 170.521L328.574 170.478C329.107 170.439 329.631 170.324 330.132 170.14C331.456 169.718 332.638 168.943 333.553 167.899C334.467 166.855 335.079 165.58 335.322 164.213C335.477 163.455 335.509 162.677 335.415 161.91L334.145 150.7C334.145 150.7 343.103 157.364 353.043 153.469C362.983 149.574 379.671 127.544 429.243 139.922C429.243 139.922 440.436 140.583 446.176 133.945C446.321 133.755 446.519 133.615 446.745 133.541C446.971 133.466 447.214 133.463 447.443 133.53C447.671 133.597 447.874 133.731 448.024 133.915C448.175 134.1 448.265 134.326 448.285 134.563C448.581 138.957 450.207 142.064 454.779 145.282C473.177 158.32 482.422 184.753 482.134 207.469C482.05 216.893 478.917 226.198 474.083 234.182C472.804 236.298 455.642 255.721 455.134 254.722C455.134 254.722 450.223 244.807 449.021 242.318L448.733 241.768L449.284 241.404C451.328 240.016 453.279 238.497 455.126 236.857C462.424 230.295 467.724 221.431 460.739 212.253C459.309 210.36 457.453 208.831 455.32 207.791C444.754 202.872 439.903 214.302 437.168 223.979C436.637 225.828 436.31 227.731 436.194 229.652C436.067 228.467 435.94 227.324 435.813 226.138C435.339 221.82 434.84 217.502 434.332 213.15C433.485 206.022 432.689 198.918 431.885 191.781C431.758 190.561 431.885 183.653 430.869 182.908C430.869 182.908 419.464 174.339 389.45 189.274C367.784 200.027 364.896 185.041 358.123 193.034C356.536 194.96 355.443 197.244 354.94 199.688C354.785 200.473 354.686 201.268 354.643 202.068C354.627 202.171 354.627 202.277 354.643 202.381C354.542 204.133 354.508 205.878 354.465 207.588C354.305 224.089 356.116 241.328 362.593 256.652C370.467 275.228 391.304 293.55 412.97 284.889C419.743 282.171 425.814 277.793 431.368 273.145" stroke="black" stroke-width="5.47" stroke-miterlimit="10"/>
<path d="M369.758 239.892C371.913 239.17 372.952 236.472 372.08 233.865C371.208 231.257 368.754 229.728 366.598 230.45C364.443 231.17 363.404 233.868 364.276 236.476C365.149 239.084 367.603 240.613 369.758 239.892Z" fill="black"/>
<path d="M401.996 238.859C404.15 238.139 405.19 235.441 404.318 232.833C403.445 230.225 400.991 228.696 398.836 229.417C396.681 230.139 395.641 232.837 396.513 235.444C397.385 238.052 399.84 239.581 401.996 238.859Z" fill="black"/>
<path d="M389.67 244.443C389.67 244.443 378.943 250.531 378.291 244.215C378.088 242.267 375.463 223.192 375.463 223.192C375.463 223.192 366.793 214.006 353.509 220.796" stroke="black" stroke-width="5.47" stroke-miterlimit="10"/>
<path d="M387.257 217.847C387.257 217.847 404.58 209.194 416.044 221.665" stroke="black" stroke-width="5.47" stroke-miterlimit="10"/>
<path d="M403.14 287.013L405.13 297.224C398.856 303.006 394.42 311.295 395.715 320.024C396.867 327.763 403.2 334.968 409.694 339.023C420.548 345.797 434.983 345.263 446.667 340.954C458.089 336.721 467.97 328.686 475.132 318.881C478.505 314.142 480.753 308.695 481.702 302.956V302.854" stroke="black" stroke-width="5.47" stroke-miterlimit="10"/>
<path d="M405.13 297.223L409.008 315.663" stroke="black" stroke-width="5.47" stroke-miterlimit="10"/>
<path d="M459.969 250.276L465.828 289.18C466.405 292.989 468.33 296.463 471.253 298.972C474.176 301.481 477.901 302.859 481.753 302.854C499.988 305.809 517.975 310.122 535.567 315.757C604.291 337.923 646.591 399.831 658.537 469.004C663.507 497.968 663.88 528.347 657.64 557.15C654.092 573.364 648.961 591.576 637.049 603.717C621.58 619.55 597.84 613.03 579.56 605.876C522.808 583.803 475.606 544.535 434.848 499.577C413.055 475.532 384.895 456.262 384.895 456.262" stroke="black" stroke-width="5.47" stroke-miterlimit="10"/>
<path d="M164.507 566.067C158.14 566.007 152.595 560.868 151.164 553.714C148.336 539.642 147.591 517.883 168.224 513.133C194.005 507.206 213.834 535.282 223.554 553.028C226.822 558.955 223.122 566.575 217.035 566.575L164.507 566.067Z" fill="#D7E8F0"/>
<path d="M173.019 501.185C178.492 497.542 178.576 488.048 173.206 479.978C167.836 471.908 159.046 468.318 153.573 471.96C148.099 475.603 148.015 485.097 153.385 493.167C158.755 501.237 167.545 504.827 173.019 501.185Z" fill="#D7E8F0"/>
<path d="M596.705 627.523C596.307 627.582 595.859 627.641 595.469 627.734H595.317L535.093 627.421L444.729 626.955C444.381 626.955 444.043 626.955 443.704 626.955C443.033 626.939 442.363 626.889 441.698 626.803C447.82 626.092 453.495 623.244 457.725 618.761C461.954 614.277 464.467 608.446 464.82 602.292C464.837 601.974 464.837 601.655 464.82 601.335V600.844C464.795 594.824 462.697 588.995 458.879 584.339C455.061 579.684 449.756 576.486 443.856 575.283C443.238 575.131 442.561 575.038 441.909 574.945C442.934 574.852 443.95 574.784 444.94 574.784L521.284 575.19L535.339 575.25L554.296 575.343C560.786 575.935 566.823 578.927 571.225 583.735C575.626 588.541 578.076 594.818 578.095 601.335C578.096 602.566 578.003 603.794 577.816 605.01C576.914 611.215 573.814 616.89 569.081 621.003C564.348 625.116 558.297 627.393 552.027 627.421H597.899C595.257 627.421 595.994 627.421 596.705 627.523Z" fill="white"/>
<path d="M474.548 659.014C476.269 660.743 478.315 662.115 480.569 663.048C482.824 663.981 485.241 664.457 487.68 664.449H443.332C434.865 664.449 430.242 662.383 426.872 659.014C423.41 655.536 421.46 650.831 421.445 645.924C421.445 635.764 429.776 627.433 443.332 627.433H487.68C484.019 627.427 480.438 628.508 477.392 630.54C474.346 632.571 471.971 635.461 470.57 638.843C469.168 642.226 468.801 645.949 469.517 649.539C470.233 653.13 471.999 656.427 474.591 659.014H474.548Z" fill="#D7E8F0"/>
<path d="M621.013 601.801C621.002 605.712 620.092 609.567 618.355 613.07C617.113 615.718 615.411 618.124 613.325 620.174C609.887 623.581 605.569 625.964 600.854 627.057C598.91 627.506 596.922 627.733 594.927 627.734C595.334 627.641 595.774 627.582 596.163 627.523C595.452 627.455 594.716 627.43 597.366 627.43H551.485C557.76 627.406 563.817 625.128 568.553 621.014C573.289 616.899 576.39 611.219 577.291 605.01C577.478 603.794 577.572 602.565 577.571 601.335C577.551 594.817 575.1 588.54 570.697 583.732C566.293 578.925 560.255 575.934 553.762 575.343L578.527 575.47L595.071 575.563C601.985 575.621 608.594 578.413 613.455 583.33C618.316 588.247 621.033 594.887 621.013 601.801Z" fill="#00C66C"/>
<path d="M621.013 601.794C620.961 608.712 618.171 615.327 613.251 620.191C608.332 625.056 601.685 627.772 594.766 627.745L444.128 626.966C443.12 626.966 442.112 626.889 441.096 626.788C447.446 626.068 453.311 623.045 457.581 618.289C461.85 613.534 464.227 607.378 464.26 600.987C464.293 594.598 461.981 588.417 457.762 583.617C453.542 578.817 447.71 575.732 441.367 574.946C442.374 574.841 443.386 574.79 444.398 574.794L595.037 575.573C601.955 575.62 608.571 578.406 613.44 583.32C618.308 588.234 621.031 594.877 621.013 601.794Z" stroke="black" stroke-width="5.47" stroke-linecap="square" stroke-linejoin="round"/>
<path d="M577.554 601.328C577.54 608.244 574.787 614.873 569.896 619.764C565.005 624.655 558.376 627.408 551.459 627.422H444.28C443.267 627.416 442.255 627.359 441.249 627.253C447.594 626.499 453.443 623.444 457.687 618.667C461.93 613.89 464.274 607.722 464.274 601.332C464.274 594.942 461.93 588.774 457.687 583.996C453.443 579.219 447.594 576.165 441.249 575.411C442.256 575.318 443.272 575.25 444.28 575.25H551.459C558.372 575.266 564.998 578.018 569.888 582.904C574.777 587.791 577.533 594.415 577.554 601.328Z" stroke="black" stroke-width="5.47" stroke-linecap="square" stroke-linejoin="round"/>
<path d="M421.445 645.929C421.444 648.357 421.923 650.762 422.852 653.006C423.783 655.248 425.145 657.286 426.864 659.002C430.251 662.388 434.848 664.446 443.323 664.446H597.357C594.707 664.446 595.427 664.395 596.146 664.327C591.64 663.797 587.484 661.631 584.468 658.239C581.453 654.848 579.787 650.467 579.787 645.929C579.787 641.391 581.453 637.011 584.468 633.619C587.484 630.229 591.64 628.062 596.146 627.531C595.427 627.463 594.707 627.413 597.357 627.413H443.323C429.76 627.421 421.445 635.752 421.445 645.929Z" stroke="black" stroke-width="5.47" stroke-linecap="square" stroke-linejoin="round"/>
<path d="M469.113 645.929C469.124 650.837 471.079 655.541 474.548 659.01C478.019 662.481 482.722 664.435 487.629 664.446H593.996C594.707 664.446 595.427 664.395 596.147 664.327C591.64 663.797 587.484 661.631 584.468 658.239C581.453 654.848 579.787 650.467 579.787 645.929C579.787 641.391 581.453 637.011 584.468 633.619C587.484 630.229 591.64 628.062 596.147 627.531C595.427 627.463 594.707 627.413 593.996 627.413H487.629C482.723 627.426 478.02 629.381 474.551 632.851C471.081 636.32 469.126 641.023 469.113 645.929Z" stroke="black" stroke-width="5.47" stroke-linecap="square" stroke-linejoin="round"/>
<path d="M296.689 504.656H249.174C247 504.653 244.874 504.016 243.055 502.826C241.237 501.635 239.803 499.942 238.929 497.951C238.592 497.21 238.448 496.395 238.51 495.583C238.572 494.771 238.839 493.989 239.285 493.307C239.731 492.627 240.343 492.07 241.062 491.688C241.782 491.307 242.585 491.114 243.4 491.126H293.912C291.533 495.131 292.744 500.694 296.689 504.656Z" fill="#D7E8F0"/>
<path d="M327.415 499.761C327.412 501.056 326.897 502.297 325.981 503.212C325.066 504.129 323.825 504.644 322.529 504.646H296.689C292.744 500.692 291.533 495.129 293.912 491.099H316.73C318.901 491.1 321.026 491.731 322.846 492.914C324.665 494.099 326.103 495.786 326.983 497.771C327.256 498.4 327.403 499.076 327.415 499.761Z" fill="#1A69FF" fill-opacity="0.8"/>
<path d="M315.527 504.655C315.394 504.913 315.238 505.16 315.062 505.392C311.675 510.023 304.317 510.472 298.602 506.289C297.927 505.791 297.288 505.245 296.689 504.655C292.744 500.701 291.533 495.139 293.912 491.109C294.046 490.85 294.202 490.604 294.378 490.372C297.764 485.707 305.088 485.292 310.803 489.441C311.491 489.955 312.139 490.522 312.742 491.134C316.653 495.071 317.873 500.6 315.527 504.655Z" fill="white"/>
<path d="M339.361 529.591C339.352 530.887 338.831 532.128 337.911 533.041C336.991 533.955 335.746 534.468 334.45 534.468H284.59C286.995 530.421 285.792 524.901 281.838 520.921H328.676C330.851 520.922 332.978 521.556 334.799 522.744C336.619 523.934 338.055 525.627 338.929 527.618C339.209 528.239 339.355 528.91 339.361 529.591Z" fill="#1A69FF" fill-opacity="0.8"/>
<path d="M284.59 534.465H261.129C258.957 534.467 256.831 533.837 255.011 532.653C253.191 531.468 251.754 529.78 250.876 527.794C250.599 527.172 250.453 526.502 250.444 525.821C250.443 525.181 250.569 524.546 250.813 523.953C251.058 523.361 251.417 522.824 251.87 522.37C252.323 521.917 252.861 521.558 253.453 521.313C254.046 521.069 254.68 520.943 255.321 520.944H281.839C285.792 524.898 287.02 530.418 284.59 534.465Z" fill="#D7E8F0"/>
<path d="M284.59 534.466C284.48 534.732 284.334 534.983 284.158 535.212C280.772 539.868 273.44 540.292 267.733 536.134C267.042 535.62 266.392 535.053 265.786 534.441C261.866 530.487 260.663 524.967 263.009 520.894C263.144 520.634 263.3 520.385 263.474 520.149C266.861 515.518 274.219 515.069 279.925 519.26C280.605 519.754 281.244 520.3 281.839 520.894C285.792 524.899 287.02 530.419 284.59 534.466Z" fill="white"/>
<path d="M301.202 564.076H271.348C269.177 564.073 267.054 563.442 265.234 562.258C263.414 561.074 261.976 559.388 261.095 557.404C260.759 556.661 260.616 555.845 260.679 555.032C260.742 554.218 261.009 553.434 261.455 552.751C261.902 552.069 262.513 551.509 263.233 551.125C263.953 550.741 264.758 550.545 265.574 550.555H298.425C296.071 554.61 297.282 560.122 301.202 564.076Z" fill="#1A69FF" fill-opacity="0.8"/>
<path d="M349.58 559.232C349.573 560.52 349.056 561.754 348.142 562.661C347.228 563.569 345.991 564.077 344.703 564.075H301.202C297.282 560.121 296.071 554.601 298.425 550.529H338.895C341.069 550.529 343.197 551.163 345.018 552.351C346.839 553.541 348.274 555.234 349.148 557.226C349.427 557.858 349.574 558.541 349.58 559.232Z" fill="#D7E8F0"/>
<path d="M320.04 564.076C319.905 564.336 319.749 564.585 319.574 564.821C316.188 569.478 308.864 569.901 303.149 565.744C302.462 565.227 301.815 564.661 301.21 564.051C297.29 560.097 296.079 554.576 298.433 550.504C298.563 550.242 298.715 549.993 298.89 549.759C302.277 545.128 309.634 544.73 315.349 548.87C316.028 549.363 316.669 549.91 317.263 550.504C321.208 554.509 322.411 560.063 320.04 564.076Z" fill="white"/>
<path d="M94.4965 294.15L95.2415 294.362L94.9621 295.446C94.7852 295.022 94.6294 294.59 94.4965 294.15Z" fill="#353642"/>
<path d="M226.996 361.887C238.142 358.615 243.997 345.135 240.076 331.778C236.156 318.422 223.942 310.245 212.798 313.517C201.652 316.789 195.797 330.269 199.718 343.626C203.638 356.983 215.852 365.158 226.996 361.887Z" fill="#D7E8F0"/>
</svg>
