<svg width="24" height="25" viewBox="0 0 24 25" fill="none" xmlns="http://www.w3.org/2000/svg">
<path d="M19 8.33333C19 7.50453 18.6837 6.70991 18.1211 6.12386C17.5585 5.53781 16.7956 5.20833 16 5.20833H8C7.20435 5.20833 6.44152 5.53781 5.87891 6.12386C5.3163 6.70991 5 7.50453 5 8.33333V16.6667C5 17.4955 5.3163 18.2901 5.87891 18.8761C6.44152 19.4622 7.20435 19.7917 8 19.7917H16C16.7956 19.7917 17.5585 19.4622 18.1211 18.8761C18.6837 18.2901 19 17.4955 19 16.6667V8.33333ZM21 16.6667C21 18.048 20.4733 19.3729 19.5356 20.3496C18.598 21.3264 17.3261 21.875 16 21.875H8C6.67392 21.875 5.40204 21.3264 4.46436 20.3496C3.52667 19.3729 3 18.048 3 16.6667V8.33333C3 6.952 3.52667 5.62712 4.46436 4.65037C5.40204 3.67362 6.67392 3.125 8 3.125H16C17.3261 3.125 18.598 3.67362 19.5356 4.65037C20.4733 5.62712 21 6.952 21 8.33333V16.6667Z" fill="#FFFFF3" fill-opacity="0.5"/>
<path d="M14 12.4999C14 11.9474 13.7891 11.4176 13.4141 11.0269C13.039 10.6362 12.5304 10.4166 12 10.4166C11.4696 10.4166 10.961 10.6362 10.5859 11.0269C10.2109 11.4176 10 11.9474 10 12.4999C10 13.0525 10.2109 13.5822 10.5859 13.9729C10.961 14.3636 11.4696 14.5833 12 14.5833C12.5304 14.5833 13.039 14.3636 13.4141 13.9729C13.7891 13.5822 14 13.0525 14 12.4999ZM15.5 7.82259V7.81242C15.5 7.23712 15.9477 6.77075 16.5 6.77075C17.0523 6.77075 17.5 7.23712 17.5 7.81242V7.82259C17.5 8.39789 17.0523 8.86426 16.5 8.86426C15.9477 8.86426 15.5 8.39789 15.5 7.82259ZM16 12.4999C16 13.605 15.5788 14.665 14.8286 15.4464C14.0785 16.2278 13.0609 16.6666 12 16.6666C10.9391 16.6666 9.92153 16.2278 9.17139 15.4464C8.42124 14.665 8 13.605 8 12.4999C8 11.3949 8.42124 10.3348 9.17139 9.55345C9.92153 8.77204 10.9391 8.33325 12 8.33325C13.0609 8.33325 14.0785 8.77204 14.8286 9.55345C15.5788 10.3348 16 11.3949 16 12.4999Z" fill="#FFFFF3" fill-opacity="0.5"/>
</svg>
