<svg width="272" height="246" viewBox="0 0 272 246" fill="none" xmlns="http://www.w3.org/2000/svg">
<g clip-path="url(#clip0_16_366)">
<path d="M76.98 119.51C75.85 116.33 74.85 112.37 74.32 108.21C75.18 117.38 77.64 127.51 83.17 134.48C84.09 135.24 85.07 135.92 86.12 136.51C83.67 130.43 79.28 126.03 76.98 119.51ZM264.17 159.04C235.15 151.66 207.08 139.76 178.11 132.39C171.16 130.62 169.7 135.64 162.25 126.2C149.93 110.61 156.43 77.12 130.54 79.42C148.17 64.1 156.8 46.11 146.19 23.35C143.78 18.17 139.16 12.14 134.63 8.73996C97.3501 -19.26 51.8 25.79 73.68 62.56C76.26 66.89 93.47 79.35 90.88 82.6C77.05 71.48 76.44 86.2 71.38 93.22C70.59 94.32 68.01 94.72 67.14 96.04C62.84 102.58 58.84 107.57 58.44 115.95L56.82 117.44C50.6 112.87 30.92 111.38 34.04 122.69C35.53 128.08 56.83 137.47 62.88 141.54C75.41 149.96 86.85 159.94 99.58 168.26C106.7 172.9 129.89 183.98 133.74 188.05C137.45 191.96 129.1 203.23 137.86 209.26L249.51 245.11C254.22 243.08 268.13 212.99 269.59 206.59C272.01 196 275.17 164.82 264.17 159.04ZM82.34 68.17C67.56 51.33 68.18 27.85 85.3 12.79C117.41 -15.45 166.06 26.28 140.74 63.47C135.41 71.3 123.54 75.51 125.77 87.37C122.15 87.57 122.92 87.91 122.57 84.97C122.47 84.13 122.4 83.28 122.37 82.43C122.06 73.61 125.59 64.52 132.12 58.84L125.79 61.99L125.58 61.58L124.63 59.67L122.61 55.64L122.24 56.87L120.23 63.54L118.26 62.77L116.26 61.99C116.26 61.99 116.22 61.9 116.22 61.82C116.22 61.58 116.34 61.11 116.55 60.48C117.88 56.23 122.6 44.53 115.45 42.97C114.59 42.78 113.8 43.07 113.11 43.69C111.26 45.34 110.14 49.36 110.24 53C110.3 55.16 110.78 57.19 111.81 58.52C112.16 58.98 112.58 59.35 113.06 59.62L110.91 60.96L106.76 63.56C111.62 62.55 115.45 62.83 119.52 65.11C120.06 65.42 120.6 65.75 121.15 66.13L117.62 87.14L102.06 87.29L97.27 63.67C97.94 63.77 98.6001 63.76 99.23 63.64C103.72 62.85 107.41 57.13 108.43 52.13C108.44 52.11 108.44 52.09 108.45 52.06C109.1 48.81 108.62 45.88 106.5 44.8C106.33 44.71 106.14 44.63 105.94 44.57C97.47 41.87 101.65 54.99 101.37 58.27C101.35 58.52 101.31 58.7 101.23 58.83C98.87 62.56 96.15 57.82 93.78 57.13C93.33 57 92.9 57.01 92.48 57.25L89.31 62L95.45 67.75L97.76 82.35L98.81 88.95L94.06 86.21C95.82 75.82 87.16 73.65 82.34 68.17ZM92.48 106.23V100.05C103.83 100.77 114.99 98.66 125.77 95.29L125.59 101.46L92.49 106.38H92.48V106.23ZM92.47 98.45L92.6 92.23C103.86 89.57 114.18 93.79 125.77 90.55L113.15 96.13L92.47 98.45ZM99.6 107.99C107.98 106.93 117.47 107.76 125.01 103.24L125.77 106.36C124.05 108.14 101.4 112.55 97.24 111.12C95.04 108.72 97.39 108.27 99.6 107.99ZM112.1 121.99C113.01 121.68 125.1 109.24 127.36 111.16C124.71 127.18 120.15 129.46 105.17 123.81C105.01 120.8 109.64 122.83 112.1 121.99ZM40.94 124.89C38.33 122.88 36.75 121.11 37 119.89C48.16 114.48 53 117.06 56.73 122.28C59.31 125.88 61.36 130.74 64.61 135.09C65.82 136.72 64.76 138.72 67.86 138.25C68.11 138.21 68.38 138.16 68.69 138.09L60.79 119.84L63.92 119.08C63.86 119.76 64.37 121.38 65.24 123.42C67.61 128.99 72.62 137.76 75.98 139.71C76.86 140.21 77.62 140.26 78.2 139.67C77.56 135.2 73.38 132.55 71.26 128.4C66.81 119.72 61.05 105.78 70.27 98.47C70.33 100.83 70.49 103.35 70.78 105.92C71.96 116.53 75.35 128.13 83.17 134.48C84.09 135.24 85.07 135.92 86.12 136.51C83.67 130.43 79.28 126.03 76.98 119.51C75.85 116.33 74.85 112.37 74.32 108.21C74.06 106.25 73.91 104.26 73.9 102.28C73.82 93.33 76.55 84.82 85.3 82.61C86.03 84.06 86.59 85.54 87.01 87.03C89.61 96.14 87.37 105.93 91.68 115.9C92.62 118.06 94.47 120.23 96.88 122.2C105.46 129.24 121.07 133.81 126.9 126.55C131.67 120.61 128.85 113.72 129.12 108.6C129.31 104.92 130.55 101.64 130.67 97.69C130.84 91.92 126.32 78.43 138.99 82.82C140.59 83.37 142.04 84.82 143.36 86.88C149.49 96.37 153.11 118.8 157.75 125.95C159.04 127.94 160.64 129.58 162.38 131.03C167.26 135.11 173.33 137.76 177.35 142.9C177.35 142.91 177.36 142.92 177.36 142.93C180.79 152.92 162.21 192.97 153.53 193.01C149.11 193.03 118.48 176.25 112.58 172.7C97.65 163.71 84.41 151.74 70.18 142.16C66.31 139.56 48.9 131.06 40.95 124.9H40.94V124.89ZM171.25 217.03C159.03 209.98 129.96 212.02 136.89 192.01L138.67 202.88C141.3 207.06 150.51 201.21 156.32 196.65C158.33 195.08 159.93 193.66 160.72 192.86C172.49 180.93 178.78 163.15 180.69 146.23C181 143.49 181.2 140.77 181.28 138.1L196.75 141.64C202.47 166.11 196.06 204.66 171.25 217.03ZM237.9 208.2C236.25 213.92 234.06 221.89 231.3 226.97C223.33 241.59 215.94 229.14 203.44 227.71C200.92 225.69 202.41 226.11 203.46 224.51C205.42 221.53 209.2 219.23 211.71 215.31C222.66 198.17 223.69 168.85 220.92 149.2L241.15 155.91C246.58 173.64 242.91 190.87 237.9 208.2ZM110.24 53C110.3 55.16 110.78 57.19 111.81 58.52L112.66 57.99C111.19 57.16 110.43 55.22 110.24 53ZM115.45 42.97C114.59 42.78 113.8 43.07 113.11 43.69C113.61 43.37 114.16 43.24 114.76 43.37C122.27 45 114.86 59.38 115.47 60.06L116.55 60.48C117.88 56.23 122.6 44.53 115.45 42.97Z" fill="black"/>
<path d="M140.74 63.47C135.41 71.3 123.54 75.51 125.77 87.37C122.15 87.57 122.92 87.91 122.57 84.97C122.47 84.13 122.4 83.28 122.37 82.43C122.73 82.41 123.2 82.37 123.82 82.34C121.86 71.94 132.28 68.23 136.96 61.37C159.18 28.72 116.48 -7.91 88.29 16.88C73.27 30.09 72.72 50.71 85.7 65.48C89.93 70.3 97.53 72.2 95.98 81.32L97.76 82.35L98.81 88.95L94.06 86.21C95.82 75.82 87.16 73.65 82.34 68.17C67.56 51.33 68.18 27.85 85.3 12.79C117.41 -15.45 166.06 26.28 140.74 63.47Z" fill="#FFC52A"/>
<path d="M52.83 54.0699C53.61 58.4899 51.9 56.7299 49.36 57.6399C40.82 60.6799 30.17 62.2499 21.14 61.9799L52.83 54.0699Z" fill="black"/>
<path d="M52.85 25.53C54.06 31.81 46.05 26.92 42.99 26.65L25.9 17.6C35.41 18.52 43.15 25.87 52.85 25.52V25.53Z" fill="black"/>
<path d="M153.53 193.01C149.11 193.03 118.48 176.25 112.58 172.7C97.65 163.71 84.41 151.74 70.18 142.16C66.31 139.56 48.9 131.06 40.95 124.9H40.94C40.7 124.43 40.61 124.02 40.69 123.65C48.59 119.83 53.32 120 56.73 122.28C59.31 125.88 61.36 130.74 64.61 135.09C65.82 136.72 64.76 138.72 67.86 138.25C68 138.45 68.15 138.66 68.3 138.86C69.62 140.62 68.26 142.81 72.38 141.85L64.48 123.6L65.24 123.42C67.61 128.99 72.62 137.76 75.98 139.71C78.32 142.85 80.58 144.77 81.89 143.44C81.25 138.96 77.07 136.31 74.95 132.17C71.17 124.79 66.43 113.6 70.78 105.92C71.96 116.53 75.35 128.13 83.17 134.48C85.01 136.82 87.21 138.81 89.81 140.28C87.36 134.2 82.97 129.79 80.67 123.28C76.8 112.35 74.43 92.14 87.01 87.03C89.61 96.14 87.37 105.93 91.68 115.9C92.62 118.06 94.47 120.23 96.88 122.2C103.56 131.11 123.77 138.81 130.59 130.32C135.36 124.38 132.54 117.49 132.81 112.37C133 108.68 134.25 105.4 134.36 101.46C134.53 95.68 130.01 82.2 142.68 86.58C142.91 86.66 143.14 86.76 143.36 86.88C149.49 96.37 153.11 118.8 157.75 125.95C159.04 127.94 160.64 129.58 162.38 131.03C166.38 136.19 172.45 138.85 177.36 142.93C180.79 152.92 162.21 192.97 153.53 193.01Z" fill="#FFFFF3"/>
<path d="M189.86 75.68C190.225 71.9077 190.182 68.1498 189.861 64.4115C189.542 60.7075 188.951 57.0229 188.215 53.3626C187.993 52.2586 187.758 51.1568 187.513 50.0574C187.151 48.4354 186.768 46.8185 186.376 45.2071C186.029 43.7836 185.675 42.3645 185.32 40.95L183.12 42.64C184.232 43.4635 185.318 44.3197 186.376 45.2071C187.531 46.176 188.654 47.182 189.743 48.2228C190.465 48.913 191.172 49.6185 191.863 50.3386C193.085 51.6107 194.258 52.9286 195.381 54.2887C196.146 55.2153 196.887 56.1616 197.604 57.1264C199.216 59.2945 200.706 61.5558 202.065 63.8975C202.384 64.4473 202.696 65.0015 203 65.56L203.9 63.36C203.291 63.5634 202.679 63.7421 202.065 63.8975C199.671 64.5038 197.247 64.7573 194.817 64.752C193.764 64.7497 192.71 64.6988 191.657 64.6068C191.058 64.5545 190.459 64.4889 189.861 64.4115C188.843 64.2797 187.827 64.1136 186.816 63.9201C184.015 63.3845 181.244 62.6389 178.54 61.83C177.58 61.54 176.62 61.25 175.67 60.94C175.371 60.8461 175.071 60.7488 174.772 60.652C174.561 60.5839 174.351 60.5161 174.14 60.45C173.96 60.39 173.53 60.15 173.4 60.21C173.18 60.1 173.19 60.25 173.41 60.66C173.34 61.11 173.41 61.25 173.63 61.07C173.806 61.1071 174.491 60.7654 174.772 60.652C174.794 60.6432 174.813 60.6358 174.83 60.63C175.3 60.47 175.77 60.31 176.24 60.14C177.16 59.8 178.07 59.42 178.97 59.02C181.29 57.9926 183.478 56.7426 185.556 55.3202C186.463 54.6992 187.349 54.0453 188.215 53.3626C188.512 53.1284 188.807 52.8908 189.1 52.65C190.008 51.9029 190.922 51.1034 191.863 50.3386C192.642 49.7064 193.44 49.0978 194.27 48.5621C195.284 47.9075 196.347 47.3617 197.482 47.0143C198.13 46.816 198.801 46.6824 199.5 46.63L198.05 44.73C197.868 45.4924 197.678 46.2538 197.482 47.0143C197.146 48.3152 196.789 49.6131 196.412 50.9069C196.083 52.0374 195.739 53.1649 195.381 54.2887C194.271 57.769 193.023 61.2144 191.657 64.6068C190.246 68.1111 188.71 71.5588 187.07 74.93C186.23 76.66 188.81 78.18 189.66 76.44C191.514 72.6312 193.245 68.726 194.817 64.752C195.813 62.2354 196.745 59.6912 197.604 57.1264C198.887 53.2992 200.009 49.426 200.94 45.53C201.15 44.65 200.5 43.56 199.49 43.63C195.678 43.9085 192.616 45.9142 189.743 48.2228C189.315 48.5667 188.891 48.9174 188.47 49.27C188.152 49.5354 187.833 49.798 187.513 50.0574C184.221 52.7205 180.766 55.0507 176.82 56.7C175.77 57.14 174.69 57.51 173.61 57.87C172.65 58.19 171.67 58.55 171.05 59.4C170.53 60.12 170.42 61.06 170.85 61.85C171.39 62.83 172.56 63.1 173.54 63.42C178.38 64.98 183.27 66.46 188.3 67.23C193.79 68.06 199.38 68.03 204.69 66.26C205.62 65.95 206.07 64.94 205.59 64.06C203.017 59.3349 199.933 54.9305 196.412 50.9069C195.715 50.1102 195.001 49.3285 194.27 48.5621C191.318 45.4665 188.095 42.6222 184.64 40.06C183.53 39.24 182.14 40.59 182.44 41.75C183.565 46.2364 184.689 50.7605 185.556 55.3202C186.098 58.173 186.539 61.0398 186.816 63.9201C187.19 67.8158 187.263 71.7362 186.88 75.68C186.69 77.6 189.69 77.59 189.88 75.68H189.86Z" fill="black"/>
<path fill-rule="evenodd" clip-rule="evenodd" d="M189.861 64.4115C189.542 60.7075 188.951 57.0229 188.215 53.3626C188.512 53.1284 188.807 52.8908 189.1 52.65C189.509 52.3136 189.919 51.9666 190.332 51.6168C190.837 51.1899 191.346 50.759 191.863 50.3386C193.085 51.6107 194.258 52.9286 195.381 54.2887C194.271 57.769 193.023 61.2144 191.657 64.6068C191.058 64.5545 190.459 64.4889 189.861 64.4115Z" fill="#FFC52A"/>
<path fill-rule="evenodd" clip-rule="evenodd" d="M186.816 63.9201C184.015 63.3845 181.244 62.6389 178.54 61.83C177.58 61.54 176.62 61.25 175.67 60.94C175.415 60.86 175.16 60.7774 174.905 60.6949C174.86 60.6806 174.816 60.6663 174.772 60.652C174.794 60.6432 174.813 60.6358 174.83 60.63C175.3 60.47 175.77 60.31 176.24 60.14C177.16 59.8 178.07 59.42 178.97 59.02C181.29 57.9926 183.478 56.7426 185.556 55.3202C186.098 58.173 186.539 61.0398 186.816 63.9201Z" fill="#FFC52A"/>
<path fill-rule="evenodd" clip-rule="evenodd" d="M187.513 50.0574C187.151 48.4354 186.768 46.8185 186.376 45.2071C187.531 46.176 188.654 47.182 189.743 48.2228C189.315 48.5667 188.891 48.9174 188.47 49.27C188.152 49.5354 187.833 49.798 187.513 50.0574Z" fill="#FFC52A"/>
<path fill-rule="evenodd" clip-rule="evenodd" d="M194.27 48.5621C195.284 47.9075 196.347 47.3617 197.482 47.0143C197.146 48.3152 196.789 49.6131 196.412 50.9069C195.715 50.1102 195.001 49.3285 194.27 48.5621Z" fill="#FFC52A"/>
<path fill-rule="evenodd" clip-rule="evenodd" d="M197.604 57.1264C199.216 59.2945 200.706 61.5558 202.065 63.8975C199.671 64.5038 197.247 64.7573 194.817 64.752C195.813 62.2354 196.745 59.6912 197.604 57.1264Z" fill="#FFC52A"/>
<path d="M27.2757 198.871C27.641 195.099 27.5976 191.341 27.2763 187.603C26.958 183.899 26.367 180.214 25.6307 176.554C25.4086 175.45 25.1733 174.348 24.9283 173.249C24.5668 171.627 24.1841 170.01 23.7916 168.399C23.4448 166.975 23.0902 165.556 22.7357 164.141L20.5357 165.831C21.6476 166.655 22.7333 167.511 23.7916 168.399C24.9471 169.367 26.0699 170.373 27.1587 171.414C27.8806 172.104 28.5875 172.81 29.279 173.53C30.5004 174.802 31.6737 176.12 32.7964 177.48C33.5614 178.407 34.3029 179.353 35.0201 180.318C36.6321 182.486 38.1217 184.747 39.4804 187.089C39.7994 187.639 40.1112 188.193 40.4157 188.751L41.3157 186.551C40.7062 186.755 40.0943 186.933 39.4804 187.089C37.0863 187.695 34.6622 187.949 32.2326 187.943C31.1797 187.941 30.1257 187.89 29.0727 187.798C28.4735 187.746 27.8746 187.68 27.2763 187.603C26.2587 187.471 25.243 187.305 24.2312 187.111C21.4308 186.576 18.6594 185.83 15.9557 185.021C14.9957 184.731 14.0357 184.441 13.0857 184.131C12.7864 184.038 12.4871 183.94 12.1878 183.843C11.9771 183.775 11.7664 183.708 11.5557 183.641C11.3757 183.581 10.9457 183.341 10.8157 183.401C10.5957 183.291 10.6057 183.441 10.8257 183.851C10.7557 184.301 10.8257 184.441 11.0457 184.261C11.222 184.299 11.9062 183.957 12.1878 183.843C12.2096 183.835 12.2291 183.827 12.2457 183.821C12.7157 183.661 13.1857 183.501 13.6557 183.331C14.5757 182.991 15.4857 182.611 16.3857 182.211C18.7053 181.184 20.8939 179.934 22.9714 178.512C23.8784 177.891 24.7643 177.237 25.6307 176.554C25.9279 176.32 26.2229 176.082 26.5157 175.841C27.4239 175.094 28.3373 174.295 29.279 173.53C30.0575 172.898 30.8553 172.289 31.6855 171.753C32.6999 171.099 33.7626 170.553 34.8976 170.206C35.5453 170.007 36.2165 169.874 36.9157 169.821L35.4657 167.921C35.2835 168.684 35.0941 169.445 34.8976 170.206C34.5614 171.507 34.2046 172.804 33.828 174.098C33.4989 175.229 33.1548 176.356 32.7964 177.48C31.6863 180.96 30.4384 184.406 29.0727 187.798C27.662 191.302 26.1256 194.75 24.4857 198.121C23.6457 199.851 26.2257 201.371 27.0757 199.631C28.9297 195.823 30.6603 191.917 32.2326 187.943C33.2283 185.427 34.1604 182.883 35.0201 180.318C36.303 176.491 37.4247 172.617 38.3557 168.721C38.5657 167.841 37.9157 166.751 36.9057 166.821C33.0935 167.1 30.0313 169.106 27.1587 171.414C26.7308 171.758 26.307 172.109 25.8857 172.461C25.5679 172.727 25.2489 172.989 24.9283 173.249C21.6371 175.912 18.1813 178.242 14.2357 179.891C13.1857 180.331 12.1057 180.701 11.0257 181.061C10.0657 181.381 9.08566 181.741 8.46566 182.591C7.94566 183.311 7.83567 184.251 8.26567 185.041C8.80567 186.021 9.97565 186.291 10.9557 186.611C15.7957 188.171 20.6857 189.651 25.7157 190.421C31.2057 191.251 36.7957 191.221 42.1057 189.451C43.0357 189.141 43.4857 188.131 43.0057 187.251C40.4329 182.526 37.349 178.122 33.828 174.098C33.1307 173.302 32.4164 172.52 31.6855 171.753C28.7332 168.658 25.5106 165.814 22.0557 163.251C20.9457 162.431 19.5557 163.781 19.8557 164.941C20.9803 169.428 22.1049 173.952 22.9714 178.512C23.5135 181.364 23.9545 184.231 24.2312 187.111C24.6054 191.007 24.6791 194.928 24.2957 198.871C24.1057 200.791 27.1057 200.781 27.2957 198.871H27.2757Z" fill="black"/>
<path fill-rule="evenodd" clip-rule="evenodd" d="M27.2763 187.603C26.958 183.899 26.367 180.214 25.6307 176.554C25.9279 176.32 26.2229 176.082 26.5157 175.841C26.9247 175.505 27.3347 175.158 27.7479 174.808C28.2523 174.381 28.7614 173.95 29.279 173.53C30.5004 174.802 31.6737 176.12 32.7964 177.48C31.6863 180.96 30.4384 184.406 29.0727 187.798C28.4735 187.746 27.8746 187.68 27.2763 187.603Z" fill="#FFC52A"/>
<path fill-rule="evenodd" clip-rule="evenodd" d="M24.2312 187.111C21.4308 186.576 18.6594 185.83 15.9557 185.021C14.9957 184.731 14.0357 184.441 13.0857 184.131C12.8305 184.051 12.5753 183.969 12.3202 183.886C12.276 183.872 12.2319 183.858 12.1878 183.843C12.2096 183.835 12.2291 183.827 12.2457 183.821C12.7157 183.661 13.1857 183.501 13.6557 183.331C14.5757 182.991 15.4857 182.611 16.3857 182.211C18.7053 181.184 20.8939 179.934 22.9714 178.512C23.5135 181.364 23.9545 184.231 24.2312 187.111Z" fill="#FFC52A"/>
<path fill-rule="evenodd" clip-rule="evenodd" d="M24.9283 173.249C24.5668 171.627 24.1841 170.01 23.7916 168.399C24.9471 169.367 26.0699 170.373 27.1587 171.414C26.7308 171.758 26.307 172.109 25.8857 172.461C25.5679 172.727 25.2489 172.989 24.9283 173.249Z" fill="#FFC52A"/>
<path fill-rule="evenodd" clip-rule="evenodd" d="M31.6855 171.753C32.6999 171.099 33.7626 170.553 34.8976 170.206C34.5614 171.507 34.2046 172.804 33.828 174.098C33.1307 173.302 32.4164 172.52 31.6855 171.753Z" fill="#FFC52A"/>
<path fill-rule="evenodd" clip-rule="evenodd" d="M35.0201 180.318C36.6321 182.486 38.1217 184.747 39.4804 187.089C37.0863 187.695 34.6622 187.949 32.2326 187.943C33.2283 185.427 34.1604 182.883 35.0201 180.318Z" fill="#FFC52A"/>
</g>
<defs>
<clipPath id="clip0_16_366">
<rect width="271.95" height="245.11" fill="white"/>
</clipPath>
</defs>
</svg>
