<svg width="25" height="25" viewBox="0 0 25 25" fill="none" xmlns="http://www.w3.org/2000/svg">
<path d="M7.29175 16.6665V11.4582C7.29175 10.8829 7.75812 10.4165 8.33341 10.4165C8.90871 10.4165 9.37508 10.8829 9.37508 11.4582V16.6665C9.37508 17.2418 8.90871 17.7082 8.33341 17.7082C7.75812 17.7082 7.29175 17.2418 7.29175 16.6665ZM15.6251 16.6665V13.5415C15.6251 13.2652 15.5153 13.0004 15.3199 12.805C15.1246 12.6097 14.8597 12.4998 14.5834 12.4998C14.3071 12.4998 14.0423 12.6097 13.8469 12.805C13.6516 13.0004 13.5417 13.2652 13.5417 13.5415V16.6665C13.5417 17.2418 13.0754 17.7082 12.5001 17.7082C11.9248 17.7082 11.4584 17.2418 11.4584 16.6665V11.4582C11.4584 10.8829 11.9248 10.4165 12.5001 10.4165C12.7877 10.4165 13.0481 10.5332 13.2366 10.7217C13.6532 10.5227 14.1129 10.4165 14.5834 10.4165C15.4122 10.4165 16.2068 10.746 16.7929 11.332C17.3789 11.9181 17.7084 12.7127 17.7084 13.5415V16.6665C17.7084 17.2418 17.242 17.7082 16.6667 17.7082C16.0915 17.7082 15.6251 17.2418 15.6251 16.6665ZM7.29175 8.34334V8.33317C7.29175 7.75787 7.75812 7.2915 8.33341 7.2915C8.90871 7.2915 9.37508 7.75787 9.37508 8.33317V8.34334C9.37508 8.91864 8.90871 9.38501 8.33341 9.38501C7.75812 9.38501 7.29175 8.91864 7.29175 8.34334Z" fill="#FFFFF3" fill-opacity="0.5"/>
<path d="M20.8334 7.29159C20.8334 6.46278 20.5039 5.66816 19.9178 5.08211C19.3318 4.49606 18.5372 4.16659 17.7084 4.16659H7.29171C6.46291 4.16659 5.66829 4.49606 5.08223 5.08211C4.49618 5.66816 4.16671 6.46278 4.16671 7.29159V17.7083C4.16671 18.5371 4.49618 19.3317 5.08223 19.9177C5.66829 20.5038 6.46291 20.8333 7.29171 20.8333H17.7084C18.5372 20.8333 19.3318 20.5038 19.9178 19.9177C20.5039 19.3317 20.8334 18.5371 20.8334 17.7083V7.29159ZM22.9167 17.7083C22.9167 19.0896 22.3681 20.4145 21.3913 21.3912C20.4146 22.368 19.0897 22.9166 17.7084 22.9166H7.29171C5.91037 22.9166 4.5855 22.368 3.60874 21.3912C2.63199 20.4145 2.08337 19.0896 2.08337 17.7083V7.29159C2.08337 5.91025 2.63199 4.58537 3.60874 3.60862C4.5855 2.63187 5.91037 2.08325 7.29171 2.08325H17.7084C19.0897 2.08325 20.4146 2.63187 21.3913 3.60862C22.3681 4.58537 22.9167 5.91025 22.9167 7.29159V17.7083Z" fill="#FFFFF3" fill-opacity="0.5"/>
</svg>
