<svg width="38" height="38" viewBox="0 0 38 38" fill="none" xmlns="http://www.w3.org/2000/svg">
<path d="M29.0203 11.8753C29.0203 11.4952 28.9454 11.1185 28.8 10.7674C28.6545 10.4162 28.441 10.0969 28.1722 9.82806C27.9034 9.55924 27.5841 9.34579 27.2329 9.2003C26.8816 9.05481 26.5052 8.97996 26.125 8.97996C25.7448 8.97996 25.3684 9.05481 25.0171 9.2003C24.6659 9.34579 24.3466 9.55924 24.0778 9.82806L23.6139 10.2912L27.7083 14.3856L28.1722 13.9217C28.4409 13.6529 28.6545 13.3342 28.8 12.9831C28.9454 12.632 29.0203 12.2553 29.0203 11.8753ZM7.91667 25.9892V30.0836H12.0103L25.4686 16.6245L21.375 12.5309L7.91667 25.9892ZM32.187 11.8753C32.1869 12.6711 32.03 13.4593 31.7254 14.1946C31.4208 14.93 30.974 15.5985 30.4111 16.1614L13.7861 32.7864C13.4892 33.0832 13.0865 33.2503 12.6667 33.2503H6.33333C5.45898 33.2503 4.75016 32.5412 4.75 31.6669V25.3336L4.75773 25.1767C4.79375 24.8142 4.95409 24.4731 5.21387 24.2134L21.8389 7.58836C22.4017 7.02559 23.0703 6.57943 23.8057 6.27484C24.541 5.97029 25.3291 5.81329 26.125 5.81329C26.9209 5.81329 27.709 5.97029 28.4443 6.27484C29.1797 6.57943 29.8483 7.02559 30.4111 7.58836C30.974 8.15123 31.4208 8.81973 31.7254 9.55516C32.0301 10.2906 32.187 11.0792 32.187 11.8753Z" fill="#FFFFF3"/>
</svg>
