<svg width="25" height="24" viewBox="0 0 25 24" fill="none" xmlns="http://www.w3.org/2000/svg">
<path d="M20.8308 11.8032C20.8056 10.8197 20.5917 9.84844 20.1991 8.93848C19.7803 7.96788 19.1663 7.08613 18.3925 6.34326C17.6187 5.6004 16.7002 5.01092 15.6891 4.60889C14.7413 4.23197 13.7295 4.02664 12.705 4.00244L12.5 4C11.4057 4 10.322 4.20685 9.31095 4.60889C8.29992 5.01092 7.38142 5.6004 6.60761 6.34326C5.83379 7.08613 5.21975 7.96788 4.80096 8.93848C4.38218 9.90908 4.16671 10.9494 4.16671 12L4.16925 12.1968C4.19446 13.1803 4.40834 14.1516 4.80096 15.0615C5.21975 16.0321 5.83379 16.9139 6.60761 17.6567C7.38142 18.3996 8.29992 18.9891 9.31095 19.3911C10.322 19.7931 11.4057 20 12.5 20L12.705 19.9976C13.7295 19.9734 14.7413 19.768 15.6891 19.3911C16.7002 18.9891 17.6187 18.3996 18.3925 17.6567C19.1663 16.9139 19.7803 16.0321 20.1991 15.0615C20.6179 14.0909 20.8334 13.0506 20.8334 12L20.8308 11.8032ZM22.9137 12.2461C22.8821 13.4754 22.6145 14.6893 22.1238 15.8267C21.6003 17.0399 20.8332 18.1427 19.866 19.0713C18.8987 19.9999 17.75 20.7362 16.4861 21.2388C15.3014 21.7099 14.0369 21.9668 12.7564 21.9971L12.5 22C11.1322 22 9.7777 21.7413 8.51394 21.2388C7.25013 20.7362 6.10139 19.9999 5.13411 19.0713C4.16684 18.1427 3.39981 17.0399 2.87632 15.8267C2.3856 14.6893 2.11795 13.4754 2.08643 12.2461L2.08337 12C2.08337 10.6868 2.35288 9.38656 2.87632 8.17334C3.39981 6.96008 4.16684 5.8573 5.13411 4.92871C6.10139 4.00012 7.25013 3.26378 8.51394 2.76123C9.7777 2.25872 11.1322 2 12.5 2L12.7564 2.00293C14.0369 2.03319 15.3014 2.29013 16.4861 2.76123C17.75 3.26378 18.8987 4.00013 19.866 4.92871C20.8332 5.8573 21.6003 6.96008 22.1238 8.17334C22.6472 9.38656 22.9167 10.6868 22.9167 12L22.9137 12.2461Z" fill="#FFFFF3" fill-opacity="0.5"/>
<path d="M16.6972 11.7017C16.6518 10.2105 16.2663 8.74562 15.5661 7.41113C15.0454 6.41892 14.3605 5.51829 13.5417 4.74219V19.2573C14.3604 18.4813 15.0455 17.581 15.5661 16.5889C16.3129 15.1655 16.7018 13.5938 16.7018 12L16.6972 11.7017ZM8.2983 12C8.2983 13.5938 8.68717 15.1655 9.43406 16.5889C9.95465 17.581 10.6397 18.4813 11.4584 19.2573V4.74219C10.6396 5.5183 9.95471 6.41891 9.43406 7.41113C8.68717 8.83452 8.2983 10.4062 8.2983 12ZM18.7796 12.3569C18.7252 14.1405 18.2642 15.8926 17.4266 17.4888C16.5333 19.1912 15.2366 20.6691 13.6409 21.8037C13.3777 21.9908 13.0531 22.0405 12.759 21.9673C12.6761 21.9877 12.5896 22 12.5001 22C12.4102 22 12.3233 21.9878 12.2402 21.9673C11.9463 22.0402 11.6221 21.9906 11.3592 21.8037C9.76356 20.6691 8.46686 19.1912 7.57351 17.4888C6.73597 15.8926 6.27493 14.1405 6.22056 12.3569L6.21497 12C6.21497 10.0937 6.68015 8.21373 7.57351 6.51123C8.46686 4.80877 9.76356 3.33092 11.3592 2.19629C11.6221 2.00939 11.9463 1.95984 12.2402 2.03271C12.3233 2.01218 12.4102 2 12.5001 2C12.5896 2 12.6761 2.01233 12.759 2.03271C13.0531 1.95951 13.3777 2.00918 13.6409 2.19629C15.2366 3.33092 16.5333 4.80876 17.4266 6.51123C18.32 8.21373 18.7852 10.0937 18.7852 12L18.7796 12.3569Z" fill="#FFFFF3" fill-opacity="0.5"/>
</svg>
