<svg width="36" height="36" viewBox="0 0 36 36" fill="none" xmlns="http://www.w3.org/2000/svg">
<path d="M15 6V9H21V6H15ZM10.4949 28.3755C10.4983 28.4169 10.5 28.4584 10.5 28.5C10.5 28.8978 10.6581 29.2792 10.9395 29.5605C11.2208 29.8419 11.6022 30 12 30H24C24.3978 30 24.7792 29.8419 25.0605 29.5605C25.3419 29.2792 25.5 28.8978 25.5 28.5L25.5051 28.3755L26.8696 12H9.13037L10.4949 28.3755ZM13.5 25.5V16.5C13.5 15.6716 14.1716 15 15 15C15.8284 15 16.5 15.6716 16.5 16.5V25.5C16.5 26.3284 15.8284 27 15 27C14.1716 27 13.5 26.3284 13.5 25.5ZM19.5 25.5V16.5C19.5 15.6716 20.1716 15 21 15C21.8284 15 22.5 15.6716 22.5 16.5V25.5C22.5 26.3284 21.8284 27 21 27C20.1716 27 19.5 26.3284 19.5 25.5ZM24 9H30C30.8284 9 31.5 9.67157 31.5 10.5C31.5 11.3284 30.8284 12 30 12H29.8806L28.4971 28.5916C28.4735 29.7519 28.0039 30.8593 27.1816 31.6816C26.3377 32.5256 25.1935 33 24 33H12C10.8065 33 9.66227 32.5256 8.81836 31.6816C7.99605 30.8593 7.52579 29.7519 7.5022 28.5916L6.11938 12H6C5.17157 12 4.5 11.3284 4.5 10.5C4.5 9.67157 5.17157 9 6 9H12V6C12 5.20435 12.3163 4.44151 12.8789 3.87891C13.4415 3.3163 14.2044 3 15 3H21C21.7957 3 22.5585 3.3163 23.1211 3.87891C23.6837 4.44151 24 5.20435 24 6V9Z" fill="#FFFFF3"/>
</svg>
