<svg width="37" height="37" viewBox="0 0 37 37" fill="none" xmlns="http://www.w3.org/2000/svg">
<path d="M20.0417 10.7916V4.62492C20.0417 3.77348 20.732 3.08325 21.5834 3.08325C22.4349 3.08325 23.1251 3.77348 23.1251 4.62492V10.7916H29.2917C30.1432 10.7916 30.8334 11.4818 30.8334 12.3333C30.8334 13.1847 30.1432 13.8749 29.2917 13.8749H23.1251C22.3073 13.8749 21.5233 13.5498 20.9451 12.9716C20.3668 12.3934 20.0417 11.6093 20.0417 10.7916Z" fill="black"/>
<path d="M6.16675 29.2916V7.70825C6.16675 6.48163 6.65437 5.30559 7.52173 4.43823C8.38908 3.57088 9.56512 3.08325 10.7917 3.08325H21.5834L21.7355 3.09078C22.0885 3.12576 22.4204 3.28186 22.6734 3.53491L30.3818 11.2432C30.6709 11.5324 30.8334 11.9244 30.8334 12.3333V29.2916C30.8334 30.5182 30.3458 31.6943 29.4784 32.5616C28.6111 33.429 27.435 33.9166 26.2084 33.9166H10.7917C9.56512 33.9166 8.38908 33.429 7.52173 32.5616C6.65437 31.6943 6.16675 30.5182 6.16675 29.2916ZM16.9584 26.2083V16.9583C16.9584 16.1068 17.6486 15.4166 18.5001 15.4166C19.3515 15.4166 20.0417 16.1068 20.0417 16.9583V26.2083C20.0417 27.0597 19.3515 27.7499 18.5001 27.7499C17.6486 27.7499 16.9584 27.0597 16.9584 26.2083ZM9.25008 29.2916L9.25761 29.4436C9.29259 29.7967 9.44869 30.1285 9.70174 30.3816C9.99086 30.6707 10.3829 30.8333 10.7917 30.8333H26.2084C26.6173 30.8333 27.0093 30.6707 27.2984 30.3816C27.5875 30.0925 27.7501 29.7005 27.7501 29.2916V12.9716L20.9451 6.16659H10.7917C10.3829 6.16659 9.99086 6.32913 9.70174 6.61825C9.41262 6.90736 9.25008 7.29938 9.25008 7.70825V29.2916Z" fill="black"/>
<path d="M17.5266 15.7621C18.1322 15.2682 19.0255 15.3038 19.59 15.8683L23.4441 19.7224C24.0462 20.3245 24.0462 21.3004 23.4441 21.9024C22.8421 22.5045 21.8662 22.5045 21.2641 21.9024L18.5 19.1383L15.7358 21.9024C15.1337 22.5045 14.1579 22.5045 13.5558 21.9024C12.9537 21.3004 12.9537 20.3245 13.5558 19.7224L17.41 15.8683L17.5266 15.7621Z" fill="black"/>
</svg>
