<svg width="170" height="50" viewBox="0 0 170 50" fill="none" xmlns="http://www.w3.org/2000/svg">
<path d="M170 32.7754C170 34.4918 169.579 35.9902 168.736 37.2707C167.894 38.5512 166.672 39.5456 165.069 40.254C163.493 40.9351 161.564 41.2756 159.282 41.2756C158.277 41.2756 157.285 41.2075 156.307 41.0713C155.356 40.9351 154.432 40.7444 153.536 40.4992C152.666 40.2267 151.838 39.8998 151.05 39.5184V33.7562C152.435 34.3556 153.862 34.9141 155.329 35.4317C156.823 35.9221 158.304 36.1673 159.771 36.1673C160.776 36.1673 161.578 36.0311 162.175 35.7586C162.8 35.4862 163.248 35.1184 163.52 34.6552C163.819 34.1921 163.968 33.6608 163.968 33.0614C163.968 32.3258 163.71 31.6992 163.194 31.1816C162.705 30.6639 162.039 30.1872 161.197 29.7513C160.355 29.2881 159.39 28.7977 158.304 28.2801C157.624 27.9531 156.891 27.5717 156.103 27.1358C155.315 26.6726 154.554 26.1141 153.821 25.4603C153.114 24.7791 152.53 23.9618 152.069 23.0083C151.607 22.0547 151.376 20.9104 151.376 19.5755C151.376 17.8318 151.77 16.347 152.558 15.121C153.373 13.8678 154.514 12.9142 155.981 12.2603C157.475 11.6065 159.227 11.2795 161.238 11.2795C162.759 11.2795 164.199 11.4566 165.558 11.8108C166.943 12.165 168.383 12.669 169.878 13.3229L167.881 18.1451C166.549 17.6002 165.354 17.178 164.294 16.8783C163.235 16.5786 162.148 16.4287 161.034 16.4287C160.273 16.4287 159.621 16.5513 159.078 16.7965C158.535 17.0417 158.114 17.3823 157.815 17.8182C157.543 18.2541 157.407 18.7718 157.407 19.3711C157.407 20.0522 157.611 20.638 158.018 21.1284C158.426 21.5915 159.037 22.0411 159.852 22.477C160.667 22.9129 161.686 23.4305 162.909 24.0299C164.403 24.7383 165.666 25.4739 166.699 26.2367C167.758 26.9996 168.573 27.8986 169.144 28.9339C169.715 29.9692 170 31.2497 170 32.7754Z" fill="#FFFFF3"/>
<path d="M140.45 40.8667H134.296V16.8372H126.39V11.688H148.356V16.8372H140.45V40.8667Z" fill="#FFFFF3"/>
<path d="M121.78 40.8663L119.661 33.919H109.065L106.946 40.8663H100.304L110.573 11.5649H118.113L128.423 40.8663H121.78ZM116.075 21.9451C115.939 21.4819 115.763 20.8961 115.545 20.1878C115.328 19.4794 115.111 18.7575 114.893 18.0219C114.676 17.2863 114.499 16.646 114.363 16.1011C114.228 16.646 114.037 17.3271 113.793 18.1445C113.575 18.9346 113.358 19.6974 113.141 20.433C112.951 21.1413 112.801 21.6454 112.693 21.9451L110.614 28.7289H118.194L116.075 21.9451Z" fill="#FFFFF3"/>
<path d="M80.9283 40.8667V11.688H87.082V35.7584H98.9003V40.8667H80.9283Z" fill="#FFFFF3"/>
<path d="M64.6299 11.688C68.3792 11.688 71.1097 12.5053 72.8213 14.14C74.5601 15.7474 75.4295 17.9678 75.4295 20.8012C75.4295 22.0817 75.2393 23.3077 74.8589 24.4792C74.4786 25.6235 73.8401 26.6588 72.9435 27.5851C72.0741 28.4842 70.9195 29.1925 69.4795 29.7102C68.0396 30.2278 66.2601 30.4866 64.1409 30.4866H61.492V40.8667H55.3383V11.688H64.6299ZM64.3039 16.7554H61.492V25.4192H63.5296C64.6979 25.4192 65.7031 25.2693 66.5453 24.9696C67.3876 24.6699 68.0396 24.1932 68.5015 23.5393C68.9633 22.8854 69.1943 22.0409 69.1943 21.0056C69.1943 19.5616 68.8003 18.4991 68.0124 17.818C67.2246 17.1096 65.9884 16.7554 64.3039 16.7554Z" fill="#FFFFF3"/>
<path d="M18.3456 8.02022L25.4085 21.6241L35.5898 9.76153L40.5138 15.2632L29.1549 24.1927L43.8107 29.5466L40.2446 36.3739L27.0676 28.4258L29.6682 43.3594L21.8091 44.0781L22.5609 28.5478L10.025 35.4002L6.92899 28.6912L21.6871 24.082L11.9475 12.246L18.3456 8.02022Z" fill="#FFFFF3"/>
</svg>
